<?xml version="1.0" encoding="utf-8"?>
<!-- Generator: Adobe Illustrator 25.3.1, SVG Export Plug-In . SVG Version: 6.00 Build 0)  -->
<svg version="1.1" id="Layer_1" xmlns="http://www.w3.org/2000/svg" xmlns:xlink="http://www.w3.org/1999/xlink" x="0px" y="0px"
	 viewBox="0 0 879.6 508.9" style="enable-background:new 0 0 879.6 508.9;" xml:space="preserve">
<style type="text/css">
	.st0{fill:none;stroke:#FFFFFF;stroke-width:3;stroke-miterlimit:10;}
	.st1{fill:#CB7D39;}
	.st2{fill:#FFF355;}
	.st3{fill:#BEBCC0;}
	.st4{fill:#DFDFDF;}
	.st5{fill:#7F8487;}
	.st6{fill:#5E5E61;}
	.st7{fill:#FFFFFF;}
	.st8{fill:#6A7475;}
	.st9{fill:#929292;}
	.st10{fill:#D8E3E4;}
	.st11{fill:#646464;}
	.st12{fill:#4D5655;}
	.st13{fill:#333366;fill-opacity:0.5;}
	.st14{fill:#F6E13A;}
	.st15{fill:#EAA950;}
	.st16{fill:#F0C654;}
	.st17{fill:#FBF473;}
	.st18{fill:none;}
	.st19{fill:none;filter:url(#Adobe_OpacityMaskFilter);}
	.st20{mask:url(#mask0_2_);}
	.st21{fill:#311B92;}
	.st22{fill:#99CCCC;}
	.st23{opacity:0.1;fill:#A9A9A9;enable-background:new    ;}
	.st24{fill:#DCDCDC;}
	.st25{fill:#333366;}
	.st26{opacity:0.1;}
	.st27{fill:#669999;}
	.st28{opacity:0.1;fill:#8DE7FC;enable-background:new    ;}
	.st29{fill:#67B7E0;}
	.st30{opacity:0.1;fill:#669999;enable-background:new    ;}
	.st31{fill:#F7ED90;}
	.st32{opacity:0.6;fill:none;enable-background:new    ;}
</style>
<path class="st0" d="M152.3,166.4c0,0,118.3-36.5,173.8-7.7s87.1,111.3,92.2,119.7"/>
<path class="st1" d="M27.7,319.8c0,0,36.9-14.5,55.3-47.5l19.2-34.5l-44-24.5L39,247.8C20.6,280.8,27.7,319.8,27.7,319.8z"/>
<path class="st2" d="M39,299.6c0,0,25.3-10,37.9-32.6l13.1-23.5l-30.2-16.9l-13.1,23.5C34.1,272.9,39,299.6,39,299.6z"/>
<path class="st3" d="M70.2,130.5c-26.5,37.7-70.2,30-70.2,30l14.3,70.2C14.3,230.7,96.7,92.8,70.2,130.5z"/>
<path class="st4" d="M121.5,231.5l-4.7,8.4c-3.7,6.7-12.2,9-18.8,5.3l-43.6-24.3c-6.7-3.7-9-12.2-5.3-18.8l4.7-8.4
	c3.7-6.7,12.2-9,18.8-5.3l43.6,24.3C122.8,216.4,125.2,224.9,121.5,231.5z"/>
<path class="st4" d="M121.5,231.5l-4.7,8.4c-3.7,6.7-12.2,9-18.8,5.3l-29.8-16.7c-6.7-3.7-9-12.2-5.3-18.8l4.7-8.4
	c3.7-6.7,12.2-9,18.8-5.3l29.8,16.7C122.8,216.4,125.2,224.9,121.5,231.5z"/>
<path class="st5" d="M109.1,224.7l-4.7,8.4c-3.7,6.7-12.2,9-18.8,5.3l-17.7-9.8c-6.7-3.7-9-12.2-5.3-18.8l4.7-8.4
	c3.7-6.7,12.2-9,18.8-5.3l17.7,9.8C110.5,209.6,112.8,218,109.1,224.7z"/>
<path class="st6" d="M71,134.2c-26.5,37.7-70.2,30-70.2,30l14.3,70.2C15.1,234.5,97.5,96.5,71,134.2z"/>
<path class="st7" d="M166.4,186c-18.6,43.4,11.8,77.5,11.8,77.5l-69.1,25.3C109.1,288.8,185,142.5,166.4,186z"/>
<path class="st4" d="M162.7,187.2c-18.6,43.4,11.8,77.5,11.8,77.5l-69.1,25.5C105.4,290.2,181.3,143.8,162.7,187.2z"/>
<path class="st8" d="M140.3,229.8c-2.4,4.3-7.7,5.7-12,3.3L49.2,189c-4.3-2.4-5.7-7.7-3.3-12c2.4-4.3,7.7-5.7,12-3.3l79.1,44.1
	C141.3,220.4,142.6,225.6,140.3,229.8z"/>
<path class="st9" d="M182.3,154.6l-41.2,74L46.7,176l41.2-74c18.1-32.4,44.5-56.5,67.9-73.2c5.7-4.1,11.4-7.7,16.5-11
	c3.1-2,6.3-3.7,9.2-5.3c14.3-8,24.3-12.2,25.1-12.6c0.2,1,2,11.4,2.6,27.7c0.2,3.5,0.2,7.3,0.2,11.2c0,5.9-0.2,12.4-0.6,19
	C207,86.7,200.3,122,182.3,154.6z"/>
<path class="st7" d="M182.3,154.6l-41.2,74l-67.9-37.9l41.2-74c17.5-31.2,37.3-57.7,54.2-77.3c3.9-4.7,7.8-9,11.4-13
	c2.2-2.4,4.1-4.5,6.1-6.5c11.8-12.4,19.6-19.4,20.2-20c0.2,1,2,11.4,2.6,27.7c0.2,3.5,0.2,7.3,0.2,11.2c0,5.9-0.2,12.4-0.6,19
	C207,86.7,200.3,122,182.3,154.6z"/>
<path class="st4" d="M155.6,139.9l-41.2,74l-41.2-23l41.2-74c17.5-31.2,37.3-57.7,54.2-77.3c3.9-4.7,7.8-9,11.4-13
	c2.2-2.4,4.1-4.5,6.1-6.5c11.8-12.4,19.6-19.4,20.2-20c-0.2,0.8-2,11.2-6.3,27.7c-0.8,2.7-1.6,5.7-2.4,8.6
	c-1.4,5.1-3.1,10.6-4.9,16.3C185,77.7,173.1,108.5,155.6,139.9z"/>
<path class="st10" d="M181.7,70.8c-3.5,6.3-11.4,8.4-17.5,4.9c-6.3-3.5-8.4-11.4-4.9-17.5c3.5-6.3,11.4-8.4,17.5-4.9
	C183.1,56.7,185.2,64.6,181.7,70.8z"/>
<path class="st11" d="M163.1,77.9c-7.3-4.1-10-13.3-5.9-20.8c4.1-7.3,13.3-10,20.8-5.9c7.3,4.1,10,13.3,5.9,20.8
	C179.7,79.3,170.5,82,163.1,77.9z M175.6,55.3c-5.1-2.7-11.6-1-14.3,4.1c-2.7,5.1-1,11.6,4.1,14.3c5.1,2.7,11.6,1,14.3-4.1
	C182.5,64.6,180.7,58.3,175.6,55.3z"/>
<path class="st7" d="M178.9,66.3c-1.4,2.6-4.5,3.3-7.1,2c-2.6-1.4-3.3-4.5-2-7.1c1.4-2.6,4.5-3.3,7.1-2
	C179.3,60.6,180.3,63.8,178.9,66.3z"/>
<path class="st7" d="M111.3,198.4l-58.7,77.9l35.3-90.8l24.1-15.9L111.3,198.4z"/>
<path class="st12" d="M112,169.5L52.6,276.3l35.3-90.8L112,169.5z"/>
<path class="st13" d="M209,58.1c-5.1-1.2-10.4-2.9-15.9-5.3c-4.3-1.8-8.8-3.9-13.1-6.3c-3.9-2.2-7.7-4.5-11.2-7.1
	c-4.9-3.3-9.2-6.9-13-10.6c5.7-4.1,11.4-7.7,16.5-11c3.1-2,6.3-3.7,9.2-5.3c14.3-8,24.3-12.2,25.1-12.6c0.2,1,2,11.4,2.6,27.7
	c0.2,3.5,0.2,7.3,0.2,11.2C209.6,44.9,209.4,51.4,209,58.1z"/>
<path class="st14" d="M403.1,241.8c0-0.2-0.2-0.4-0.2-0.4h-0.2c-0.4,0.4-0.7,1.3-0.2,2.7c0.7,2.2,1.1,3.6,1.1,3.6l0.7,2h0.2
	c0-0.4-0.2-1.8-0.4-4C403.3,243.6,403.1,242.3,403.1,241.8z M448.8,248.5C448.8,248.2,448.8,248.2,448.8,248.5
	c-1.1,0.2-2.2,1.1-3.1,2.2c-1.1,1.3-1.8,2.4-2.4,3.1h0.2c0.4-0.4,1.6-1.1,3.3-2.4c1.6-1.3,2.2-2,2.2-2.4
	C449.1,248.7,449.1,248.5,448.8,248.5z M465.5,283.8c-0.2-0.2-0.4-0.4-0.4-0.7c-0.9,0.2-1.6,0.4-2.2,0.9c0,0,0.4,0.2,1.1,0.2
	c0.7,0.2,1.1,0.2,1.1,0.2c0.2,0,0.4-0.2,0.4-0.2C465.5,284,465.5,283.8,465.5,283.8z M456.6,304.6c0.4-0.2,0.7-0.4,0.4-1.1
	c-0.2-0.4-0.4-0.7-1.1-0.9c-0.7-0.2-1.3-0.2-1.8,0.2c0,0.2,0.4,0.7,1.1,1.1C455.9,304.4,456.4,304.6,456.6,304.6z M387.3,315.5
	c0-0.4,0-1.1,0-1.6c-0.7,0.2-1.1,0.9-1.3,1.6c-0.2,0.7-0.4,1.1-0.2,1.6c0,0.2,0.2,0.4,0.2,0.4s0.2,0,0.4,0
	C386.9,316.9,387.1,316.2,387.3,315.5z M387.5,245.4c-0.4-0.7-0.7-0.9-0.9-1.1c-0.2,0.2-0.4,0.4-0.4,0.7c0,0,0,0.2,0,0.4
	c0,0,0.4,0.9,1.6,2.2c0,0,0.2-0.2,0.2-0.4s0-0.2,0-0.7S387.8,245.8,387.5,245.4z M438.2,218.3c-0.2,0-0.2,0-0.4,0
	c-0.2,0.2-0.7,0.7-1.1,1.8c-0.4,0.9-0.7,1.8-0.9,2.2c0.4-0.2,0.9-0.9,1.8-1.8c0.7-1.1,1.1-1.8,1.1-2
	C438.4,218.5,438.2,218.3,438.2,218.3z M450.2,269.3c2.7-2.7,5.8-5.1,8.9-7.8c2.7-2,5.1-3.8,7.3-5.3c-15.5,6.2-23.5,9.3-24,9.5
	c-4.2,1.1-7.3,1.8-9.5,1.6c-1.1,0-2-0.2-2.7-0.7c-1.8-0.9-2.9-2.2-3.6-4.4c-0.9-3.3-1.1-7.1-0.7-10.9c0.2-1.3,0.4-2.9,0.9-4.2
	c1.3-5.6,3.8-12.9,7.1-21.8c-6.2,11.3-11.5,20-16,26c-4.7,6.4-8.2,9.5-10.9,9.5c-2.2,0-4.7-0.7-7.1-2c-3.3-1.8-6.7-4.9-10.2-9.3
	c1.6,3.6,3.6,8,5.3,12.9c2,5.1,2.9,8.4,2.7,10.2c0,1.6-0.7,2.9-2,3.3c-1.1,0.7-5.3,0.7-12.4,0.2s-14.2-1.1-20.9-1.8l0.4,0.2
	c5.1,2,12.4,4.4,21.8,7.8c9.3,3.3,10.7,12.4,4.4,27.5c1.6-2.4,3.6-4.9,6.4-7.3c2.9-2.4,4.9-3.8,6.7-4.4c1.6-0.7,3.3-0.2,5.1,1.6
	c1.8,1.8,2.7,8.2,2.9,19.5c1.6-5.1,2.9-8.7,3.6-10.9c0.9-2.2,1.8-4.4,3.1-6.9c1.3-2.4,2.7-4.4,4.2-5.8c1.6-1.3,3.6-2.2,6-2.4
	c2.4-0.2,8,0.9,16.4,3.6c2.7,0.9,5.3,1.8,7.5,2.4c-6.2-4.2-9.5-7.3-10.2-9.1c-0.7-1.8-0.4-2.9,0.2-3.6c0.7-0.7,1.6-1.1,2.4-1.6
	s5.8-1.1,14.4-1.6c-2.2-0.2-4.2-0.7-6.2-1.3c-3.8-1.1-5.8-2.4-6.2-4c-0.4-1.3-0.4-2.4,0-3.3C445.9,273.8,447.5,272,450.2,269.3z"/>
<path class="st15" d="M385.3,288.9c-0.4,2-0.2,4,0.7,6.2c0.6,1.7,1.9,2.4,3.7,2.7c1.5,0.1,3.5-0.2,5.4-0.9c0.5,0,1.2-0.6,2.2-0.9
	c1-0.6,1.7-0.9,2.1-1.4c1.4,2.9,3.5,4,6.2,3.3c-0.6,1.8-0.4,4.3,0.5,6.9c1.2,3.1,3.4,5.2,6.4,5.5c2,0.4,4,0,6.4-0.7
	c3.4-1.2,6.2-4.2,8.1-8.8c1.7-4.1,2.5-7.4,1.5-10.3c0.8,0.2,1.3,0.7,2,0.6c1.5,0.1,3,0,5.2-0.9c2.7-0.9,4.3-2.5,5.1-5.1
	c0-0.2,0.2-0.5,0.2-0.8c-1.2,1.1-2.6,2.2-4.3,2.8c-2.7,0.9-5.1,1.4-7.1,1c-0.5,0-0.8-0.2-1.3-0.2c0.9-0.8,1.6-1.6,2.3-2.6
	c1.1-1.8,1.2-4.1,0.5-7.2c-0.2,1-0.4,2-1,3.1c-3.1,5.2-7.7,8-13.8,8.7c2.3,0.8,4.1,1.2,5.1,1.1c1-0.1,2-0.4,3.4-0.7
	c0.5-0.3,1.2-0.6,1.7-0.9c0.4,2.2,0.3,4.2-0.3,6.2c-1,3.1-3.1,5.2-6.3,6.4c-1.9,0.6-3.4,0.7-4.7,0.3c-1.3-0.4-2.1-1.6-2.7-3.5
	c-0.6-1.7-1-3.2-0.8-4.7c-0.1-1,0.1-2.2,0.5-4c-0.2,0.3-0.2,0.3-0.5,0.5c-0.5,0.5-1.4,0.8-2.6,1.4c-2.9,1-5.2,0.6-7-0.8
	c-1.6-1.1-2.5-3.1-3.4-5.5c-0.2,0.8-0.7,1.3-1.1,1.8c-1.1,1.8-2,3.1-2.7,3.9c-0.7,0.8-1.7,1.1-2.9,1.2c-1.2,0.1-2.2-0.1-2.8-0.6
	s-1.1-1.4-1.7-2.9c-0.4-1.5-0.4-2.7-0.2-3.2c0.2-0.8,0.4-1.3,0.6-1.5c-0.2,0.3-0.2,0.5-0.4,0.8C386.1,286.4,385.7,287.6,385.3,288.9
	z"/>
<path class="st16" d="M445.4,258.6c-0.6-1.7-2-3.3-3.8-5c-1-0.7-1.8-1.4-2.9-1.8c-0.7,0.1-1.7,0.4-2.7,0.7
	c-4.8,1.8-8.1,4.5-10.4,8.2c-0.7,1-1.1,2.1-1.3,3.1c-0.6-1.2-1.2-2.4-2-3.6c-1.7-2.4-3.7-3.2-5.9-2.3c-1.2,0.3-2.2,0.9-2.9,1.7
	c-0.2,0.3-0.2,0.3-0.5,0.5c1.3,0.2,2.3,0.6,3.4,1.8c0.5,0.7,1.1,1.4,1.4,2.4l-0.3-0.2c-2.1-1.1-4.6-1.2-7.7,0
	c-2.2,0.9-4.3,2.5-6.9,5.2c-0.7,0.8-1.4,1.6-1.8,2.1c0.2-1.3,0.1-2.2,0.6-2.8c0.9-2,1.8-3.4,2.7-4.4c0.2-0.3,0.5-0.5,0.7-0.8
	c-0.9-2.4-2-4.3-3.6-5.5c-2.1-1.6-4.1-2-6-1.1c-3.9,1.5-7.1,4.7-9.5,9.9c-0.9,1.6-1.3,3.3-1.7,4.6c0,0.2,0,0.2,0.3,0.5
	c1.2,3.4,2.4,5.8,3.2,6.7c0.5,0.5,1.1,1.2,1.9,2.1c-0.2,0.3-0.5,0.3-0.5,0.5c-0.7,0.8-1.1,1.6-1.8,2.6c0,0.2-0.2,0.8-0.6,1.5
	c-0.2,0.8-0.1,1.8,0.2,3.2c0.4,1.5,0.9,2.4,1.7,2.9c0.5,0.5,1.5,0.6,2.8,0.6c1.2-0.1,2.2-0.4,2.9-1.2c0.7-0.8,1.6-1.9,2.7-3.9
	c0.5-0.5,0.9-1.3,1.1-1.8c0.7,2.4,1.8,4.4,3.4,5.5c1.9,1.6,4.4,1.9,7,0.8c1.2-0.3,2.2-0.9,2.6-1.4c0.2-0.3,0.2-0.3,0.5-0.5
	c-0.4,1.8-0.3,3-0.5,4c0.1,1.5,0.2,3.2,0.8,4.7c0.6,1.9,1.7,3.1,2.7,3.5c1.3,0.4,2.8,0.3,4.7-0.3c3.1-1.2,5.2-3.4,6.3-6.4
	c0.6-2,0.7-4.3,0.3-6.2c-0.5,0.3-1,0.6-1.7,0.9c-1.5,0.6-2.7,0.7-3.4,0.7c-1,0.1-2.8-0.3-5.1-1.1c6.2-0.7,10.7-3.5,13.8-8.7
	c0.7-1,0.9-2,1-3.1c0.7,2.9,0.6,5.4-0.5,7.2c-0.7,1-1.4,1.8-2.3,2.6c0.5,0.2,0.8,0.2,1.3,0.2c2,0.4,4.5-0.1,7.1-1
	c1.7-0.6,3.1-1.5,4.3-2.8c0.4-1.8,0.3-3.3-0.1-4.7c-0.3-0.5-0.6-1.2-1.4-1.6c0,0,0,0-0.2,0c1.6-1.9,2-4.1,1.1-6.3
	c-0.3-0.7-0.6-1.2-0.9-1.7c0.2-0.3,0.5-0.3,1-0.6C444.9,265.8,446.6,262.2,445.4,258.6z M423.3,266.6c1.9-0.6,3.4-0.5,4.8,0.4
	c1,0.7,1.9,1.9,2.2,3.3c0.3,1,0.6,1.9,0.4,2.7c0.1,0.7-0.1,1.5-0.9,2c0-0.2-0.3-0.7-0.6-1.7c-0.6-1.7-1.4-2.9-2.5-3.8
	c-1.6-1.4-3.4-1.8-5.8-1.3C422.3,267.2,422.8,266.6,423.3,266.6z"/>
<path class="st17" d="M428.3,267c-1.3-0.9-3.1-1.3-4.8-0.4c-0.5,0.3-1.2,0.6-1.9,1.4c2.2-0.4,4.2,0,5.8,1.3c1.1,0.9,1.9,2.1,2.5,3.8
	c0.3,1,0.6,1.5,0.6,1.7c0.5-0.5,0.7-1,0.9-2c-0.1-0.7-0.1-1.5-0.4-2.7C429.9,268.9,429.1,267.7,428.3,267z M438.7,252.1
	c-1.8-0.6-3.8-0.7-5.7-0.1c-1.9,0.6-3.9,1.8-5.7,3.4c-1.6,1.4-2.8,2.7-3.7,4c-0.6-1-1.4-1.9-2.4-2.6c-1.8-1.1-3.6-1.5-5.3-0.9
	c-1.5,0.6-2.7,1.2-3.8,2c-1.1-1.4-2.9-2.8-5.5-3.8c-2.8-1-6.1-1.3-9.5-0.6c-3.4,0.7-6.7,3.2-9.7,7.1c-3,3.9-4,7.5-2.7,10.9
	c0.4-1.5,1-3.1,1.7-4.6c2.4-5.1,5.6-8.4,9.5-9.9c2.2-0.6,4.2-0.3,6,1.1c1.6,1.1,2.7,3,3.6,5.5c-0.2,0.3-0.5,0.5-0.7,0.8
	c-0.9,0.8-1.8,2.4-2.7,4.4c-0.2,0.5-0.4,1.5-0.6,2.8c0.5-0.5,1.2-1.3,1.8-2.1c2.3-2.6,4.7-4.3,6.9-5.2c3.1-1.2,5.6-1.1,7.7,0
	l0.3,0.2c-0.3-1-0.9-1.7-1.4-2.4c-1.1-0.9-2.1-1.6-3.4-1.8c0.2-0.3,0.5-0.5,0.5-0.5c0.7-0.8,1.6-1.4,2.9-1.7c2.2-0.9,4.2,0,5.9,2.3
	c0.8,0.9,1.4,2.1,2,3.6c0.2-1,0.9-2,1.3-3.1c2-3.9,5.5-6.6,10.4-8.2C437,252.5,437.9,252.1,438.7,252.1z"/>
<rect x="109.1" y="141.5" transform="matrix(0.4531 -0.8915 0.8915 0.4531 -75.8536 194.3621)" class="st18" width="22.8" height="35.1"/>
<defs>
	<filter id="Adobe_OpacityMaskFilter" filterUnits="userSpaceOnUse" x="115.9" y="74.6" width="53.9" height="78.5">
		<feColorMatrix  type="matrix" values="1 0 0 0 0  0 1 0 0 0  0 0 1 0 0  0 0 0 1 0"/>
	</filter>
</defs>
<mask maskUnits="userSpaceOnUse" x="115.9" y="74.6" width="53.9" height="78.5" id="mask0_2_">
	
		<rect x="65.5" y="93" transform="matrix(0.4531 -0.8915 0.8915 0.4531 -41.6852 173.2455)" class="st19" width="109.7" height="55.1"/>
</mask>
<g class="st20">
	
		<rect x="104.2" y="103.2" transform="matrix(0.4531 -0.8915 0.8915 0.4531 -23.3653 189.5596)" class="st21" width="77.2" height="21.2"/>
</g>
<path class="st0" d="M785.7,385.2c0,0-99.7,73.6-161.5,64.8c-62-8.8-118.9-76.1-126.6-82.4"/>
<path class="st22" d="M788.6,356c0,0-1.8-12.6,12.6-15.1l3.3-6.3c0,0-12-2.6-19.4,8c-7.5,10.6-1.6,18.2-1.6,18.2L788.6,356z"/>
<path class="st23" d="M804.3,334.6l-0.6,1.2c-3.9-0.2-11.4,0.8-16.7,8.2c-4.9,7.1-3.9,13-2.7,16.1l-1,1c0,0-5.9-7.7,1.6-18.2
	C792.4,332,804.3,334.6,804.3,334.6z"/>
<path class="st24" d="M754.5,396.8c-5.1,7.1-3.3,17.1,3.7,22.2l15.1,10.8c7.1,5.1,17.1,3.3,22.2-3.7l26.5-37.3
	c5.1-7.1,3.3-17.1-3.7-22.2l-15.1-10.8c-7.1-5.1-17.1-3.3-22.2,3.7L754.5,396.8z"/>
<path class="st23" d="M796.9,353.2c-4.5,0.4-8.8,2.6-11.8,6.7L758.6,397c-5.1,7.1-3.3,17.1,3.7,22.2l15.1,10.8
	c2,1.4,4.1,2.2,6.3,2.7c-3.5,0.2-7.3-0.6-10.4-2.9l-15.1-10.8c-7.1-5.1-8.8-14.9-3.7-22.2l26.5-37.1
	C784.7,354.4,791,352.2,796.9,353.2z"/>
<path class="st24" d="M835.2,313.4c-20.4,3.5-33.8,24.5-29.8,46.9c3.9,22.4,23.5,37.7,43.8,34.1c20.4-3.5,33.7-24.5,29.8-46.9
	C875,325.3,855.6,310,835.2,313.4z"/>
<path class="st25" d="M831.6,322c-19,3.3-31.6,21.8-28.3,41.4c3.3,19.6,21.6,33,40.4,29.6c19-3.3,31.6-21.8,28.3-41.4
	C868.9,332,850.6,318.7,831.6,322z"/>
<path class="st7" d="M827.5,391.9c-14.7-3.5-28.1-15.7-28.8-38.9c-0.8-21.8,12-35.7,33.9-39.4c6.7-1.2,13.1-0.6,19,1.2
	c0,0-43.6,3.1-42.8,37.9C809.6,384.2,827.5,391.9,827.5,391.9z"/>
<path class="st24" d="M801,337.5l3.5,1.4c2.2,0.8,5.3-1.8,6.9-5.9c1.6-4.1,1.2-8-1-8.8l-3.3-1.4L801,337.5z"/>
<path class="st7" d="M806.9,323c-2.2-0.8-5.3,1.8-6.9,5.9c-1.6,4.1-1.2,8,1,8.8c2.2,0.8,5.3-1.8,6.9-5.9
	C809.6,327.7,809.1,323.8,806.9,323z"/>
<path class="st7" d="M865.2,370.9c0,0,3.9-5.3,3.3-15.1c0,0-0.4-7.7-2.9-7.3c0,0-3.1,0-1.2,5.9C864.4,354.6,867.5,363.6,865.2,370.9
	z"/>
<path class="st7" d="M861.2,425.4c-3.3-3.7-9-3.9-12.8-0.6l-3.3,3.1c-3.7,3.3-3.9,9-0.8,12.8c3.3,3.7,9,3.9,12.8,0.6l3.3-3.1
	C864.4,434.8,864.6,429.1,861.2,425.4z"/>
<path class="st7" d="M857.5,438.4c-1-1.4-2.7-1.6-4.1-0.6c-1.4,1-1.6,2.7-0.6,4.1l5.3,7.1c1,1.4,2.7,1.6,4.1,0.6
	c1.4-1,1.6-2.7,0.6-4.1L857.5,438.4z"/>
<path class="st7" d="M862.4,435.2c-1.4-1.2-3.3-1.2-4.3,0c-1.2,1.2-1,3.1,0.4,4.3l7.3,6.7c1.4,1.2,3.3,1.2,4.3,0
	c1.2-1.2,1-3.1-0.4-4.3L862.4,435.2z"/>
<path class="st7" d="M862.8,429.1c-1.6-0.6-3.5,0-4.1,1.6c-0.6,1.6,0.2,3.3,2,3.9l9,3.7c1.6,0.8,3.5,0,4.1-1.6
	c0.6-1.6-0.2-3.3-2-3.9L862.8,429.1z"/>
<path class="st7" d="M856.9,424.4c-1.6,0.2-2.6,1.8-2.4,3.3c0.2,1.6,1.6,2.7,3.1,2.6l8.4-1.2c1.6-0.2,2.6-1.8,2.4-3.3
	c-0.2-1.6-1.6-2.7-3.1-2.6L856.9,424.4z"/>
<path class="st7" d="M852.8,438c-0.4-1.6-2-2.6-3.5-2.2c-1.6,0.4-2.6,1.8-2.4,3.3l1.8,8.2c0.4,1.6,2,2.6,3.5,2.2
	c1.6-0.4,2.6-1.8,2.4-3.3L852.8,438z"/>
<g class="st26">
	<g class="st26">
		<path class="st23" d="M862.8,435.4l7.7,1.8c1.4,0.2,2.6,0.2,3.3-0.4c-0.6,1.4-2.6,2.2-4.1,1.4L862.8,435.4z"/>
		<path class="st23" d="M863.8,429.5l2.9-1.2c0.6-0.2,1.6-0.6,1.6-1.6C868.1,429.7,864.8,429.3,863.8,429.5z"/>
		<path class="st23" d="M845.4,439.7c1,1,2.2,1.8,3.3,2.4l1,4.3c0.4,1.6,2,2.5,3.5,2.2c0.6-0.2,1-0.4,1.4-0.6
			c-0.4,0.8-1.2,1.4-2.2,1.6c-1.6,0.4-3.1-0.6-3.5-2.2l-1-4.3c-1.2-0.4-2.4-1.2-3.3-2.4c-3.1-3.3-2.9-8.6,0-12
			C842.2,432.1,842.4,436.6,845.4,439.7z"/>
		<path class="st23" d="M858.7,439.9l7.7,5.3c1.6,1,2.9,1.2,4.1,0.4c-0.2,0.2-0.2,0.4-0.4,0.8c-1.2,1.2-3.1,1.2-4.3,0L858.7,439.9z"
			/>
		<path class="st23" d="M855.4,445.2l-1.4-1.8l4.9,4.5c1.4,1.2,2.7,1.6,4.1,0.6c0,0,0,0,0.2-0.2c-0.2,0.4-0.6,0.8-1,1.2
			c-1.4,1-3.1,0.8-4.1-0.6L855.4,445.2z"/>
	</g>
</g>
<path class="st7" d="M838.7,430.1c0,0-22.2-18.8-17.5-28.6l20-4.1c0,0,0.4,10.6,10.4,21.2c0,0-1.2-0.4-8.4,6.7L838.7,430.1z"/>
<path class="st23" d="M841,427.4l-2.6,2.7c0,0-22.2-18.8-17.5-28.6l2.6-0.6C821.8,409.9,837.5,424.4,841,427.4z"/>
<path class="st7" d="M851.4,418.4C851.4,418.5,851.6,418.5,851.4,418.4c0.2,0.2,0,0.2-0.2,0.2C851.2,418.5,851.4,418.5,851.4,418.4z
	"/>
<path class="st27" d="M853.8,419.3c-1.2-1.2-3.3-1.2-4.9,0.2l-9.4,8.8c-1.4,1.4-1.6,3.5-0.4,4.7c1.2,1.2,3.3,1.2,4.9-0.2l9.4-9
	C854.8,422.9,855,420.7,853.8,419.3z"/>
<path class="st28" d="M838.7,431.7c1.2,1.2,3.3,1.2,4.9-0.2l9.4-9c0.8-0.8,1.2-1.8,1.2-2.7c1,1.4,0.6,3.1-0.6,4.5l-9.4,9
	c-1.4,1.4-3.5,1.6-4.9,0.2c-0.6-0.6-0.8-1.2-0.8-2C838.5,431.5,838.5,431.5,838.7,431.7z"/>
<path class="st7" d="M842.6,395.8c0,0,0.8-3.1-2.2-7.3c-2.7-4.1-13.1-19.2-13.1-19.2s-2.9-4.7-9.6-6.3c-6.7-1.6-18.4-4.9-18.4-4.9
	s-3.3-1-5.9,2.4c-2.6,3.3-21.4,31.8-21.4,31.8s-2.4,4.9-6.1,5.5c-3.7,0.6-2.6,3.9-2.6,3.9s1.2,2.4-2,3.3c-3.1,1-15.7,16.7-4.9,22.2
	c10.8,5.5,41.6,23.2,41.6,23.2s5.7,3.3,9.4-3.1c3.7-6.7-0.2-6.7,5.7-8.6c0,0,3.3-1,3.1-3.3c-0.2-2.6,1.6-2,1.6-2s2.2,1,3.5-1
	c1.4-2,5.3,0.2,4.3-6.1L842.6,395.8z"/>
<g class="st26">
	<g class="st26">
		<path class="st23" d="M817.5,432.9h-0.2c1.6-1,4.7,0,3.7-5.5l17.3-30.2c0,0,0.8-3.1-2.2-7.3c-2.7-4.1-13.1-19.2-13.1-19.2
			s-2.9-4.7-9.6-6.3c-6.7-1.6-18.4-4.9-18.4-4.9s-0.2,0-0.6-0.2c2.4-2,4.9-1.4,4.9-1.4s11.8,3.5,18.4,4.9c6.7,1.6,9.6,6.3,9.6,6.3
			s10.4,15.1,13.1,19.2c2.7,4.1,2.2,7.3,2.2,7.3l-17.1,30.2c1,6.1-2.9,4.1-4.3,6.1C819.8,434,817.5,432.9,817.5,432.9z"/>
		<path class="st23" d="M802.8,448.4c3.7-6.7-0.2-6.7,5.7-8.6c0,0,3.3-1,3.1-3.3c-0.2-2.6,1.6-2,1.6-2s1.4,0.6,2.7-0.2
			c0,0.2,0,0.4,0,0.6c0.2,2.5-3.1,3.3-3.1,3.3c-5.9,2-2,2.2-5.7,8.6c-2,3.5-4.5,4.1-6.5,4.1C801.4,450.3,802,449.5,802.8,448.4z"/>
	</g>
</g>
<path class="st7" d="M772.2,440.7c0,0,2.4,0.8,5.9-4.9c3.5-5.7,18.4-21.6-8.6-36.9L752.7,434c0,0-0.6,3.7,2.2,4.9
	C757.8,440.1,772.2,440.7,772.2,440.7z"/>
<path class="st22" d="M773.9,428.2l3.3-8.2c1-2.4,3.9-3.5,6.5-2.6c0.6,0.2,1.2,0.6,1.6,1c0.2,7.1-4.3,13-6.7,16.5
	c-0.6,0-1.2-0.2-1.6-0.4C774.5,433.5,773.1,430.5,773.9,428.2z"/>
<path class="st23" d="M768.2,439.9c0,0,2.4,0.8,5.9-4.9c3.3-5.5,17.7-21.6-4.7-36.3c27.1,15.5,12.2,31.2,8.6,36.9s-5.9,4.9-5.9,4.9
	S772,441.1,768.2,439.9C767.3,439.5,768.2,439.9,768.2,439.9z"/>
<path class="st29" d="M752.2,470.3c0,0-4.3-3.5,0.6-15.5c0,0,3.5-8.8,1.2-15.3c0,0-1.8-2.7,1.8-3.5c3.5-0.8,17.3,3.5,17.3,3.5
	s1.6,0.2,1,3.3c-0.4,3.3-1,8.4-5.1,14.7c0,0,2.2,0.6,11,2.4c8.8,1.8,3.9,8,3.9,8L752.2,470.3z"/>
<path class="st22" d="M752.2,470.3c0,0-4.3-3.5,0.6-15.5c0,0,3.5-8.8,1.2-15.3c0,0-1.8-2.7,1.8-3.5c3.5-0.8,17.3,3.5,17.3,3.5
	s1.6,0.2,1,3.3c-0.4,3.3-1,8.4-5.1,14.7c0,0,2.2,0.6,11,2.4c8.8,1.8,3.9,8,3.9,8L752.2,470.3z"/>
<g class="st26">
	<g class="st26">
		<path class="st23" d="M780.8,467c0,0,3.3-4.3-0.4-6.9c8,2,3.3,8,3.3,8l-31.8,2.4c0,0-0.4-0.4-1-1.4L780.8,467z"/>
		<path class="st23" d="M765.9,456.4c4.1-6.3,4.5-11.6,5.1-14.7c0.2-1.6,0-2.4-0.4-2.9c1.4,0.4,2.4,0.8,2.4,0.8s1.6,0.2,1,3.3
			c-0.4,3.1-1,8.2-4.7,14.3C766.7,456.6,765.9,456.4,765.9,456.4z"/>
	</g>
</g>
<path class="st24" d="M758.8,464.9c-3.9,0.4-7.1,2.6-6.9,4.9c0.2,2.4,3.7,3.9,7.7,3.5l17.7-1.8c3.9-0.4,7.1-2.6,6.9-4.9
	c-0.2-2.4-3.7-3.9-7.7-3.5L758.8,464.9z"/>
<path class="st23" d="M782.2,468.8c-0.2-2.4-3.7-3.9-7.7-3.5l-17.7,1.8c-2,0.2-3.5,0.8-4.9,1.6c0.6-1.8,3.3-3.3,6.7-3.7l17.7-1.8
	c3.9-0.4,7.5,1.2,7.7,3.5c0.2,1.2-0.8,2.4-2.2,3.3C782.2,469.6,782.2,469.2,782.2,468.8z"/>
<path class="st7" d="M752.2,389.3c4.9-1,8.2-5.7,7.3-10.8l-0.8-4.5c-1-5.1-5.7-8.4-10.6-7.5c-4.9,1-8.2,5.7-7.3,10.8l0.8,4.5
	C742.5,387,747.2,390.3,752.2,389.3z"/>
<path class="st7" d="M743.1,379.3c1.6-0.2,2.9-1.6,2.7-3.3c-0.2-1.6-1.6-2.9-3.3-2.7l-9,0.8c-1.6,0.2-2.9,1.6-2.7,3.3
	c0.2,1.6,1.6,2.9,3.3,2.7L743.1,379.3z"/>
<path class="st7" d="M743.1,385c1.8-0.4,2.7-2.2,2.4-3.7c-0.4-1.6-2.2-2.6-3.9-2l-9.6,2.7c-1.8,0.4-2.7,2.2-2.4,3.7
	c0.4,1.6,2.2,2.6,3.9,2L743.1,385z"/>
<path class="st7" d="M748.2,388.7c1.6-1,2-2.9,1-4.3c-1-1.4-2.9-1.6-4.5-0.6l-8,5.7c-1.6,1-2,2.9-1,4.3c1,1.4,2.9,1.6,4.5,0.6
	L748.2,388.7z"/>
<path class="st7" d="M755.5,386c0.6-1.4,0-3.1-1.6-3.9c-1.6-0.6-3.3,0-3.9,1.4l-3.5,7.8c-0.6,1.4,0,3.1,1.6,3.9
	c1.6,0.8,3.3,0,3.9-1.4L755.5,386z"/>
<path class="st7" d="M745.9,375.4c1.6,0.6,3.1-0.2,3.7-1.8c0.6-1.6-0.2-3.3-1.8-3.7l-8-2.9c-1.6-0.6-3.1,0.2-3.7,1.8
	c-0.6,1.6,0.2,3.3,1.8,3.7L745.9,375.4z"/>
<g class="st26">
	<g class="st26">
		<path class="st23" d="M748,393.2c1.6,0.8,3.3,0,3.9-1.4l2.4-5.3c2.7-1.2,4.7-3.7,5.1-6.7c0.2,3.7-2,7.3-5.3,8.8l-2.4,5.3
			c-0.6,1.4-2.4,2.2-3.9,1.4c-1.6-0.8-2.2-2.4-1.6-3.9v-0.2C746.7,392.1,747.2,392.8,748,393.2z"/>
		<path class="st23" d="M735.7,391.9c1,1.4,2,1.4,4.5,0.6l7.1-2.9c-0.2,0.2,0-0.2,0,0l-7.3,5.1c-1.6,1-3.5,0.8-4.5-0.6
			c-0.6-0.8-0.6-2-0.2-2.9C735.5,391.3,735.5,391.7,735.7,391.9z"/>
		<path class="st23" d="M733.7,378.3l7.3,1.2l-7.1,0.6c-2.2-0.2-2.9-1.6-2.9-2.7c0-0.6,0-1,0.2-1.6
			C731.5,376.9,732.3,377.7,733.7,378.3z"/>
		<path class="st23" d="M738,371.3l2.6,2l-2.9-1.2c-1.6-0.8-1.8-2.6-1.4-3.7v-0.2C736.5,369.1,736.5,370.1,738,371.3z"/>
		<path class="st23" d="M733.7,385.6l9-0.4l-9.2,2.6c-1.8,0.4-3.5-0.4-3.9-2c-0.2-0.6,0-1.4,0.2-2
			C730.2,385.2,731,385.8,733.7,385.6z"/>
	</g>
</g>
<path class="st7" d="M763.9,381.3l-4.5-13.9c0,0,3.7-4.9,22.6-8.8l10-1.6c5.9-1,11.4,3.1,12.4,9c1,5.9-3.1,11.4-9,12.4
	C795.3,378.3,782.8,382,763.9,381.3z"/>
<path class="st23" d="M793.2,373.8c5.9-1,10-6.5,9-12.4c0-0.2,0-0.4-0.2-0.6c1.2,1.4,2,3.1,2.2,5.1c1,5.9-3.1,11.4-9,12.4
	c0,0-12.6,3.7-31.4,2.9l-1.6-4.5C781,377.3,793.2,373.8,793.2,373.8z"/>
<path class="st22" d="M786.9,357.7c0.8,0.8,1.6,1.6,1.8,2.9c0.8,2.7-0.8,5.5-3.3,6.3l-8.6,2.2c-2.6,0.6-5.1-1-5.9-3.7
	c-0.4-1.4-0.2-2.7,0.4-3.9c2.7-1,6.3-1.8,10.4-2.7L786.9,357.7z"/>
<path class="st22" d="M755.3,365.4c-1.6,0.6-2.4,2.6-1.8,4.5l4.3,12.2c0.6,2,2.6,2.9,4.1,2.4c1.6-0.6,2.4-2.6,1.8-4.5l-4.3-12.2
	C758.8,365.8,756.9,364.8,755.3,365.4z"/>
<path class="st30" d="M760.4,383.6c1.6-0.6,2.4-2.6,1.8-4.5l-4.3-12.2c-0.2-0.8-0.8-1.4-1.2-1.8c1.2,0.2,2.4,1.2,2.9,2.6l4.3,12.2
	c0.6,2-0.2,3.9-1.8,4.5c-1,0.4-2.2,0-2.9-0.6C759.4,383.8,759.8,383.8,760.4,383.6z"/>
<path class="st7" d="M811.8,474.7c0,0,14.3-23.3-3.3-41c-6.3-6.5-9.8-8.4-9.8-8.4l-15.3,14.1c0,0,9.6,17.5,8.4,31.6
	c0,0,0,3.1,2.2,3.9L811.8,474.7z"/>
<path class="st27" d="M811.2,464.3l0.8-8.8c0.2-2.6,2.6-4.3,5.1-4.3c0.8,7.1-1,13.5-2.6,17.9C812.4,468.2,811,466.4,811.2,464.3z"/>
<path class="st28" d="M806.7,435.2c-4.1-4.9-6.5-8.8-8.2-10.2c0,0,3.5,2.2,9.8,8.4c17.7,17.7,3.3,41,3.3,41h-3.3
	C810.6,470.5,819.8,451.3,806.7,435.2z"/>
<path class="st22" d="M792.4,505.9c0,0-4.3-3.5,0.6-15.5c0,0,1.8-6.9-0.6-13.3c0,0-1-2.9,2.6-3.7c3.5-0.8,16.7,0.4,16.7,0.4
	s1.6,0.2,1,3.3c-0.4,3.3,0.8,9.8-3.3,16.1c0,0,2.2,0.6,11,2.4c8.8,1.8,3.9,8,3.9,8L792.4,505.9z"/>
<path class="st23" d="M821.6,503.3c0,0,5.1-6.3-3.9-8c-8.8-1.8-10-1.8-10-1.8c4.1-6.3,2.2-13.5,2.6-16.9c0.4-2.2-0.2-2.9-0.6-3.1
	c1.2,0,2,0.2,2,0.2s1.6,0.2,1,3.3c-0.4,3.3,0.8,9.8-3.3,16.1c0,0,2.2,0.6,11,2.4c8.8,1.8,3.9,8,3.9,8l-31.8,2.4c0,0-0.2-0.2-0.4-0.6
	L821.6,503.3z"/>
<path class="st24" d="M799.2,500.4c-3.9,0.4-7.1,2.6-6.9,4.9c0.2,2.4,3.7,3.9,7.7,3.5l17.7-1.8c3.9-0.4,7.1-2.6,6.9-4.9
	c-0.2-2.4-3.7-3.9-7.7-3.5L799.2,500.4z"/>
<path class="st23" d="M822.4,504.3c-0.2-2.4-3.7-3.9-7.7-3.5l-17.7,1.8c-1.8,0.2-3.1,0.6-4.3,1.4c0.8-1.6,3.3-3.1,6.5-3.3l17.7-1.8
	c3.9-0.4,7.5,1.2,7.7,3.5c0.2,1.4-0.8,2.6-2.6,3.5C822.2,505.3,822.4,504.7,822.4,504.3z"/>
<path class="st7" d="M863.2,345.8c-1.2,0.2-2.2-0.4-2.6-1.6c-0.2-1.2,0.4-2.2,1.6-2.6c1.2-0.2,2.2,0.4,2.6,1.6
	C865,344.4,864.2,345.6,863.2,345.8z"/>
<path class="st14" d="M518.8,388.2c-0.7-0.5-1.3-0.7-1.5-0.7c0,0,0,0,0,0.2v0.2c0.2,0.2,0.5,0.5,1.1,1.3c0.5,0.5,1.1,0.9,1.3,0.7
	c0.4-0.2,0.4-0.2,0.4-0.4c0,0,0,0,0-0.4C519.7,389,519.3,388.8,518.8,388.2z M501.8,341.2c0,0-0.2-0.2-0.4-0.2
	c-0.2,0.4-0.4,0.9-0.4,1.8c0,0.7,0,1.5,0.2,2c0,0.2,0.2,0.4,0.2,0.4s0,0,0.2,0c0.7-1.5,0.9-2.6,0.5-3.5
	C502,341.4,501.8,341.2,501.8,341.2z M467.9,353.8c0,0.2,0.5,0.5,1.3,1.3c0.9,0.7,1.5,1.1,1.5,1.1c0.2,0,0.2-0.2,0.2-0.2
	s0-0.2,0-0.4c0-0.4-0.7-0.9-1.6-1.8C468.1,352.9,467.7,352.9,467.9,353.8z M521.7,343.7c-2.6,2.9-5.3,5.7-8.4,8.2
	c-3.1,2.7-5.7,4.6-7.5,5.7c-2,1.1-3.5-1.6-4.4-8c-0.5,1.3-1.1,2.7-2,4.4c-0.7,1.6-1.6,2.6-2.6,2.6s-2-1.1-3.1-3.1
	c-1.1-2.2-3.1-6.7-6-13.7c1.3,4.7,2.6,10,3.6,16.2c1.1,6,0.5,9.7-1.1,10.6c-1.8,0.9-4.4,0.5-7.3-1.5c-3.1-2-6-3.8-8.8-5.7
	c2.6,2.6,4.6,4.7,6.2,6.6c1.6,1.8,3.1,3.8,4.2,6.2c1.1,2.4,0.7,4.7-1.3,7.1c-2,2.4-4.4,4.6-6.9,6.6c-2.6,1.8-5.3,3.8-8.2,5.8
	c2.9-1.6,5.5-3.1,7.8-4.2c2.9-1.5,4.9-2.4,5.8-2.6c2.2-0.5,3.8-0.7,4.9-0.2c1.1,0.4,2,1.3,3.1,2.4c0.9,1.1,2.4,4,4.4,8.8
	c1.8,4.7,3.6,9.5,5.1,14.2c-0.5-10.6-0.7-17.7-0.9-21.3c-0.2-6,1.1-9.5,3.8-10.2c1.1-0.4,2.9,0,5.1,1.1c2.6,1.1,4.9,2.7,7.1,5.1
	c-0.4-0.4-0.9-1.1-1.6-2.2c-1.1-1.6-2.2-3.5-3.3-5.3c-1.1-2-0.5-3.1,1.3-3.6c2-0.4,5.5-0.9,10.6-1.3c5.1-0.4,8.4-0.7,9.8-0.5
	c-4.6-0.5-9.3-1.3-14.2-2.2c-4.9-0.9-7.8-1.8-8.8-2.9c-0.9-1.1-1.1-2-0.7-3.1c0.4-0.9,1.3-2.4,2.7-4.2
	C514.9,353.2,518.8,348.1,521.7,343.7z M527.3,337.5c0,0-0.2,0-0.4,0c-0.4,0.4-0.7,0.9-1.1,1.6c-0.5,0.7-0.7,1.3-0.9,1.6
	c0.9-0.9,1.5-1.3,1.6-1.5c0.7-0.7,1.1-1.3,1.1-1.5C527.5,337.7,527.5,337.5,527.3,337.5z"/>
<path class="st31" d="M500.9,365.8c-0.2-0.5,0-1.1,0.2-2c0.2-0.5,0.4-1.1,0.5-1.8c-0.4,0.5-0.7,0.9-0.9,1.3c-1.3,1.6-2,2.6-2.7,2.7
	c-0.7,0.2-1.3,0-1.6-0.7c-0.4-0.5-0.7-1.5-1.1-2.9c0,1.5-0.2,3.1-0.5,4.6c-0.4,1.6-0.7,2.6-1.3,3.1c-0.5,0.4-1.3,0.5-2.2,0.4
	c-0.9-0.2-2.7-0.7-5.5-1.5c1.6,1.1,2.7,1.8,3.3,2.2c1.8,1.3,2.7,2.4,3.1,3.1c0.2,0.5-0.2,1.6-0.9,3.1c0,0,0,0.2-0.2,0.2
	c0.4-0.5,0.7-0.9,0.9-1.1c0.9-1.1,1.5-1.8,1.8-1.8c0.5-0.2,1.5,0.4,2.9,1.6c0.7,0.5,1.3,1.3,2,2l-1.3-3.8c-0.2-0.5-0.2-0.9,0-1.3
	c0.2-0.2,0.2-0.4,0.4-0.2c0.2,0,0.5,0.2,1.3,0.4c0.7,0.4,1.6,0.7,2.9,1.5c-0.5-0.5-0.9-1.1-1.5-1.6c-0.4-0.5-0.7-0.9-0.7-1.3
	c-0.2-0.4-0.2-0.7,0.2-1.1c0.2-0.2,1.1-0.5,2.2-0.9c1.5-0.4,2.7-0.7,4.2-0.9c0.7,0,1.3-0.2,2-0.2c-1.6-0.2-3.1-0.5-4.4-1.1
	C502,367.5,501.1,366.7,500.9,365.8z"/>
<rect x="792.3" y="388" transform="matrix(0.5647 -0.8253 0.8253 0.5647 22.8789 842.1982)" class="st32" width="35.1" height="22.8"/>
</svg>
