<svg width="23" height="23" viewBox="0 0 23 23" fill="none" xmlns="http://www.w3.org/2000/svg">
  <path fill-rule="evenodd" clip-rule="evenodd" d="M13.42 3.07C13.42 1.92677 12.4932 1 11.35 1C10.2067 1 9.27998 1.92677 9.27998 3.07V9.28003H3.07C1.92677 9.28003 1 10.2068 1 11.35C1 12.4933 1.92677 13.42 3.07 13.42H9.27998V19.63C9.27998 20.7732 10.2067 21.7 11.35 21.7C12.4932 21.7 13.42 20.7732 13.42 19.63V13.42H19.63C20.7732 13.42 21.7 12.4933 21.7 11.35C21.7 10.2068 20.7732 9.28003 19.63 9.28003H13.42V3.07Z" fill="#121213"/>
  </svg>
  