<svg width="24" height="33" viewBox="0 0 24 33" fill="none" xmlns="http://www.w3.org/2000/svg">
<path d="M6.93382 26.3553V26.5311L7.09992 26.4733C7.969 26.1708 8.59559 25.3547 8.59559 24.395V23.009C8.59559 21.398 9.76509 20.0469 11.3186 19.7362L11.4191 19.7161L11.4191 19.6137L11.4189 18.3894L11.4189 18.3889L11.419 18.3871L11.4191 18.3794L11.4191 18.379C11.4164 17.5468 11.0851 16.7646 10.4861 16.1765C9.88472 15.586 9.08498 15.261 8.23548 15.261C4.40604 15.261 1.28676 18.3201 1.28676 22.0852V24.857V30.5133V30.6891L1.45286 30.6313C2.32194 30.3288 2.94853 29.5127 2.94853 28.553V24.857C2.94853 24.5455 3.20643 24.289 3.52941 24.289C3.85239 24.289 4.11029 24.5455 4.11029 24.857V28.553V28.6653V28.8411L4.27639 28.7833C5.14547 28.4808 5.77206 27.6647 5.77206 26.705V23.009C5.77206 22.6975 6.02996 22.441 6.35294 22.441C6.67592 22.441 6.93382 22.6975 6.93382 23.009V26.3553ZM19.7236 28.7833L19.8897 28.8411V28.6653V28.553V24.857C19.8897 24.5455 20.1476 24.289 20.4706 24.289C20.7936 24.289 21.0515 24.5455 21.0515 24.857V28.553C21.0515 29.5127 21.6781 30.3288 22.5471 30.6313L22.7132 30.6891V30.5133V24.857V22.0852C22.7132 18.3201 19.594 15.261 15.7645 15.261C14.915 15.261 14.1153 15.586 13.5139 16.1764C12.9149 16.7645 12.5836 17.5468 12.5809 18.379L12.5809 18.3812L12.5811 18.3894L12.5809 19.6136L12.5809 19.7161L12.6814 19.7362C14.2349 20.0469 15.4044 21.398 15.4044 23.009V24.395C15.4044 25.3547 16.031 26.1708 16.9001 26.4733L17.0662 26.5311V26.3553V23.009C17.0662 22.6975 17.3241 22.441 17.6471 22.441C17.97 22.441 18.2279 22.6975 18.2279 23.009V26.705C18.2279 27.6647 18.8545 28.4808 19.7236 28.7833Z" fill="#858585" stroke="white" stroke-width="0.25"/>
<path d="M11.6663 11.6667C14.6119 11.6667 16.9997 9.27885 16.9997 6.33333C16.9997 3.38781 14.6119 1 11.6663 1C8.72082 1 6.33301 3.38781 6.33301 6.33333C6.33301 9.27885 8.72082 11.6667 11.6663 11.6667Z" stroke="#858585" stroke-linecap="round" stroke-linejoin="round"/>
</svg>
