<svg width="29" height="30" viewBox="0 0 29 30" fill="none" xmlns="http://www.w3.org/2000/svg">
<path fill-rule="evenodd" clip-rule="evenodd" d="M14.9999 3C12.8782 3 10.8434 3.84285 9.34306 5.34314C7.84277 6.84343 6.99992 8.87827 6.99992 11V17.6667C6.99992 18.611 6.74949 19.5295 6.2854 20.3333H23.7144C23.2504 19.5295 22.9999 18.611 22.9999 17.6667V11C22.9999 8.87827 22.1571 6.84344 20.6568 5.34314C19.1565 3.84285 17.1217 3 14.9999 3ZM28.3333 20.3333C27.626 20.3333 26.9477 20.0524 26.4476 19.5523C25.9475 19.0522 25.6666 18.3739 25.6666 17.6667V11C25.6666 8.17102 24.5428 5.45791 22.5424 3.45753C20.542 1.45714 17.8289 0.333332 14.9999 0.333332C12.1709 0.333332 9.45783 1.45714 7.45745 3.45753C5.45706 5.45791 4.33325 8.17102 4.33325 11V17.6667C4.33325 18.3739 4.0523 19.0522 3.5522 19.5523C3.05211 20.0524 2.37383 20.3333 1.66659 20.3333C0.930206 20.3333 0.333252 20.9303 0.333252 21.6667C0.333252 22.403 0.930206 23 1.66659 23H28.3333V20.3333ZM12.0242 25.8467C12.6612 25.4772 13.4771 25.694 13.8466 26.331C13.9638 26.533 14.132 26.7007 14.3344 26.8173C14.5368 26.9339 14.7663 26.9953 14.9999 26.9953C15.2335 26.9953 15.463 26.9339 15.6654 26.8173C15.8678 26.7007 16.036 26.533 16.1533 26.331C16.5227 25.694 17.3386 25.4772 17.9756 25.8467C18.6126 26.2162 18.8294 27.0321 18.4599 27.669C18.1083 28.2752 17.6036 28.7783 16.9964 29.1281C16.3891 29.4778 15.7007 29.6619 14.9999 29.6619C14.2992 29.6619 13.6107 29.4778 13.0035 29.1281C12.3962 28.7783 11.8915 28.2752 11.5399 27.669C11.1704 27.0321 11.3873 26.2162 12.0242 25.8467Z" fill="#7246D0"/>
</svg>
