<svg width="18" height="18" viewBox="0 0 18 18" fill="none" xmlns="http://www.w3.org/2000/svg">
<path d="M9 0C4.03763 0 0 4.03763 0 9C0 13.9624 4.03763 18 9 18C13.9624 18 18 13.9624 18 9C18 4.03763 13.9624 0 9 0ZM9 16.875C4.6575 16.875 1.125 13.3425 1.125 9C1.125 4.6575 4.6575 1.125 9 1.125C13.3425 1.125 16.875 4.6575 16.875 9C16.875 13.3425 13.3425 16.875 9 16.875Z" fill="#3C87AA"/>
<path d="M11.6629 8.784C12.1016 8.3295 12.375 7.713 12.375 7.03125C12.375 5.73187 11.3872 4.66988 10.125 4.52813V3.9375C10.125 3.627 9.873 3.375 9.5625 3.375C9.252 3.375 9 3.627 9 3.9375V4.5H7.875V3.9375C7.875 3.627 7.623 3.375 7.3125 3.375C7.002 3.375 6.75 3.627 6.75 3.9375V4.5H6.1875C5.877 4.5 5.625 4.752 5.625 5.0625V12.9375C5.625 13.248 5.877 13.5 6.1875 13.5H6.75V14.0625C6.75 14.373 7.002 14.625 7.3125 14.625C7.623 14.625 7.875 14.373 7.875 14.0625V13.5H9V14.0625C9 14.373 9.252 14.625 9.5625 14.625C9.873 14.625 10.125 14.373 10.125 14.0625V13.5H10.4062C11.8024 13.5 12.9375 12.3649 12.9375 10.9688C12.9375 10.0316 12.42 9.22275 11.6629 8.784ZM6.75 5.625H9.84375C10.6189 5.625 11.25 6.25612 11.25 7.03125C11.25 7.80638 10.6189 8.4375 9.84375 8.4375H6.75V5.625ZM10.4062 12.375H6.75V9.5625H9.84375H10.4062C11.1814 9.5625 11.8125 10.1936 11.8125 10.9688C11.8125 11.7439 11.1814 12.375 10.4062 12.375Z" fill="#3C87AA"/>
</svg>
