<svg width="14" height="14" viewBox="0 0 14 14" fill="none" xmlns="http://www.w3.org/2000/svg">
<path d="M7 0C3.14038 0 0 3.14038 0 7C0 10.8596 3.14038 14 7 14C10.8596 14 14 10.8596 14 7C14 3.14038 10.8596 0 7 0ZM7 13.125C3.6225 13.125 0.875 10.3775 0.875 7C0.875 3.6225 3.6225 0.875 7 0.875C10.3775 0.875 13.125 3.6225 13.125 7C13.125 10.3775 10.3775 13.125 7 13.125Z" fill="black"/>
<path d="M9.07112 6.832C9.41237 6.4785 9.625 5.999 9.625 5.46875C9.625 4.45812 8.85675 3.63213 7.875 3.52188V3.0625C7.875 2.821 7.679 2.625 7.4375 2.625C7.196 2.625 7 2.821 7 3.0625V3.5H6.125V3.0625C6.125 2.821 5.929 2.625 5.6875 2.625C5.446 2.625 5.25 2.821 5.25 3.0625V3.5H4.8125C4.571 3.5 4.375 3.696 4.375 3.9375V10.0625C4.375 10.304 4.571 10.5 4.8125 10.5H5.25V10.9375C5.25 11.179 5.446 11.375 5.6875 11.375C5.929 11.375 6.125 11.179 6.125 10.9375V10.5H7V10.9375C7 11.179 7.196 11.375 7.4375 11.375C7.679 11.375 7.875 11.179 7.875 10.9375V10.5H8.09375C9.17963 10.5 10.0625 9.61713 10.0625 8.53125C10.0625 7.80237 9.66 7.17325 9.07112 6.832ZM5.25 4.375H7.65625C8.25912 4.375 8.75 4.86588 8.75 5.46875C8.75 6.07162 8.25912 6.5625 7.65625 6.5625H5.25V4.375ZM8.09375 9.625H5.25V7.4375H7.65625H8.09375C8.69663 7.4375 9.1875 7.92837 9.1875 8.53125C9.1875 9.13413 8.69663 9.625 8.09375 9.625Z" fill="black"/>
</svg>
