<svg xmlns="http://www.w3.org/2000/svg" xmlns:xlink="http://www.w3.org/1999/xlink" viewBox="0 0 219.25 219.25"><defs><style>.cls-1{fill:none;}.cls-2{clip-path:url(#clip-path);}.cls-3{fill:#3c87aa;}</style><clipPath id="clip-path"><rect class="cls-1" x="43.91" y="34.07" width="147.11" height="147.11"/></clipPath></defs><g id="Layer_2" data-name="Layer 2"><g id="Layer_1-2" data-name="Layer 1"><g class="cls-2"><path class="cls-3" d="M98.78,182.18l-.22-.07C72.71,173.45,46,164.5,46.36,143.87c.36-20.34,26.36-29.21,51.5-37.79l.22-.07c20.33-6.94,43.38-14.8,43.16-26.66-.22-12.56-13.6-19.6-27.75-27A170,170,0,0,1,97.32,43l6.73-9.94a160.79,160.79,0,0,0,15,8.58c15.85,8.35,33.82,17.8,34.17,37.46.37,20.6-25.89,29.56-51.29,38.23l-.21.07c-20.24,6.9-43.17,14.72-43.39,26.65s23.29,19.7,44,26.64l.22.08Z"/><rect class="cls-3" x="94.66" y="115.66" width="12" height="65.91"/><rect class="cls-3" x="94.66" y="31.37" width="12" height="84.29"/><path class="cls-3" d="M106.66,182.12l-12-.31c.48-18.86,23.37-26.9,45.51-34.67,18.28-6.42,37.19-13.06,36.92-23.55-.28-11-20.31-20.06-38-28.1C117,85.42,94.12,75,94.54,56.22V33.82h12V56.45c-.28,10.9,19.82,20,37.56,28.12,21.88,10,44.52,20.26,45,38.71.5,19.23-22.6,27.34-44.93,35.18C125.86,164.89,106.93,171.53,106.66,182.12Z"/></g><path class="cls-3" d="M109.62,219.25A109.63,109.63,0,1,1,219.25,109.62,109.75,109.75,0,0,1,109.62,219.25Zm0-207.25a97.63,97.63,0,1,0,97.63,97.62A97.73,97.73,0,0,0,109.62,12Z"/></g></g></svg>