<svg width="20" height="25" viewBox="0 0 20 25" fill="none" xmlns="http://www.w3.org/2000/svg">
<path fill-rule="evenodd" clip-rule="evenodd" d="M3.75 2.79999C3.41848 2.79999 3.10054 2.92642 2.86612 3.15147C2.6317 3.37651 2.5 3.68173 2.5 3.99999V20.8682L9.27345 16.2235C9.70807 15.9255 10.2919 15.9255 10.7265 16.2235L17.5 20.8682V3.99999C17.5 3.68173 17.3683 3.37651 17.1339 3.15147C16.8995 2.92642 16.5815 2.79999 16.25 2.79999H3.75ZM1.09835 1.45441C1.80161 0.779278 2.75544 0.399994 3.75 0.399994H16.25C17.2446 0.399994 18.1984 0.779278 18.9016 1.45441C19.6049 2.12954 20 3.04521 20 3.99999V23.2C20 23.6495 19.7383 24.0613 19.322 24.267C18.9056 24.4727 18.4045 24.4377 18.0235 24.1765L10 18.6747L1.97655 24.1765C1.59553 24.4377 1.09436 24.4727 0.678023 24.267C0.261684 24.0613 0 23.6495 0 23.2V3.99999C0 3.04521 0.395088 2.12954 1.09835 1.45441Z" fill="#7246D0"/>
</svg>
