<svg width="17" height="20" viewBox="0 0 17 20" fill="none" xmlns="http://www.w3.org/2000/svg">
<path fill-rule="evenodd" clip-rule="evenodd" d="M3.29175 2C3.01548 2 2.75053 2.10536 2.55518 2.29289C2.35983 2.48043 2.25008 2.73478 2.25008 3V17.0568L7.89462 13.1863C8.25681 12.9379 8.74335 12.9379 9.10554 13.1863L14.7501 17.0568V3C14.7501 2.73478 14.6403 2.48043 14.445 2.29289C14.2496 2.10536 13.9847 2 13.7084 2H3.29175ZM1.08204 0.87868C1.66809 0.31607 2.46295 0 3.29175 0H13.7084C14.5372 0 15.3321 0.31607 15.9181 0.87868C16.5042 1.44129 16.8334 2.20435 16.8334 3V19C16.8334 19.3746 16.6153 19.7178 16.2684 19.8892C15.9214 20.0606 15.5038 20.0315 15.1863 19.8137L8.50008 15.2289L1.81387 19.8137C1.49636 20.0315 1.07872 20.0606 0.731767 19.8892C0.384818 19.7178 0.166748 19.3746 0.166748 19V3C0.166748 2.20435 0.495988 1.44129 1.08204 0.87868Z" fill="black"/>
</svg>
