<svg width="21" height="23" viewBox="0 0 21 23" fill="none" xmlns="http://www.w3.org/2000/svg">
<path d="M20.6686 13.6506C20.6686 12.3282 20.0277 11.1274 18.9631 10.3955C20.2638 8.80592 19.8066 6.30929 18.0446 5.27057C18.4504 3.36463 16.6694 1.59918 14.7676 2.0191C14.3823 -0.120913 11.5735 -0.738318 10.3291 1.03972C9.08374 -0.739217 6.27525 -0.119654 5.89062 2.0191C3.98851 1.59918 2.20782 3.3649 2.61358 5.27061C0.851226 6.30951 0.394713 8.80624 1.69507 10.3955C-0.75284 12.0362 -0.502219 15.864 2.1416 17.1724C2.06275 18.0938 2.36278 19.0222 2.96557 19.7221C3.43292 20.2665 4.05635 20.6518 4.74464 20.8267C5.51908 23.3685 8.97163 23.7819 10.3291 21.5283C11.6876 23.783 15.1399 23.3671 15.9136 20.8268C17.5187 20.4463 18.6827 18.8184 18.5167 17.1724C19.8347 16.4994 20.6686 15.1526 20.6686 13.6506ZM5.33013 2.86159C5.60336 2.86159 5.86671 2.91918 6.1127 3.03278C6.25197 3.09706 6.41425 3.08596 6.54341 3.00333C6.67252 2.92071 6.75065 2.77793 6.75065 2.62464V2.457C6.83683 0.381094 9.79407 0.382712 9.87948 2.457V4.07626H9.18381C8.66279 2.66847 6.59227 3.00563 6.56359 4.52581C6.59241 6.04621 8.66306 6.38292 9.18381 4.97535H9.87948V7.31842H7.13843C6.93456 6.71599 6.27094 6.31297 5.62031 6.4419L4.9455 5.27313C4.86521 5.13404 4.71677 5.04836 4.5562 5.04836H3.48677C3.28385 3.92274 4.18478 2.85058 5.33013 2.86159ZM8.36177 4.52581C8.36177 4.77369 8.16011 4.97535 7.91223 4.97535C7.31586 4.95067 7.31604 4.10085 7.91223 4.07626C8.16011 4.07626 8.36177 4.27793 8.36177 4.52581ZM5.8668 7.31838C6.11468 7.31838 6.31634 7.52005 6.31634 7.76792C6.29162 8.36429 5.44189 8.36411 5.41725 7.76792C5.41725 7.52005 5.61896 7.31838 5.8668 7.31838ZM7.69469 22.1111C6.65602 22.1111 5.755 21.3731 5.55225 20.3563C5.51561 20.1724 5.36861 20.0306 5.18354 20.0005C3.89694 19.7948 2.97227 18.6548 3.03089 17.3516H6.03533L6.58072 18.2963C6.37892 18.5321 6.25687 18.8381 6.25687 19.1721C6.33086 20.9612 8.88028 20.9608 8.95414 19.1721C8.96299 18.3395 8.17472 17.6865 7.35897 17.8461L6.68421 16.6773C6.60392 16.5382 6.45548 16.4525 6.2949 16.4525H2.72165C1.74407 16.0258 1.07308 15.1365 0.921265 14.1001H1.86477C2.38579 15.5079 4.45631 15.1708 4.48499 13.6506C4.45617 12.1302 2.38552 11.7935 1.86477 13.201H0.921086C1.06071 12.2419 1.64364 11.4089 2.51639 10.9477H5.36353L5.90892 11.8924C5.09039 12.8512 5.93041 14.3209 7.1801 14.0942L7.85491 15.263C7.9352 15.4021 8.08364 15.4878 8.24422 15.4878H9.87948V19.9263C9.87948 21.131 8.89938 22.1111 7.69469 22.1111ZM7.60546 18.7226C7.85338 18.7226 8.05505 18.9243 8.05505 19.1722C8.03037 19.7685 7.18055 19.7684 7.15596 19.1722C7.15596 18.9242 7.35758 18.7226 7.60546 18.7226ZM2.68685 13.6506C2.68685 13.4027 2.88852 13.2011 3.1364 13.2011C3.73276 13.2258 3.73258 14.0756 3.1364 14.1002C2.88852 14.1002 2.68685 13.8985 2.68685 13.6506ZM6.93361 13.2178C6.68573 13.2178 6.48411 13.0161 6.48411 12.7682C6.50879 12.1718 7.35861 12.172 7.3832 12.7682C7.3832 13.0161 7.18149 13.2178 6.93361 13.2178ZM17.879 16.477C17.872 16.4794 17.8652 16.4819 17.8583 16.4847C17.2471 16.7336 16.5585 16.7751 15.9214 16.6034C15.6814 16.5392 15.435 16.6815 15.3708 16.9213C15.3065 17.1611 15.4489 17.4076 15.6887 17.4718C16.3192 17.6415 16.996 17.6511 17.6294 17.4992C17.6122 18.7466 16.717 19.7927 15.4864 19.9985C15.4822 19.9991 15.4781 19.9997 15.4739 20.0004C15.1156 20.0591 14.7441 20.0406 14.3926 19.9465C14.1529 19.8823 13.9064 20.0246 13.8421 20.2645C13.7778 20.5043 13.9202 20.7508 14.16 20.815C14.4033 20.8802 14.6532 20.9186 14.9045 20.9298C13.8404 22.9371 10.8069 22.2181 10.7785 19.9263V13.525C10.7548 12.9285 9.90299 12.929 9.87944 13.525V14.5887H8.50369L7.95826 13.6441C8.77688 12.6852 7.93677 11.2155 6.68704 11.4421L6.01227 10.2734C5.93198 10.1343 5.78354 10.0486 5.62297 10.0486H2.58741C1.36339 8.84791 1.71089 6.7079 3.24388 5.94745H4.29663L4.84206 6.89208C4.09743 7.74927 4.72073 9.12114 5.8668 9.11651C6.45287 9.11651 6.95281 8.74074 7.13838 8.21747H9.87948V9.47903C9.90322 10.0755 10.755 10.075 10.7786 9.47903V2.457C10.8523 0.441827 13.7054 0.358572 13.9042 2.35626C13.5009 2.5973 13.1674 2.9355 12.9298 3.34706C12.8056 3.56207 12.8793 3.83701 13.0943 3.96113C13.3055 4.08417 13.5836 4.01355 13.7084 3.7966C13.9028 3.45989 14.1921 3.19596 14.5452 3.03323C14.55 3.03103 14.5548 3.02869 14.5595 3.02631C16.0376 2.35567 17.6244 3.79781 17.0991 5.33332C17.097 5.33858 17.095 5.34389 17.0931 5.34928C16.9453 5.77168 16.6505 6.12749 16.263 6.35123C16.048 6.47539 15.9743 6.75029 16.0984 6.96535C16.2232 7.18235 16.5013 7.25293 16.7125 7.12993C17.131 6.8883 17.4765 6.5426 17.7177 6.13055C18.9705 6.98199 19.1898 8.85182 18.1498 9.96508C18.0145 9.9123 17.8763 9.86694 17.7364 9.82949C17.4965 9.76521 17.2501 9.90758 17.1858 10.1474C17.1216 10.3872 17.2639 10.6337 17.5037 10.6979C17.6921 10.7484 17.8766 10.8174 18.0519 10.9029C18.0584 10.906 18.0648 10.9089 18.0713 10.9117C20.4132 12.0514 20.291 15.5017 17.879 16.477Z" fill="#858585"/>
</svg>
