<svg width="14" height="14" viewBox="0 0 14 14" fill="none" xmlns="http://www.w3.org/2000/svg">
  <g clip-path="url(#clip0)">
  <path fill-rule="evenodd" clip-rule="evenodd" d="M12.8819 1.86806C13.1035 2.08961 13.1035 2.44881 12.8819 2.67036L7.20883 8.34344C6.98728 8.56498 6.62808 8.56498 6.40654 8.34344L4.70461 6.64151C4.48307 6.41997 4.48307 6.06077 4.70461 5.83922C4.92616 5.61767 5.28536 5.61767 5.50691 5.83922L6.80768 7.14L12.0796 1.86806C12.3012 1.64652 12.6604 1.64652 12.8819 1.86806Z" fill="#1BCC8D"/>
  <path fill-rule="evenodd" clip-rule="evenodd" d="M2.83657 2.26926C2.68611 2.26926 2.54181 2.32903 2.43542 2.43542C2.32903 2.54181 2.26926 2.68611 2.26926 2.83657V10.7789C2.26926 10.9293 2.32903 11.0736 2.43542 11.18C2.54181 11.2864 2.68611 11.3462 2.83657 11.3462H10.7789C10.9293 11.3462 11.0736 11.2864 11.18 11.18C11.2864 11.0736 11.3462 10.9293 11.3462 10.7789V6.80772C11.3462 6.4944 11.6002 6.24041 11.9135 6.24041C12.2268 6.24041 12.4808 6.4944 12.4808 6.80772V10.7789C12.4808 11.2303 12.3015 11.6631 11.9823 11.9823C11.6631 12.3015 11.2303 12.4808 10.7789 12.4808H2.83657C2.38519 12.4808 1.9523 12.3015 1.63313 11.9823C1.31395 11.6631 1.13464 11.2303 1.13464 10.7789V2.83657C1.13464 2.38519 1.31395 1.9523 1.63313 1.63313C1.9523 1.31395 2.38519 1.13464 2.83657 1.13464H9.07695C9.39027 1.13464 9.64426 1.38864 9.64426 1.70195C9.64426 2.01527 9.39027 2.26926 9.07695 2.26926H2.83657Z" fill="#1BCC8D"/>
  </g>
  <defs>
  <clipPath id="clip0">
  <rect width="13.6154" height="13.6154" fill="white"/>
  </clipPath>
  </defs>
  </svg>
  