<svg width="34" height="34" viewBox="0 0 34 34" fill="none" xmlns="http://www.w3.org/2000/svg">
<path fill-rule="evenodd" clip-rule="evenodd" d="M11.3137 11.3136C11.7042 10.9231 12.3374 10.9231 12.7279 11.3136L22.6274 21.2131C23.0179 21.6036 23.0179 22.2368 22.6274 22.6273C22.2369 23.0178 21.6037 23.0178 21.2132 22.6273L11.3137 12.7278C10.9232 12.3373 10.9232 11.7041 11.3137 11.3136Z" fill="#13635B"/>
<path fill-rule="evenodd" clip-rule="evenodd" d="M11.3137 22.6273C10.9232 22.2368 10.9232 21.6036 11.3137 21.2131L21.2132 11.3136C21.6037 10.9231 22.2369 10.9231 22.6274 11.3136C23.0179 11.7041 23.0179 12.3373 22.6274 12.7278L12.7279 22.6273C12.3374 23.0179 11.7042 23.0179 11.3137 22.6273Z" fill="#13635B"/>
</svg>
