<svg width="18" height="18" viewBox="0 0 18 18" fill="none" xmlns="http://www.w3.org/2000/svg">
<path fill-rule="evenodd" clip-rule="evenodd" d="M17.0303 2.46967C17.3232 2.76256 17.3232 3.23744 17.0303 3.53033L9.53033 11.0303C9.23744 11.3232 8.76256 11.3232 8.46967 11.0303L6.21967 8.78033C5.92678 8.48744 5.92678 8.01256 6.21967 7.71967C6.51256 7.42678 6.98744 7.42678 7.28033 7.71967L9 9.43934L15.9697 2.46967C16.2626 2.17678 16.7374 2.17678 17.0303 2.46967Z" fill="#2D6D8A"/>
<path fill-rule="evenodd" clip-rule="evenodd" d="M3.75 3C3.55109 3 3.36032 3.07902 3.21967 3.21967C3.07902 3.36032 3 3.55109 3 3.75V14.25C3 14.4489 3.07902 14.6397 3.21967 14.7803C3.36032 14.921 3.55109 15 3.75 15H14.25C14.4489 15 14.6397 14.921 14.7803 14.7803C14.921 14.6397 15 14.4489 15 14.25V9C15 8.58579 15.3358 8.25 15.75 8.25C16.1642 8.25 16.5 8.58579 16.5 9V14.25C16.5 14.8467 16.2629 15.419 15.841 15.841C15.419 16.2629 14.8467 16.5 14.25 16.5H3.75C3.15326 16.5 2.58097 16.2629 2.15901 15.841C1.73705 15.419 1.5 14.8467 1.5 14.25V3.75C1.5 3.15326 1.73705 2.58097 2.15901 2.15901C2.58097 1.73705 3.15326 1.5 3.75 1.5H12C12.4142 1.5 12.75 1.83579 12.75 2.25C12.75 2.66421 12.4142 3 12 3H3.75Z" fill="#2D6D8A"/>
</svg>
