<svg width="36" height="36" viewBox="0 0 36 36" fill="none" xmlns="http://www.w3.org/2000/svg">
<mask id="path-1-inside-1" fill="white">
<path d="M35.9088 30.8476C35.7505 30.0874 35.0059 29.5993 34.2454 29.7576C33.5943 29.8931 33.1429 30.4587 33.126 31.0958C33.1232 31.2027 33.1326 31.3116 33.1553 31.4209C33.2465 31.8589 33.1379 32.3078 32.8575 32.6527C32.695 32.8525 32.3329 33.1875 31.7325 33.1875H4.26746C3.66713 33.1875 3.30495 32.8524 3.14252 32.6527C2.86205 32.3078 2.75348 31.8589 2.84468 31.4209C4.30409 24.4111 10.487 19.2905 17.6272 19.1178C17.7509 19.1226 17.8751 19.125 18 19.125C18.1253 19.125 18.25 19.1225 18.3742 19.1178C23.4038 19.2384 28.0526 21.7859 30.8678 25.9845C31.4087 26.5 32.1738 26.8019 32.819 26.3694C33.4641 25.9369 33.6364 25.0633 33.2038 24.4183C33.1877 24.3942 33.1715 24.3702 33.1553 24.3463C30.8495 20.942 27.5191 18.4657 23.7254 17.2171C26.0535 15.4713 27.5625 12.6898 27.5625 9.5625C27.5625 4.28977 23.2728 0 18 0C12.7272 0 8.43748 4.28977 8.43748 9.5625C8.43748 12.6917 9.94836 15.4747 12.2789 17.2203C10.1436 17.9233 8.14006 19.0171 6.38647 20.4595C3.17093 23.1045 0.935201 26.7937 0.0912387 30.8476C-0.173277 32.118 0.143622 33.4227 0.960513 34.4272C1.7734 35.4267 2.97877 36 4.26746 36H31.7325C33.0212 36 34.2266 35.4267 35.0394 34.4272C35.8564 33.4227 36.1733 32.118 35.9088 30.8476ZM11.25 9.5625C11.25 5.84051 14.278 2.8125 18 2.8125C21.722 2.8125 24.75 5.84051 24.75 9.5625C24.75 13.1699 21.9055 16.1254 18.3416 16.3039C18.2279 16.3018 18.114 16.3008 18 16.3008C17.8865 16.3008 17.773 16.3019 17.6597 16.304C14.0952 16.1262 11.25 13.1704 11.25 9.5625Z"/>
<path d="M34.2454 29.7576C35.0059 29.5993 35.7505 30.0874 35.9088 30.8476C35.6584 29.5032 34.7571 26.3206 33.1553 24.3463L33.2038 24.4183C33.6364 25.0633 33.4641 25.9369 32.819 26.3694C32.1738 26.8019 31.4087 26.5 30.8678 25.9845C31.3453 26.6965 32.8323 28.4186 33.126 31.0958C33.1429 30.4587 33.5943 29.8931 34.2454 29.7576Z"/>
</mask>
<path d="M35.9088 30.8476C35.7505 30.0874 35.0059 29.5993 34.2454 29.7576C33.5943 29.8931 33.1429 30.4587 33.126 31.0958C33.1232 31.2027 33.1326 31.3116 33.1553 31.4209C33.2465 31.8589 33.1379 32.3078 32.8575 32.6527C32.695 32.8525 32.3329 33.1875 31.7325 33.1875H4.26746C3.66713 33.1875 3.30495 32.8524 3.14252 32.6527C2.86205 32.3078 2.75348 31.8589 2.84468 31.4209C4.30409 24.4111 10.487 19.2905 17.6272 19.1178C17.7509 19.1226 17.8751 19.125 18 19.125C18.1253 19.125 18.25 19.1225 18.3742 19.1178C23.4038 19.2384 28.0526 21.7859 30.8678 25.9845C31.4087 26.5 32.1738 26.8019 32.819 26.3694C33.4641 25.9369 33.6364 25.0633 33.2038 24.4183C33.1877 24.3942 33.1715 24.3702 33.1553 24.3463C30.8495 20.942 27.5191 18.4657 23.7254 17.2171C26.0535 15.4713 27.5625 12.6898 27.5625 9.5625C27.5625 4.28977 23.2728 0 18 0C12.7272 0 8.43748 4.28977 8.43748 9.5625C8.43748 12.6917 9.94836 15.4747 12.2789 17.2203C10.1436 17.9233 8.14006 19.0171 6.38647 20.4595C3.17093 23.1045 0.935201 26.7937 0.0912387 30.8476C-0.173277 32.118 0.143622 33.4227 0.960513 34.4272C1.7734 35.4267 2.97877 36 4.26746 36H31.7325C33.0212 36 34.2266 35.4267 35.0394 34.4272C35.8564 33.4227 36.1733 32.118 35.9088 30.8476ZM11.25 9.5625C11.25 5.84051 14.278 2.8125 18 2.8125C21.722 2.8125 24.75 5.84051 24.75 9.5625C24.75 13.1699 21.9055 16.1254 18.3416 16.3039C18.2279 16.3018 18.114 16.3008 18 16.3008C17.8865 16.3008 17.773 16.3019 17.6597 16.304C14.0952 16.1262 11.25 13.1704 11.25 9.5625Z" fill="white"/>
<path d="M34.2454 29.7576C35.0059 29.5993 35.7505 30.0874 35.9088 30.8476C35.6584 29.5032 34.7571 26.3206 33.1553 24.3463L33.2038 24.4183C33.6364 25.0633 33.4641 25.9369 32.819 26.3694C32.1738 26.8019 31.4087 26.5 30.8678 25.9845C31.3453 26.6965 32.8323 28.4186 33.126 31.0958C33.1429 30.4587 33.5943 29.8931 34.2454 29.7576Z" fill="white"/>
<path d="M35.9088 30.8476L36.2145 32.3162L37.683 32.0104L37.3773 30.5419L35.9088 30.8476ZM34.2454 29.7576L33.9398 28.289L33.9397 28.2891L34.2454 29.7576ZM33.1553 31.4209L31.6591 31.5268L31.7803 33.2393L33.4611 32.8894L33.1553 31.4209ZM30.8678 25.9845L30.0325 24.7386L28.4792 25.7801L29.833 27.0703L30.8678 25.9845ZM32.819 26.3694L33.6542 27.6153L33.6543 27.6152L32.819 26.3694ZM33.2038 24.4183L34.4496 23.5828L33.6143 22.3371L32.3685 23.1724L33.2038 24.4183ZM33.126 31.0958L31.6265 31.056L31.6238 31.158L31.6349 31.2594L33.126 31.0958ZM37.3773 30.5419C37.0501 28.9705 35.5112 27.962 33.9398 28.289L34.551 31.2261C34.5007 31.2366 34.4508 31.2042 34.4402 31.1533L37.3773 30.5419ZM29.833 27.0703C30.5526 27.7562 32.1161 28.6464 33.6542 27.6153L31.9838 25.1234C32.0094 25.1063 32.0534 25.0868 32.1055 25.0793C32.1531 25.0725 32.1783 25.0798 32.172 25.0782C32.1637 25.0761 32.131 25.0659 32.0778 25.0342C32.0252 25.0029 31.9645 24.9576 31.9027 24.8987L29.833 27.0703ZM33.6543 27.6152C34.9875 26.7214 35.3437 24.916 34.4496 23.5828L31.958 25.2537C31.9291 25.2106 31.9407 25.1523 31.9837 25.1235L33.6543 27.6152ZM31.7032 27.2304L34.0392 25.6642L32.3685 23.1724L30.0325 24.7386L31.7032 27.2304ZM33.4611 32.8894L36.2145 32.3162L35.603 29.3791L32.8496 29.9524L33.4611 32.8894ZM34.6255 31.1355C34.6248 31.1604 34.6159 31.1799 34.6048 31.1932C34.592 31.2088 34.5714 31.2219 34.5511 31.2261L33.9397 28.2891C32.5921 28.5696 31.6614 29.7392 31.6265 31.056L34.6255 31.1355ZM31.6349 31.2594C31.6446 31.3472 31.6527 31.4364 31.6591 31.5268L34.6516 31.315C34.6424 31.1856 34.6308 31.058 34.617 30.9322L31.6349 31.2594ZM35.9088 30.8476L32.9595 31.3969L32.9653 31.4281L32.9717 31.4592L35.9088 30.8476ZM33.1553 31.4209L36.0923 30.8094L36.0923 30.8092L33.1553 31.4209ZM32.8575 32.6527L35.1851 34.5453L35.1854 34.545L32.8575 32.6527ZM3.14252 32.6527L0.81504 34.5455L0.815186 34.5457L3.14252 32.6527ZM2.84468 31.4209L5.78169 32.0324L5.7817 32.0324L2.84468 31.4209ZM17.6272 19.1178L17.7431 16.1201L17.6489 16.1164L17.5547 16.1187L17.6272 19.1178ZM18.3742 19.1178L18.4461 16.1186L18.3524 16.1164L18.2588 16.12L18.3742 19.1178ZM30.8678 25.9845L33.3595 24.3137L30.8678 25.9845ZM33.2038 24.4183L30.716 26.0948L35.6956 22.7476L33.2038 24.4183ZM23.7254 17.2171L21.9256 14.8169L17.3232 18.2682L22.7875 20.0667L23.7254 17.2171ZM12.2789 17.2203L13.217 20.0698L18.6842 18.2699L14.0774 14.8192L12.2789 17.2203ZM6.38647 20.4595L4.48072 18.1426L4.48069 18.1426L6.38647 20.4595ZM0.0912387 30.8476L3.02824 31.4592L3.02827 31.4591L0.0912387 30.8476ZM0.960513 34.4272L3.28801 32.5344L3.28801 32.5344L0.960513 34.4272ZM35.0394 34.4272L32.7121 32.5342L32.7118 32.5345L35.0394 34.4272ZM18.3416 16.3039L18.286 19.3034L18.3889 19.3053L18.4917 19.3002L18.3416 16.3039ZM17.6597 16.304L17.5102 19.3003L17.6128 19.3054L17.7155 19.3035L17.6597 16.304ZM33.126 31.0958L36.1249 31.1752L36.1303 30.9713L36.1081 30.7686L33.126 31.0958ZM30.2183 32.0324C30.1267 31.5925 30.2368 31.1205 30.5296 30.7604L35.1854 34.545C36.0389 33.495 36.3663 32.1253 36.0923 30.8094L30.2183 32.0324ZM30.5298 30.7601C30.611 30.6602 30.7423 30.5238 30.9445 30.4055C31.1685 30.2745 31.4456 30.1875 31.7325 30.1875V36.1875C33.579 36.1875 34.7121 35.1271 35.1851 34.5453L30.5298 30.7601ZM31.7325 30.1875H4.26746V36.1875H31.7325V30.1875ZM4.26746 30.1875C4.55455 30.1875 4.83166 30.2745 5.05554 30.4055C5.25776 30.5238 5.38889 30.6601 5.46986 30.7597L0.815186 34.5457C1.28775 35.1267 2.42073 36.1875 4.26746 36.1875V30.1875ZM5.47001 30.7599C5.76341 31.1206 5.8732 31.5929 5.78169 32.0324L-0.092328 30.8094C-0.366235 32.1248 -0.0393128 33.495 0.81504 34.5455L5.47001 30.7599ZM5.7817 32.0324C6.95546 26.3946 11.9457 22.2561 17.6997 22.117L17.5547 16.1187C9.02835 16.3249 1.65271 22.4276 -0.0923425 30.8094L5.7817 32.0324ZM17.5113 22.1156C17.6739 22.1219 17.8368 22.125 18 22.125V16.125C17.9134 16.125 17.8278 16.1233 17.7431 16.1201L17.5113 22.1156ZM18 22.125C18.1646 22.125 18.3278 22.1218 18.4896 22.1155L18.2588 16.12C18.1722 16.1233 18.086 16.125 18 16.125V22.125ZM18.3023 22.1169C22.3567 22.2142 26.1034 24.2657 28.3761 27.6552L33.3595 24.3137C30.0018 19.3061 24.4509 16.2627 18.4461 16.1186L18.3023 22.1169ZM25.5252 19.6172C28.5736 17.3312 30.5625 13.6773 30.5625 9.5625H24.5625C24.5625 11.7023 23.5333 13.6113 21.9256 14.8169L25.5252 19.6172ZM30.5625 9.5625C30.5625 2.63292 24.9297 -3 18 -3V3C21.6159 3 24.5625 5.94661 24.5625 9.5625H30.5625ZM18 -3C11.0703 -3 5.43748 2.63292 5.43748 9.5625H11.4375C11.4375 5.94661 14.3841 3 18 3V-3ZM5.43748 9.5625C5.43748 13.6798 7.42878 17.3357 10.4803 19.6214L14.0774 14.8192C12.4679 13.6136 11.4375 11.7036 11.4375 9.5625H5.43748ZM11.3407 14.3708C8.85776 15.1882 6.52515 16.461 4.48072 18.1426L8.29221 22.7765C9.75497 21.5733 11.4295 20.6584 13.217 20.0698L11.3407 14.3708ZM4.48069 18.1426C0.740285 21.2193 -1.86163 25.5088 -2.84579 30.2362L3.02827 31.4591C3.73203 28.0786 5.60158 24.9896 8.29224 22.7764L4.48069 18.1426ZM-2.84577 30.2361C-3.2939 32.3883 -2.75495 34.6133 -1.36698 36.32L3.28801 32.5344C3.04219 32.2321 2.94735 31.8477 3.02824 31.4592L-2.84577 30.2361ZM-1.36699 36.32C0.0157949 38.0203 2.07618 39 4.26746 39V33C3.88135 33 3.531 32.8332 3.28801 32.5344L-1.36699 36.32ZM4.26746 39H31.7325V33H4.26746V39ZM31.7325 39C33.9238 39 35.9842 38.0204 37.367 36.3199L32.7118 32.5345C32.469 32.8331 32.1187 33 31.7325 33V39ZM37.3667 36.3202C38.7551 34.6133 39.2939 32.3882 38.8458 30.2361L32.9717 31.4592C33.0527 31.8478 32.9578 32.2321 32.7121 32.5342L37.3667 36.3202ZM14.25 9.5625C14.25 7.49737 15.9349 5.8125 18 5.8125V-0.1875C12.6211 -0.1875 8.24999 4.18365 8.24999 9.5625H14.25ZM18 5.8125C20.0651 5.8125 21.75 7.49736 21.75 9.5625H27.75C27.75 4.18365 23.3788 -0.1875 18 -0.1875V5.8125ZM21.75 9.5625C21.75 11.5626 20.1677 13.2087 18.1916 13.3077L18.4917 19.3002C23.6433 19.0421 27.75 14.7772 27.75 9.5625H21.75ZM18.3973 13.3044C18.265 13.302 18.1326 13.3008 18 13.3008V19.3008C18.0955 19.3008 18.1909 19.3016 18.286 19.3034L18.3973 13.3044ZM18 13.3008C17.8667 13.3008 17.7346 13.3021 17.6039 13.3045L17.7155 19.3035C17.8115 19.3017 17.9063 19.3008 18 19.3008V13.3008ZM17.8092 13.3077C15.8327 13.2091 14.25 11.5629 14.25 9.5625H8.24999C8.24999 14.7779 12.3577 19.0432 17.5102 19.3003L17.8092 13.3077ZM35.6956 22.7476C35.6768 22.7196 35.658 22.6917 35.6392 22.6639L30.6714 26.0286C30.685 26.0487 30.6986 26.0688 30.7121 26.089L35.6956 22.7476ZM35.6392 22.6639C32.9579 18.7052 29.0814 15.8216 24.6633 14.3674L22.7875 20.0667C25.9568 21.1098 28.7412 23.1787 30.6714 26.0286L35.6392 22.6639ZM38.858 30.2984C38.7006 29.453 38.3651 28.1505 37.8456 26.7739C37.3351 25.4212 36.573 23.7972 35.485 22.4562L30.8256 26.2364C31.3394 26.8697 31.8289 27.8241 32.232 28.8924C32.6262 29.9367 32.8665 30.8978 32.9595 31.3969L38.858 30.2984ZM30.6675 26.0228L30.716 26.0948L35.6916 22.7417L35.6431 22.6697L30.6675 26.0228ZM28.3761 27.6552C29.037 28.6408 29.9497 29.6532 30.1439 31.4229L36.1081 30.7686C35.7148 27.1839 33.6535 24.7522 33.3595 24.3137L28.3761 27.6552ZM30.127 31.0163C30.1181 31.3535 30.1479 31.6944 30.2183 32.0326L36.0923 30.8092C36.1172 30.9288 36.1282 31.0519 36.1249 31.1752L30.127 31.0163Z" fill="white" mask="url(#path-1-inside-1)"/>
</svg>
