<svg width="18" height="18" viewBox="0 0 18 18" fill="none" xmlns="http://www.w3.org/2000/svg">
<path fill-rule="evenodd" clip-rule="evenodd" d="M8.66475 0.82918C8.8759 0.723607 9.12443 0.723607 9.33557 0.82918L16.8356 4.57918C17.0897 4.70622 17.2502 4.96592 17.2502 5.25C17.2502 5.53408 17.0897 5.79378 16.8356 5.92082L9.33557 9.67082C9.12443 9.77639 8.8759 9.77639 8.66475 9.67082L1.16475 5.92082C0.910666 5.79378 0.750164 5.53408 0.750164 5.25C0.750164 4.96592 0.910666 4.70622 1.16475 4.57918L8.66475 0.82918ZM3.17722 5.25L9.00016 8.16147L14.8231 5.25L9.00016 2.33853L3.17722 5.25Z" fill="#3A68DE"/>
<path fill-rule="evenodd" clip-rule="evenodd" d="M0.829344 12.4146C1.01459 12.0441 1.46509 11.8939 1.83557 12.0792L9.00016 15.6615L16.1648 12.0792C16.5352 11.8939 16.9857 12.0441 17.171 12.4146C17.3562 12.7851 17.2061 13.2356 16.8356 13.4208L9.33557 17.1708C9.12443 17.2764 8.8759 17.2764 8.66475 17.1708L1.16475 13.4208C0.79427 13.2356 0.644102 12.7851 0.829344 12.4146Z" fill="#3A68DE"/>
<path fill-rule="evenodd" clip-rule="evenodd" d="M0.829344 8.66459C1.01459 8.29411 1.46509 8.14394 1.83557 8.32918L9.00016 11.9115L16.1648 8.32918C16.5352 8.14394 16.9857 8.29411 17.171 8.66459C17.3562 9.03507 17.2061 9.48558 16.8356 9.67082L9.33557 13.4208C9.12443 13.5264 8.8759 13.5264 8.66475 13.4208L1.16475 9.67082C0.79427 9.48558 0.644102 9.03507 0.829344 8.66459Z" fill="#3A68DE"/>
</svg>
