<svg width="13" height="12" viewBox="0 0 13 12" fill="none" xmlns="http://www.w3.org/2000/svg">
  <path fill-rule="evenodd" clip-rule="evenodd" d="M6.30152 0.552786C6.45508 0.482405 6.63583 0.482405 6.78939 0.552786L12.2439 3.05279C12.4287 3.13748 12.5455 3.31061 12.5455 3.5C12.5455 3.68939 12.4287 3.86252 12.2439 3.94721L6.78939 6.44721C6.63583 6.51759 6.45508 6.51759 6.30152 6.44721L0.846973 3.94721C0.662182 3.86252 0.545453 3.68939 0.545453 3.5C0.545453 3.31061 0.662182 3.13748 0.846973 3.05279L6.30152 0.552786ZM2.31058 3.5L6.54545 5.44098L10.7803 3.5L6.54545 1.55902L2.31058 3.5Z" fill="#121213"/>
  <path fill-rule="evenodd" clip-rule="evenodd" d="M0.603039 8.27639C0.73776 8.0294 1.0654 7.92929 1.33484 8.05279L6.54545 10.441L11.7561 8.05279C12.0255 7.92929 12.3531 8.0294 12.4879 8.27639C12.6226 8.52338 12.5134 8.82372 12.2439 8.94721L6.78939 11.4472C6.63583 11.5176 6.45508 11.5176 6.30152 11.4472L0.846973 8.94721C0.57753 8.82372 0.468317 8.52338 0.603039 8.27639Z" fill="#121213"/>
  <path fill-rule="evenodd" clip-rule="evenodd" d="M0.603039 5.77639C0.73776 5.5294 1.0654 5.42929 1.33484 5.55279L6.54545 7.94098L11.7561 5.55279C12.0255 5.42929 12.3531 5.5294 12.4879 5.77639C12.6226 6.02338 12.5134 6.32372 12.2439 6.44721L6.78939 8.94721C6.63583 9.01759 6.45508 9.01759 6.30152 8.94721L0.846973 6.44721C0.57753 6.32372 0.468317 6.02338 0.603039 5.77639Z" fill="#121213"/>
  </svg>
  