<svg height="384pt" viewBox="0 0 384 384" width="384pt" xmlns="http://www.w3.org/2000/svg">
	<path fill="#3A68DE" d="m192 0c-105.871094 0-192 86.128906-192 192 0 105.863281 86.128906 192 192 192s192-86.136719 192-192c0-105.871094-86.128906-192-192-192zm0 352c-88.222656 0-160-71.777344-160-160s71.777344-160 160-160 160 71.777344 160 160-71.777344 160-160 160zm0 0"/>
	<path fill="#3A68DE" d="m214.390625 94.433594c-2.101563-.914063-4.238281-1.640625-6.390625-2.273438v-28.160156h-32v28.265625c-15.238281 4.605469-28.441406 15.605469-35.238281 31.328125-5.945313 13.726562-6.175781 28.949219-.671875 42.855469 5.503906 13.910156 16.09375 24.839843 30.175781 30.925781l31.117187 12.601562c5.882813 2.535157 10.425782 7.222657 12.785157 13.183594 2.359375 5.960938 2.257812 12.488282-.289063 18.367188-2.542968 5.878906-7.230468 10.425781-13.191406 12.785156-5.96875 2.359375-12.480469 2.261719-18.359375-.289062-8.6875-3.757813-14.3125-12.40625-14.320313-22.03125l-.007812-16-32 .03125.007812 16c.015626 22.375 13.207032 42.535156 33.609376 51.375 2.09375.90625 4.230468 1.640624 6.390624 2.28125v34.320312h32v-34.414062c1.496094-.457032 2.992188-.953126 4.464844-1.539063 13.902344-5.503906 24.832032-16.101563 30.773438-29.832031 5.945312-13.726563 6.179687-28.941406.675781-42.847656-5.507813-13.902344-16.097656-24.832032-30.179687-30.925782l-31.117188-12.59375c-5.882812-2.542968-10.425781-7.230468-12.785156-13.191406s-2.253906-12.488281.289062-18.367188c2.542969-5.882812 7.230469-10.425781 13.191406-12.785156 5.953126-2.351562 12.480469-2.257812 18.367188.289063 8.558594 3.710937 14.3125 11.832031 14.3125 20.207031v16h32v-16c0-21.28125-13.191406-40.734375-33.609375-49.566406zm0 0"/>
</svg>