<svg width="20" height="20" viewBox="0 0 20 20" fill="none" xmlns="http://www.w3.org/2000/svg">
<path fill-rule="evenodd" clip-rule="evenodd" d="M2.49984 11.6667C2.96007 11.6667 3.33317 12.0398 3.33317 12.5001V15.8334C3.33317 16.0544 3.42097 16.2664 3.57725 16.4227C3.73353 16.579 3.94549 16.6667 4.1665 16.6667H15.8332C16.0542 16.6667 16.2661 16.579 16.4224 16.4227C16.5787 16.2664 16.6665 16.0544 16.6665 15.8334V12.5001C16.6665 12.0398 17.0396 11.6667 17.4998 11.6667C17.9601 11.6667 18.3332 12.0398 18.3332 12.5001V15.8334C18.3332 16.4965 18.0698 17.1323 17.6009 17.6012C17.1321 18.07 16.4962 18.3334 15.8332 18.3334H4.1665C3.50346 18.3334 2.86758 18.07 2.39874 17.6012C1.9299 17.1323 1.6665 16.4965 1.6665 15.8334V12.5001C1.6665 12.0398 2.0396 11.6667 2.49984 11.6667Z" fill="#7246D0"/>
<path fill-rule="evenodd" clip-rule="evenodd" d="M5.24408 7.74408C5.56951 7.41864 6.09715 7.41864 6.42259 7.74408L10 11.3215L13.5774 7.74408C13.9028 7.41864 14.4305 7.41864 14.7559 7.74408C15.0814 8.06951 15.0814 8.59715 14.7559 8.92259L10.5893 13.0893C10.2638 13.4147 9.73618 13.4147 9.41074 13.0893L5.24408 8.92259C4.91864 8.59715 4.91864 8.06951 5.24408 7.74408Z" fill="#7246D0"/>
<path fill-rule="evenodd" clip-rule="evenodd" d="M9.99984 1.66675C10.4601 1.66675 10.8332 2.03984 10.8332 2.50008V12.5001C10.8332 12.9603 10.4601 13.3334 9.99984 13.3334C9.5396 13.3334 9.1665 12.9603 9.1665 12.5001V2.50008C9.1665 2.03984 9.5396 1.66675 9.99984 1.66675Z" fill="#7246D0"/>
</svg>
