<svg width="14" height="14" viewBox="0 0 14 14" fill="none" xmlns="http://www.w3.org/2000/svg">
<path d="M13.3098 10.0348C13.2852 10.0858 13.26 10.1365 13.2342 10.1868C12.0747 12.4507 9.71819 14 6.99995 14C4.28171 14 1.92534 12.4506 0.765799 10.1868L13.7344 5.08367C13.7659 5.1944 13.7946 5.30622 13.8207 5.41913C13.938 5.92719 14 6.45636 14 7.00002C14 7.54369 13.938 8.07286 13.8207 8.58092M13.3098 10.0348C13.3589 9.93278 13.4056 9.82937 13.4499 9.72472M13.3098 10.0348L12.8593 9.81771M13.3098 10.0348L12.8594 9.81754C12.8594 9.81759 12.8594 9.81765 12.8593 9.81771M13.4499 9.72472C13.5606 9.46302 13.6558 9.19319 13.7345 8.91638M13.4499 9.72472L12.9895 9.52983M13.4499 9.72472L12.9894 9.52988M13.7345 8.91638C13.7659 8.8056 13.7947 8.69378 13.8207 8.58092M13.7345 8.91638L13.2535 8.77977M13.7345 8.91638L13.2535 8.77983C13.2535 8.77981 13.2535 8.77979 13.2535 8.77977M13.8207 8.58092L13.3336 8.46848M13.8207 8.58092L13.3336 8.46848M13.3336 8.46848C13.3093 8.57328 13.2827 8.67704 13.2535 8.77977M13.3336 8.46848L12.9895 9.52983M13.2535 8.77977C13.1805 9.03666 13.0922 9.28702 12.9895 9.52983M12.9895 9.52983L12.9894 9.52988M12.9894 9.52988C12.9482 9.62722 12.9049 9.72322 12.8593 9.81771M12.9894 9.52988L1.14058 9.81754M12.8593 9.81771C12.8364 9.86531 12.813 9.91233 12.7893 9.95868L12.7892 9.95885C11.7118 12.0622 9.52333 13.5 6.99995 13.5C4.47659 13.5 2.28817 12.0622 1.21082 9.95885C1.18691 9.91217 1.16351 9.86507 1.14058 9.81754M1.14058 9.81754C1.0722 9.67559 1.00882 9.53077 0.950705 9.38337L1.14058 9.81754ZM1.14058 9.81754L0.690244 10.0348M1.14058 9.81754L0.485537 9.56672C0.5482 9.72567 0.61653 9.88178 0.690244 10.0348M1.14058 9.81754C1.14062 9.81761 1.14065 9.81769 1.14069 9.81776L0.690244 10.0348M1.14058 9.81754L0.690244 10.0348M13.2534 5.22027C13.2826 5.32295 13.3093 5.42671 13.3335 5.53157C13.4423 6.00307 13.5 6.49452 13.5 7.00002C13.5 7.50553 13.4424 7.99695 13.3336 8.4684L13.2534 5.22027ZM0.950694 4.61666C1.00881 4.46925 1.07219 4.32443 1.14058 4.18246L0.746523 5.22017C0.804898 5.01468 0.873121 4.81331 0.950656 4.61676L0.950694 4.61666ZM0.950694 9.38334C0.873143 9.18659 0.804865 8.98516 0.746507 8.77973L0.950694 9.38334ZM10.538 7.30288L10.7687 6.99998L10.538 6.69707L7.39776 2.573L6.99995 2.05057L6.60215 2.573L3.46189 6.69707L3.23124 6.99998L3.46189 7.30288L6.60215 11.427L6.99995 11.9494L7.39776 11.427L10.538 7.30288ZM0.5 6.99998C0.5 6.49448 0.557634 6.00305 0.66643 5.5316L0.7465 8.7797C0.71734 8.67703 0.690655 8.57328 0.666449 8.46843C0.55764 7.99696 0.5 7.50551 0.5 6.99998ZM0.666449 5.53152C0.690653 5.42673 0.717339 5.32297 0.7465 5.22025L0.666449 5.53152Z" stroke="black"/>
</svg>
