<svg width="28" height="28" viewBox="0 0 28 28" fill="none" xmlns="http://www.w3.org/2000/svg">
<path d="M25.0519 18.6676C24.2885 20.4729 23.0945 22.0638 21.5743 23.301C20.054 24.5383 18.2538 25.3843 16.3311 25.7652C14.4083 26.146 12.4215 26.05 10.5445 25.4856C8.66736 24.9212 6.95711 23.9055 5.56322 22.5275C4.16933 21.1494 3.13423 19.4509 2.54843 17.5804C1.96263 15.7098 1.84396 13.7243 2.2028 11.7973C2.56163 9.87034 3.38705 8.0606 4.60688 6.52632C5.82671 4.99204 7.40381 3.77993 9.20031 2.99597" stroke="#7246D0" stroke-width="2.5" stroke-linecap="round" stroke-linejoin="round"/>
<path d="M25.9992 13.9997C25.9992 12.4239 25.6888 10.8635 25.0858 9.40762C24.4828 7.95175 23.5989 6.62891 22.4846 5.51463C21.3703 4.40036 20.0475 3.51647 18.5916 2.91342C17.1357 2.31038 15.5753 2 13.9995 2V13.9997H25.9992Z" stroke="#7246D0" stroke-width="2.5" stroke-linecap="round" stroke-linejoin="round"/>
</svg>
