<svg width="42" height="38" viewBox="0 0 42 38" fill="none" xmlns="http://www.w3.org/2000/svg">
<path d="M36.3917 30.756C36.7198 31.4393 37.3787 31.7733 38.0533 31.7695C39.2018 31.7634 40.1225 32.8978 40.0234 34.2513C39.9361 35.4503 40.0234 37.0952 38.0533 37.0952H35.4638H31.5H17.0626H11.8126H4.59386C3.47167 37.0952 2.56867 36.0065 2.62774 34.6903C2.68352 33.4554 3.63901 32.5303 4.70542 32.5303H5.2501C6.04745 32.5303 6.6781 31.7063 6.54488 30.753C6.43988 30.0051 5.83351 29.487 5.17989 29.487H1.96886C0.846677 29.487 -0.056321 28.3982 0.00274132 27.082C0.0585225 25.8472 1.01402 24.9221 2.08042 24.9221H6.23448C7.14076 24.9221 7.8751 24.0707 7.8751 23.02C7.8751 21.9693 7.14076 21.1179 6.23448 21.1179C5.3282 21.1179 4.59386 20.2666 4.59386 19.2159C4.59386 18.1652 5.3282 17.3138 6.23448 17.3138H11.8126V11.9881H6.89073C5.58151 11.9881 4.52758 10.7175 4.59714 9.18215C4.66211 7.74192 5.77707 6.66231 7.02066 6.66231H11.8126V3.61902H27.5626H31.5H37.0782C38.3874 3.61902 39.4413 4.88959 39.3717 6.42493C39.3068 7.86517 38.1918 8.94478 36.9482 8.94478H35.1094C33.8002 8.94478 32.7463 10.2153 32.8158 11.7507C32.8808 13.1909 33.9958 14.2705 35.2394 14.2705H36.75C37.9162 14.2705 38.8461 15.4468 38.7043 16.8315C38.5869 17.9795 37.6898 18.7883 36.6936 18.8362C35.9081 18.8743 35.301 19.7135 35.4638 20.6668C35.5872 21.388 36.1745 21.8788 36.8084 21.8788H39.7032C41.0124 21.8788 42.0663 23.1493 41.9967 24.6847C41.9318 26.1249 40.8168 27.2045 39.5732 27.2045H38.0625C36.624 27.2045 35.5465 28.9924 36.3917 30.756ZM1.64074 21.1179C2.54702 21.1179 3.28136 20.2666 3.28136 19.2159C3.28136 18.1652 2.54702 17.3138 1.64074 17.3138C0.734458 17.3138 0.00011633 18.1652 0.00011633 19.2159C0.00011633 20.2666 0.734458 21.1179 1.64074 21.1179ZM1.64074 21.1179C2.54702 21.1179 3.28136 20.2666 3.28136 19.2159C3.28136 18.1652 2.54702 17.3138 1.64074 17.3138C0.734458 17.3138 0.00011633 18.1652 0.00011633 19.2159C0.00011633 20.2666 0.734458 21.1179 1.64074 21.1179Z" fill="#C0F3C6"/>
<path d="M12.7934 2.25H25.2708L33.0835 10.4362V29.2187C33.0835 30.9711 31.6304 32.4167 29.874 32.4167H12.7934C11.0369 32.4167 9.5835 30.971 9.5835 29.2187V5.44794C9.5835 3.69564 11.0369 2.25 12.7934 2.25Z" fill="white" stroke="#C4C4C4" stroke-width="0.5"/>
<path d="M25.3335 2L33.3335 10.3333L28.0079 10.6667C26.5292 10.6667 25.3335 9.43448 25.3335 7.91042V2Z" fill="#C2AAEF"/>
<path d="M27.7254 26.5178H14.9138C14.4859 26.5178 14.1357 26.868 14.1357 27.2961C14.1357 27.7243 14.4859 28.0746 14.9138 28.0746H27.7332C28.1613 28.0746 28.5115 27.7243 28.5115 27.2961C28.5115 26.868 28.1613 26.5178 27.7254 26.5178Z" fill="#581D9F"/>
<path d="M21.8876 12.1885C21.7397 12.0328 21.5374 11.9394 21.3195 11.9394C21.1018 11.9394 20.8993 12.0328 20.7512 12.1885L16.198 17.0843C15.9023 17.3955 15.9257 17.8936 16.2372 18.1817C16.5482 18.4774 17.0463 18.4542 17.3344 18.1427L20.541 14.6948V23.1942C20.541 23.6223 20.8914 23.9727 21.3195 23.9727C21.7478 23.9727 22.098 23.6223 22.098 23.1942V14.6948L25.3046 18.1427C25.6004 18.4542 26.0908 18.4774 26.402 18.1817C26.7135 17.8859 26.7369 17.3955 26.4412 17.0843L21.8876 12.1885Z" fill="#581D9F"/>
</svg>
