<svg width="63" height="57" viewBox="0 0 63 57" fill="none" xmlns="http://www.w3.org/2000/svg">
<path d="M54.5876 46.1341C55.0798 47.1589 56.0681 47.6599 57.08 47.6542C58.8027 47.6451 60.1837 49.3467 60.0351 51.3769C59.9042 53.1755 60.0351 55.6429 57.08 55.6429H53.1957H47.2501H25.5939H17.7189H6.89078C5.20751 55.6429 3.85301 54.0098 3.9416 52.0354C4.02528 50.1832 5.45852 48.7955 7.05813 48.7955H7.87516C9.07117 48.7955 10.0172 47.5595 9.81732 46.1296C9.65983 45.0077 8.75027 44.2305 7.76983 44.2305H2.95329C1.27002 44.2305 -0.0844816 42.5974 0.00411199 40.6231C0.0877837 38.7709 1.52103 37.3831 3.12064 37.3831H9.35172C10.7111 37.3831 11.8126 36.1061 11.8126 34.53C11.8126 32.954 10.7111 31.677 9.35172 31.677C7.9923 31.677 6.89078 30.3999 6.89078 28.8239C6.89078 27.2478 7.9923 25.9708 9.35172 25.9708H17.7189V17.9822H10.3361C8.37227 17.9822 6.79136 16.0763 6.89571 13.7733C6.99316 11.6129 8.66561 9.99352 10.531 9.99352H17.7189V5.42859H41.3438H47.2501H55.6172C57.5811 5.42859 59.162 7.33445 59.0576 9.63746C58.9602 11.7978 57.2877 13.4172 55.4223 13.4172H52.6641C50.7003 13.4172 49.1194 15.3231 49.2237 17.6261C49.3212 19.7865 50.9936 21.4059 52.859 21.4059H55.1251C56.8743 21.4059 58.2691 23.1702 58.0565 25.2473C57.8803 26.9694 56.5347 28.1825 55.0404 28.2544C53.8621 28.3115 52.9516 29.5702 53.1957 31.0002C53.3807 32.0821 54.2618 32.8182 55.2127 32.8182H59.5547C61.5186 32.8182 63.0995 34.7241 62.9951 37.0271C62.8977 39.1874 61.2252 40.8068 59.3598 40.8068H57.0938C54.9361 40.8068 53.3197 43.4887 54.5876 46.1341ZM2.46111 31.677C3.82053 31.677 4.92204 30.3999 4.92204 28.8239C4.92204 27.2478 3.82053 25.9708 2.46111 25.9708C1.10169 25.9708 0.000174495 27.2478 0.000174495 28.8239C0.000174495 30.3999 1.10169 31.677 2.46111 31.677ZM2.46111 31.677C3.82053 31.677 4.92204 30.3999 4.92204 28.8239C4.92204 27.2478 3.82053 25.9708 2.46111 25.9708C1.10169 25.9708 0.000174495 27.2478 0.000174495 28.8239C0.000174495 30.3999 1.10169 31.677 2.46111 31.677Z" fill="#C0F3C6"/>
<path d="M19.1901 3.25H37.9597L49.7502 15.6042V43.8281C49.7502 46.5261 47.5142 48.75 44.8109 48.75H19.1901C16.4868 48.75 14.2502 46.5261 14.2502 43.8281V8.17191C14.2502 5.47391 16.4868 3.25 19.1901 3.25Z" fill="white" stroke="#C4C4C4" stroke-width="0.5"/>
<path d="M38.0002 3L50.0002 15.5L42.0119 16C39.7938 16 38.0002 14.1517 38.0002 11.8656V3Z" fill="#C2AAEF"/>
<path d="M41.588 39.7767H22.3707C21.7289 39.7767 21.2036 40.302 21.2036 40.9441C21.2036 41.5865 21.7289 42.1118 22.3707 42.1118H41.5998C42.2419 42.1118 42.7672 41.5865 42.7672 40.9441C42.7672 40.302 42.2419 39.7767 41.588 39.7767Z" fill="#581D9F"/>
<path d="M31.1274 35.5853C31.3492 35.8188 31.6527 35.9589 31.9795 35.9589C32.306 35.9589 32.6098 35.8188 32.8319 35.5853L39.6617 28.2417C40.1053 27.7747 40.0702 27.0276 39.603 26.5955C39.1364 26.1519 38.3893 26.1868 37.9572 26.6539L33.1472 31.8259V19.0767C33.1472 18.4346 32.6216 17.9091 31.9795 17.9091C31.3371 17.9091 30.8118 18.4346 30.8118 19.0767V31.8259L26.0018 26.6539C25.5582 26.1868 24.8226 26.1519 24.3557 26.5955C23.8885 27.0391 23.8534 27.7747 24.297 28.2417L31.1274 35.5853Z" fill="#581D9F"/>
</svg>
