<svg width="32" height="32" viewBox="0 0 32 32" fill="none" xmlns="http://www.w3.org/2000/svg">
  <path d="M16.0003 24C16.7367 24 17.3337 23.403 17.3337 22.6666C17.3337 21.9303 16.7367 21.3333 16.0003 21.3333C15.2639 21.3333 14.667 21.9303 14.667 22.6666C14.667 23.403 15.2639 24 16.0003 24Z" fill="#7246D0"/>
  <path fill-rule="evenodd" clip-rule="evenodd" d="M16.4748 11.4134C15.8273 11.4418 15.4821 11.7023 15.3626 11.9563C15.049 12.6225 14.2547 12.9084 13.5884 12.5949C12.9221 12.2813 12.6362 11.487 12.9498 10.8207C13.646 9.34135 15.1459 8.80251 16.3578 8.74932C17.5236 8.69815 18.9744 9.06947 19.777 10.1161C20.3946 10.9215 20.7416 11.9424 20.6015 13.0159C20.4594 14.1044 19.8385 15.0807 18.8311 15.8219C17.4859 16.8115 17.4883 17.3165 17.4886 17.39C17.4886 17.3911 17.4886 17.392 17.4886 17.3929C17.4886 18.1293 16.8917 18.7263 16.1553 18.7263C15.4189 18.7263 14.822 18.1293 14.822 17.3929C14.822 16.1173 15.5639 14.9149 17.2509 13.6738C17.7694 13.2924 17.9237 12.9274 17.9572 12.6707C17.9927 12.3991 17.9157 12.0711 17.6609 11.7388C17.643 11.7155 17.5456 11.6182 17.3017 11.5306C17.0689 11.4469 16.7761 11.4002 16.4748 11.4134Z" fill="#7246D0"/>
  <path d="M16.0006 30.6666C7.86732 30.6666 1.33398 24.1333 1.33398 16C1.33398 7.86665 7.86732 1.33331 16.0006 1.33331C24.134 1.33331 30.6673 7.86665 30.6673 16C30.6673 24.1333 24.134 30.6666 16.0006 30.6666ZM16.0006 3.99998C9.33398 3.99998 4.00065 9.33331 4.00065 16C4.00065 22.6666 9.33398 28 16.0006 28C22.6673 28 28.0006 22.6666 28.0006 16C28.0006 9.33331 22.6673 3.99998 16.0006 3.99998Z" fill="#7246D0"/>
  </svg>
  