<svg width="32" height="32" viewBox="0 0 32 32" fill="none" xmlns="http://www.w3.org/2000/svg">
<path fill-rule="evenodd" clip-rule="evenodd" d="M15.1815 1.6142C15.663 1.23971 16.3372 1.23971 16.8187 1.6142L28.8187 10.9475C29.1435 11.2001 29.3334 11.5885 29.3334 12V26.6667C29.3334 27.7275 28.912 28.7449 28.1618 29.4951C27.4117 30.2452 26.3943 30.6667 25.3334 30.6667H6.66675C5.60588 30.6667 4.58847 30.2452 3.83832 29.4951C3.08818 28.7449 2.66675 27.7275 2.66675 26.6667V12C2.66675 11.5885 2.85671 11.2001 3.18149 10.9475L15.1815 1.6142ZM5.33341 12.6521V26.6667C5.33341 27.0203 5.47389 27.3594 5.72394 27.6095C5.97399 27.8595 6.31313 28 6.66675 28H25.3334C25.687 28 26.0262 27.8595 26.2762 27.6095C26.5263 27.3594 26.6667 27.0203 26.6667 26.6667V12.6521L16.0001 4.35582L5.33341 12.6521Z" fill="#7246D0"/>
<path fill-rule="evenodd" clip-rule="evenodd" d="M10.6667 16C10.6667 15.2636 11.2637 14.6667 12.0001 14.6667H20.0001C20.7365 14.6667 21.3334 15.2636 21.3334 16V29.3333C21.3334 30.0697 20.7365 30.6667 20.0001 30.6667C19.2637 30.6667 18.6667 30.0697 18.6667 29.3333V17.3333H13.3334V29.3333C13.3334 30.0697 12.7365 30.6667 12.0001 30.6667C11.2637 30.6667 10.6667 30.0697 10.6667 29.3333V16Z" fill="#7246D0"/>
</svg>
