<svg width="37" height="31" viewBox="0 0 37 31" fill="none" xmlns="http://www.w3.org/2000/svg">
<path d="M31.546 25.5049C31.8304 26.0971 32.4015 26.3867 32.9863 26.3834C33.9818 26.3781 34.78 27.3614 34.6941 28.5347C34.6184 29.5741 34.6941 31 32.9863 31H30.7416H27.3056H14.7906H10.2397H3.98216C3.0094 31 2.22664 30.0562 2.27784 28.9152C2.32619 27.8449 3.15446 27.0429 4.07887 27.0429H4.55102C5.2422 27.0429 5.78888 26.3286 5.6734 25.5023C5.58238 24.854 5.05675 24.4048 4.49016 24.4048H1.7067C0.733937 24.4048 -0.0488216 23.4611 0.0023763 22.3201C0.0507299 21.2497 0.878998 20.4477 1.8034 20.4477H5.40432C6.18993 20.4477 6.82649 19.7097 6.82649 18.7989C6.82649 17.8882 6.18993 17.1502 5.40432 17.1502C4.61872 17.1502 3.98216 16.4122 3.98216 15.5014C3.98216 14.5906 4.61872 13.8526 5.40432 13.8526H10.2397V9.23599H5.97319C4.8383 9.23599 3.9247 8.1346 3.985 6.8037C4.04132 5.55523 5.00782 4.61938 6.08582 4.61938H10.2397V1.98132H23.8924H27.3056H32.141C33.2759 1.98132 34.1895 3.08271 34.1292 4.41361C34.0729 5.66208 33.1064 6.59793 32.0284 6.59793H30.4344C29.2995 6.59793 28.3859 7.69932 28.4462 9.03022C28.5025 10.2787 29.469 11.2145 30.547 11.2145H31.8566C32.8674 11.2145 33.6735 12.2341 33.5506 13.4345C33.4488 14.4297 32.6712 15.1307 31.8076 15.1723C31.1267 15.2053 30.6005 15.9327 30.7416 16.7591C30.8485 17.3843 31.3577 17.8097 31.9072 17.8097H34.4165C35.5513 17.8097 36.4649 18.9111 36.4046 20.242C36.3483 21.4904 35.3818 22.4263 34.3038 22.4263H32.9943C31.7473 22.4263 30.8133 23.9761 31.546 25.5049ZM1.42226 17.1502C2.20787 17.1502 2.84443 16.4122 2.84443 15.5014C2.84443 14.5906 2.20787 13.8526 1.42226 13.8526C0.636661 13.8526 0.00010084 14.5906 0.00010084 15.5014C0.00010084 16.4122 0.636661 17.1502 1.42226 17.1502ZM1.42226 17.1502C2.20787 17.1502 2.84443 16.4122 2.84443 15.5014C2.84443 14.5906 2.20787 13.8526 1.42226 13.8526C0.636661 13.8526 0.00010084 14.5906 0.00010084 15.5014C0.00010084 16.4122 0.636661 17.1502 1.42226 17.1502Z" fill="#C0F3C6"/>
<path d="M11.6678 0.25H22.4695L29.2228 7.32617V23.5944C29.2228 25.0949 27.9783 26.3332 26.474 26.3332H11.6678C10.1634 26.3332 8.91858 25.0949 8.91858 23.5944V2.98883C8.91858 1.48838 10.1634 0.25 11.6678 0.25Z" fill="white" stroke="#C4C4C4" stroke-width="0.5"/>
<circle cx="18.2037" cy="19.3596" r="2.60053" fill="#3ADEA3"/>
<path d="M17.603 6.49878L17.603 6.49871C17.603 6.33663 17.6665 6.18712 17.7836 6.0701C17.9049 5.94877 18.0686 5.88006 18.2453 5.88437L18.2483 5.88444L18.2483 5.88441C18.4234 5.88441 18.5979 5.95491 18.7183 6.07527C18.8358 6.19275 18.8979 6.34132 18.8937 6.49533L18.8936 6.49869L18.8937 6.49869L18.8937 6.995C18.8937 7.07582 18.9196 7.15547 18.9871 7.22298C19.0504 7.2862 19.1384 7.3268 19.2358 7.3268H20.156C20.3299 7.3268 20.4893 7.39135 20.6156 7.51766C20.7372 7.63924 20.8065 7.80401 20.8065 7.97727C20.8065 8.15117 20.7419 8.31058 20.6156 8.43689C20.4941 8.55846 20.3293 8.62775 20.156 8.62775L19.2358 8.62774L19.2358 8.75274L19.2358 8.62774C19.0601 8.62774 18.8937 8.75023 18.8937 8.93885L18.8937 8.93891C18.8937 9.02955 18.9371 9.10652 18.982 9.15133C19.0524 9.22174 19.148 9.24837 19.2314 9.25477L19.241 9.2555L19.241 9.25514L21.1228 9.25515C21.2967 9.25515 21.4561 9.31971 21.5824 9.44602C21.704 9.5676 21.7733 9.73237 21.7733 9.90563C21.7733 10.2605 21.4829 10.5509 21.128 10.5509L19.2461 10.5509C19.0571 10.5509 18.8972 10.7018 18.904 10.8956C18.9043 10.9835 18.92 11.0776 18.9831 11.1502C19.0494 11.2265 19.1444 11.2527 19.2421 11.2558L19.2461 11.256V11.2559C19.2951 11.2559 19.4357 11.2579 19.595 11.2601L19.6618 11.261C19.8462 11.2636 20.0412 11.2662 20.1353 11.2662H20.1416L20.1416 11.2661C20.2408 11.2611 20.3134 11.2644 20.3755 11.2808C20.4347 11.2964 20.4904 11.3256 20.5516 11.3826C20.6773 11.4996 20.7514 11.6601 20.7601 11.8351L20.7601 11.8351C20.7688 12.008 20.7085 12.1715 20.5919 12.2968C20.475 12.4224 20.3145 12.4965 20.1397 12.5053C20.1396 12.5053 20.1395 12.5053 20.1394 12.5053L19.2198 12.5466L19.2181 12.5467L19.2181 12.5467C19.0964 12.5539 18.9726 12.6185 18.9172 12.7293L18.9039 12.7558L18.904 12.7855L18.9092 15.6545C18.9092 15.6545 18.9092 15.6545 18.9092 15.6546L18.9092 15.6547L17.603 6.49878ZM17.603 6.49878L17.5979 15.6215C17.6011 15.7309 17.5511 15.8331 17.4852 15.9102C17.418 15.9889 17.3243 16.0538 17.219 16.0845C16.5158 16.2992 15.8815 16.7437 15.4373 17.3276C14.9733 17.9412 14.7337 18.6695 14.7286 19.4341C14.7287 20.3729 15.093 21.2559 15.757 21.9199C16.421 22.584 17.3042 22.9483 18.2432 22.9483C20.1803 22.9483 21.7581 21.3702 21.7785 19.464C21.7783 18.5256 21.4141 17.6529 20.7552 16.994C20.3473 16.5861 19.8393 16.2866 19.2907 16.1164L17.603 6.49878ZM20.4182 19.908L20.4182 19.908L20.4177 19.91C20.1984 20.919 19.2842 21.657 18.2445 21.668L18.2432 21.668C17.6517 21.668 17.0926 21.4377 16.671 21.0162C16.2495 20.5946 16.0192 20.0355 16.0192 19.444C16.0192 18.217 17.0161 17.2201 18.2432 17.2201C18.8346 17.2201 19.3937 17.4503 19.8153 17.8719C20.1154 18.172 20.3296 18.5497 20.4177 18.9675C20.4465 19.0947 20.4581 19.2693 20.4574 19.4374C20.4568 19.6067 20.4436 19.7809 20.4182 19.908Z" fill="#D13ADE" stroke="white" stroke-width="0.25"/>
<rect x="17" y="13" width="3" height="4" rx="0.5" fill="#D13ADE"/>
<circle cx="19" cy="20" r="0.75" fill="#3ADEA3" stroke="#2BB382" stroke-width="0.5"/>
<circle cx="16.5" cy="16.5" r="1.25" fill="#3ADEA3" stroke="#2BB382" stroke-width="0.5"/>
<circle cx="22" cy="15" r="0.75" fill="#3ADEA3" stroke="#2BB382" stroke-width="0.5"/>
<circle cx="14" cy="11" r="0.75" fill="#3ADEA3" stroke="#2BB382" stroke-width="0.5"/>
<circle cx="14.5" cy="14.5" r="0.25" fill="#3ADEA3" stroke="#2BB382" stroke-width="0.5"/>
<circle cx="23.5" cy="17.5" r="0.25" fill="#3ADEA3" stroke="#2BB382" stroke-width="0.5"/>
</svg>
