<svg width="20" height="20" viewBox="0 0 20 20" fill="none" xmlns="http://www.w3.org/2000/svg">
<path d="M14.9306 2.52804C14.7513 1.56359 13.9036 0.831035 12.8879 0.831035H11.9114C11.2692 0.311638 10.4523 0 9.5638 0C8.67534 0 7.85843 0.311638 7.21615 0.831035H6.23966C5.22405 0.831035 4.37631 1.56359 4.197 2.52804C3.23256 2.70732 2.5 3.55509 2.5 4.5707V4.98621H3.37278C3.56583 5.93332 4.40532 6.64828 5.40862 6.64828H6.02827C6.5349 8.1137 7.92832 9.16909 9.5638 9.16909C11.1993 9.16909 12.5927 8.1137 13.0993 6.64828H13.719C14.7223 6.64828 15.5618 5.93332 15.7548 4.98621H16.6276V4.5707C16.6276 3.55509 15.895 2.70732 14.9306 2.52804ZM9.5638 0.831035C10.9508 0.831035 12.1139 1.80692 12.4032 3.10807C12.1748 2.98976 11.9159 2.92247 11.6414 2.92247C10.8684 2.92247 10.2169 3.45298 10.0319 4.16903H9.09571C8.91072 3.45298 8.25927 2.92247 7.48624 2.92247C7.21175 2.92247 6.95285 2.98976 6.72446 3.10807C7.01366 1.80692 8.17683 0.831035 9.5638 0.831035ZM5.82414 3.73966V5.42943C5.82414 5.56038 5.83098 5.68974 5.84417 5.81725H5.40862C4.72127 5.81725 4.16207 5.25804 4.16207 4.5707V4.15518H3.40223C3.57373 3.67149 4.03586 3.32414 4.57759 3.32414H4.99311V2.90862C4.99311 2.22127 5.55231 1.66207 6.23966 1.66207H6.4559C6.05708 2.2567 5.82414 2.97145 5.82414 3.73966ZM7.48621 3.75351C7.94445 3.75351 8.31725 4.12631 8.31725 4.58455C8.31725 5.04278 7.94445 5.41558 7.48621 5.41558C7.02798 5.41558 6.65518 5.04278 6.65518 4.58455C6.65518 4.12631 7.02798 3.75351 7.48621 3.75351ZM9.5638 8.33806C8.17683 8.33806 7.01366 7.36217 6.72443 6.06102C6.95283 6.17933 7.21172 6.24662 7.48621 6.24662C8.25924 6.24662 8.91072 5.71611 9.09568 5.00006H10.0319C10.2169 5.71611 10.8683 6.24662 11.6414 6.24662C11.9159 6.24662 12.1747 6.17933 12.4031 6.06102C12.1139 7.36217 10.9508 8.33806 9.5638 8.33806ZM11.6414 5.41558C11.1832 5.41558 10.8104 5.04278 10.8104 4.58455C10.8104 4.12631 11.1832 3.75351 11.6414 3.75351C12.0996 3.75351 12.4724 4.12631 12.4724 4.58455C12.4724 5.04278 12.0996 5.41558 11.6414 5.41558ZM14.9655 4.15518V4.5707C14.9655 5.25804 14.4063 5.81725 13.719 5.81725H13.2834C13.2966 5.68974 13.3035 5.56038 13.3035 5.42943V3.73966C13.3035 2.97145 13.0705 2.2567 12.6717 1.66207H12.8879C13.5753 1.66207 14.1345 2.22127 14.1345 2.90862V3.32414H14.55C15.0917 3.32414 15.5539 3.67149 15.7254 4.15518H14.9655Z" fill="#858585"/>
<path d="M14.9306 2.52804C14.7513 1.56359 13.9036 0.831035 12.8879 0.831035H11.9114C11.2692 0.311638 10.4523 0 9.5638 0C8.67534 0 7.85843 0.311638 7.21615 0.831035H6.23966C5.22405 0.831035 4.37631 1.56359 4.197 2.52804C3.23256 2.70732 2.5 3.55509 2.5 4.5707V4.98621H3.37278C3.56583 5.93332 4.40532 6.64828 5.40862 6.64828H6.02827C6.5349 8.1137 7.92832 9.16909 9.5638 9.16909C11.1993 9.16909 12.5927 8.1137 13.0993 6.64828H13.719C14.7223 6.64828 15.5618 5.93332 15.7548 4.98621H16.6276V4.5707C16.6276 3.55509 15.895 2.70732 14.9306 2.52804ZM9.5638 0.831035C10.9508 0.831035 12.1139 1.80692 12.4032 3.10807C12.1748 2.98976 11.9159 2.92247 11.6414 2.92247C10.8684 2.92247 10.2169 3.45298 10.0319 4.16903H9.09571C8.91072 3.45298 8.25927 2.92247 7.48624 2.92247C7.21175 2.92247 6.95285 2.98976 6.72446 3.10807C7.01366 1.80692 8.17683 0.831035 9.5638 0.831035ZM5.82414 3.73966V5.42943C5.82414 5.56038 5.83098 5.68974 5.84417 5.81725H5.40862C4.72127 5.81725 4.16207 5.25804 4.16207 4.5707V4.15518H3.40223C3.57373 3.67149 4.03586 3.32414 4.57759 3.32414H4.99311V2.90862C4.99311 2.22127 5.55231 1.66207 6.23966 1.66207H6.4559C6.05708 2.2567 5.82414 2.97145 5.82414 3.73966ZM7.48621 3.75351C7.94445 3.75351 8.31725 4.12631 8.31725 4.58455C8.31725 5.04278 7.94445 5.41558 7.48621 5.41558C7.02798 5.41558 6.65518 5.04278 6.65518 4.58455C6.65518 4.12631 7.02798 3.75351 7.48621 3.75351ZM9.5638 8.33806C8.17683 8.33806 7.01366 7.36217 6.72443 6.06102C6.95283 6.17933 7.21172 6.24662 7.48621 6.24662C8.25924 6.24662 8.91072 5.71611 9.09568 5.00006H10.0319C10.2169 5.71611 10.8683 6.24662 11.6414 6.24662C11.9159 6.24662 12.1747 6.17933 12.4031 6.06102C12.1139 7.36217 10.9508 8.33806 9.5638 8.33806ZM11.6414 5.41558C11.1832 5.41558 10.8104 5.04278 10.8104 4.58455C10.8104 4.12631 11.1832 3.75351 11.6414 3.75351C12.0996 3.75351 12.4724 4.12631 12.4724 4.58455C12.4724 5.04278 12.0996 5.41558 11.6414 5.41558ZM14.9655 4.15518V4.5707C14.9655 5.25804 14.4063 5.81725 13.719 5.81725H13.2834C13.2966 5.68974 13.3035 5.56038 13.3035 5.42943V3.73966C13.3035 2.97145 13.0705 2.2567 12.6717 1.66207H12.8879C13.5753 1.66207 14.1345 2.22127 14.1345 2.90862V3.32414H14.55C15.0917 3.32414 15.5539 3.67149 15.7254 4.15518H14.9655Z" stroke="white"/>
<path d="M4.96899 16.7917H5.09399V16.6667V11.7825V11.6379L4.95086 11.6589C3.86804 11.8176 3.17189 12.5635 2.72361 13.5105C2.27629 14.4554 2.0662 15.6181 1.95892 16.6539L1.94464 16.7917H2.08325H4.96899ZM5.86938 16.6667V16.7917H5.99438H9.16658H9.42608L9.26433 16.5888L6.09213 12.6093L5.86938 12.3299V12.6873V16.6667ZM6.71223 11.6163H6.45866L6.61308 11.8174L9.4841 15.5568L9.58325 15.6859L9.6824 15.5568L12.5535 11.8174L12.7079 11.6163H12.4543H6.71223ZM13.1721 16.7917H13.2971V16.6667V12.6873V12.3299L13.0744 12.6093L9.90217 16.5888L9.74042 16.7917H9.99992H13.1721ZM14.0725 16.6667V16.7917H14.1975H17.0833H17.2083V16.6667C17.2083 13.7207 15.9021 11.9504 14.2188 11.6594L14.0725 11.6341V11.7825V16.6667ZM5.44751 10.5417H13.719C16.1664 10.5417 18.2083 13.1279 18.2083 16.377V16.9584H0.958252V16.377C0.958252 13.1279 3.00012 10.5417 5.44751 10.5417Z" fill="#858585" stroke="white" stroke-width="0.25"/>
</svg>
