<svg width="23" height="27" viewBox="0 0 23 27" fill="none" xmlns="http://www.w3.org/2000/svg">
<path d="M9 17L12 20L15 17" stroke="#858585" stroke-linejoin="round"/>
<path d="M12 20L12 26" stroke="#858585" stroke-linecap="round" stroke-linejoin="round"/>
<path d="M22.3333 25V22.3333C22.3333 20.9188 21.7714 19.5623 20.7712 18.5621C19.771 17.5619 18.4145 17 17 17H6.33333C4.91885 17 3.56229 17.5619 2.5621 18.5621C1.5619 19.5623 1 20.9188 1 22.3333V25" stroke="#858585" stroke-linecap="round" stroke-linejoin="round"/>
<path d="M11.6663 11.6667C14.6119 11.6667 16.9997 9.27885 16.9997 6.33333C16.9997 3.38781 14.6119 1 11.6663 1C8.72082 1 6.33301 3.38781 6.33301 6.33333C6.33301 9.27885 8.72082 11.6667 11.6663 11.6667Z" stroke="#858585" stroke-linecap="round" stroke-linejoin="round"/>
<mask id="path-5-inside-1" fill="white">
<path fill-rule="evenodd" clip-rule="evenodd" d="M8.5 13C10.433 13 12 11.433 12 9.5C12 11.433 13.567 13 15.5 13C17.433 13 19 11.433 19 9.5C19 7.567 17.433 6 15.5 6C13.567 6 12 7.567 12 9.5C12 7.567 10.433 6 8.5 6C6.567 6 5 7.567 5 9.5C5 11.433 6.567 13 8.5 13Z"/>
</mask>
<path fill-rule="evenodd" clip-rule="evenodd" d="M8.5 13C10.433 13 12 11.433 12 9.5C12 11.433 13.567 13 15.5 13C17.433 13 19 11.433 19 9.5C19 7.567 17.433 6 15.5 6C13.567 6 12 7.567 12 9.5C12 7.567 10.433 6 8.5 6C6.567 6 5 7.567 5 9.5C5 11.433 6.567 13 8.5 13Z" fill="white"/>
<path d="M11 9.5C11 10.8807 9.88071 12 8.5 12V14C10.9853 14 13 11.9853 13 9.5H11ZM15.5 12C14.1193 12 13 10.8807 13 9.5H11C11 11.9853 13.0147 14 15.5 14V12ZM18 9.5C18 10.8807 16.8807 12 15.5 12V14C17.9853 14 20 11.9853 20 9.5H18ZM15.5 7C16.8807 7 18 8.11929 18 9.5H20C20 7.01472 17.9853 5 15.5 5V7ZM13 9.5C13 8.11929 14.1193 7 15.5 7V5C13.0147 5 11 7.01472 11 9.5H13ZM8.5 7C9.88071 7 11 8.11929 11 9.5H13C13 7.01472 10.9853 5 8.5 5V7ZM6 9.5C6 8.11929 7.11929 7 8.5 7V5C6.01472 5 4 7.01472 4 9.5H6ZM8.5 12C7.11929 12 6 10.8807 6 9.5H4C4 11.9853 6.01472 14 8.5 14V12Z" fill="#858585" mask="url(#path-5-inside-1)"/>
</svg>
