<svg width="34" height="34" viewBox="0 0 34 34" fill="none" xmlns="http://www.w3.org/2000/svg">
<path fill-rule="evenodd" clip-rule="evenodd" d="M1.41675 17C1.41675 16.2176 2.05101 15.5833 2.83341 15.5833H11.3334C11.8071 15.5833 12.2494 15.8201 12.5122 16.2142L14.9249 19.8333H19.0752L21.488 16.2142C21.7508 15.8201 22.1931 15.5833 22.6667 15.5833H31.1667C31.9492 15.5833 32.5834 16.2176 32.5834 17C32.5834 17.7824 31.9492 18.4167 31.1667 18.4167H23.4249L21.0122 22.0358C20.7494 22.4299 20.3071 22.6667 19.8334 22.6667H14.1667C13.6931 22.6667 13.2508 22.4299 12.988 22.0358L10.5752 18.4167H2.83341C2.05101 18.4167 1.41675 17.7824 1.41675 17Z" fill="#7246D0"/>
<path fill-rule="evenodd" clip-rule="evenodd" d="M10.2567 4.25L23.7434 4.25C24.5341 4.25042 25.3097 4.4714 25.9817 4.88809C26.6531 5.30442 27.1951 5.89963 27.547 6.60688C27.5473 6.6075 27.5476 6.60813 27.5479 6.60875L32.4335 16.3657C32.5321 16.5626 32.5834 16.7798 32.5834 17V25.5C32.5834 26.6272 32.1356 27.7082 31.3386 28.5052C30.5416 29.3022 29.4606 29.75 28.3334 29.75H5.66675C4.53958 29.75 3.45857 29.3022 2.66154 28.5052C1.86451 27.7082 1.41675 26.6272 1.41675 25.5V17C1.41675 16.7798 1.46808 16.5626 1.56668 16.3657L6.45225 6.60875C6.45259 6.60806 6.45293 6.60737 6.45328 6.60668C6.80516 5.89951 7.34716 5.30438 8.01847 4.88809C8.69043 4.4714 9.46607 4.25042 10.2567 4.25ZM7.72091 7.23917L8.98765 7.87345L4.25008 17.3349V25.5C4.25008 25.8757 4.39934 26.2361 4.66501 26.5017C4.93069 26.7674 5.29103 26.9167 5.66675 26.9167H28.3334C28.7091 26.9167 29.0695 26.7674 29.3351 26.5017C29.6008 26.2361 29.7501 25.8757 29.7501 25.5V17.3349L25.0125 7.87346L25.0106 7.86958C24.8933 7.63356 24.7125 7.43493 24.4885 7.29603C24.2646 7.15718 24.0064 7.08352 23.7429 7.08333H10.2572C9.99376 7.08352 9.73557 7.15718 9.51166 7.29603C9.28767 7.43493 9.10687 7.63356 8.98958 7.86958L7.72091 7.23917Z" fill="#7246D0"/>
</svg>
