<svg width="18" height="18" viewBox="0 0 18 18" fill="none" xmlns="http://www.w3.org/2000/svg">
<path d="M9 16.5C10.4834 16.5 11.9334 16.0601 13.1668 15.236C14.4001 14.4119 15.3614 13.2406 15.9291 11.8701C16.4968 10.4997 16.6453 8.99168 16.3559 7.53683C16.0665 6.08197 15.3522 4.7456 14.3033 3.6967C13.2544 2.64781 11.918 1.9335 10.4632 1.64411C9.00832 1.35472 7.50032 1.50325 6.12988 2.07091C4.75943 2.63856 3.58809 3.59986 2.76398 4.83323C1.93987 6.0666 1.5 7.51664 1.5 9C1.5 10.9891 2.29018 12.8968 3.6967 14.3033C4.39314 14.9997 5.21993 15.5522 6.12988 15.9291C7.03982 16.306 8.01509 16.5 9 16.5V16.5ZM9 2.655C10.2549 2.655 11.4817 3.02713 12.5251 3.72433C13.5685 4.42153 14.3818 5.41248 14.862 6.57188C15.3423 7.73127 15.4679 9.00704 15.2231 10.2379C14.9783 11.4687 14.374 12.5992 13.4866 13.4866C12.5992 14.374 11.4687 14.9783 10.2379 15.2231C9.00704 15.4679 7.73127 15.3423 6.57188 14.862C5.41248 14.3818 4.42152 13.5685 3.72433 12.5251C3.02713 11.4817 2.655 10.2549 2.655 9V9C2.655 7.31721 3.32349 5.70333 4.51341 4.51341C5.70333 3.32349 7.3172 2.655 9 2.655V2.655Z" fill="#929292"/>
<path d="M8.99986 13.0425C9.15242 13.0405 9.29818 12.979 9.40607 12.8712C9.51395 12.7633 9.57542 12.6175 9.57736 12.465V7.84496C9.57736 7.69179 9.51652 7.5449 9.40822 7.4366C9.29992 7.3283 9.15303 7.26746 8.99986 7.26746C8.8467 7.26746 8.69981 7.3283 8.59151 7.4366C8.48321 7.5449 8.42236 7.69179 8.42236 7.84496V12.465C8.42431 12.6175 8.48577 12.7633 8.59366 12.8712C8.70154 12.979 8.8473 13.0405 8.99986 13.0425V13.0425Z" fill="#929292"/>
<path d="M8.99986 6.11252C9.31881 6.11252 9.57736 5.85396 9.57736 5.53502C9.57736 5.21608 9.31881 4.95752 8.99986 4.95752C8.68092 4.95752 8.42236 5.21608 8.42236 5.53502C8.42236 5.85396 8.68092 6.11252 8.99986 6.11252Z" fill="#929292"/>
</svg>
