<svg width="26" height="23" viewBox="0 0 26 23" fill="none" xmlns="http://www.w3.org/2000/svg">
  <path fill-rule="evenodd" clip-rule="evenodd" d="M2.16669 11.375C2.16669 10.8515 2.65171 10.4271 3.25002 10.4271H22.75C23.3483 10.4271 23.8334 10.8515 23.8334 11.375C23.8334 11.8985 23.3483 12.3229 22.75 12.3229H3.25002C2.65171 12.3229 2.16669 11.8985 2.16669 11.375Z" fill="#581D9F"/>
  <path fill-rule="evenodd" clip-rule="evenodd" d="M2.16669 5.68751C2.16669 5.16399 2.65171 4.73959 3.25002 4.73959H22.75C23.3483 4.73959 23.8334 5.16399 23.8334 5.68751C23.8334 6.21103 23.3483 6.63543 22.75 6.63543H3.25002C2.65171 6.63543 2.16669 6.21103 2.16669 5.68751Z" fill="#581D9F"/>
  <path fill-rule="evenodd" clip-rule="evenodd" d="M2.16669 17.0625C2.16669 16.539 2.65171 16.1146 3.25002 16.1146H22.75C23.3483 16.1146 23.8334 16.539 23.8334 17.0625C23.8334 17.586 23.3483 18.0104 22.75 18.0104H3.25002C2.65171 18.0104 2.16669 17.586 2.16669 17.0625Z" fill="#581D9F"/>
  </svg>
  