<svg width="15" height="15" viewBox="0 0 15 15" fill="none" xmlns="http://www.w3.org/2000/svg">
  <path fill-rule="evenodd" clip-rule="evenodd" d="M7.125 1.78125C4.17373 1.78125 1.78125 4.17373 1.78125 7.125C1.78125 10.0763 4.17373 12.4688 7.125 12.4688C10.0763 12.4688 12.4688 10.0763 12.4688 7.125C12.4688 4.17373 10.0763 1.78125 7.125 1.78125ZM0.59375 7.125C0.59375 3.51789 3.51789 0.59375 7.125 0.59375C10.7321 0.59375 13.6562 3.51789 13.6562 7.125C13.6562 10.7321 10.7321 13.6562 7.125 13.6562C3.51789 13.6562 0.59375 10.7321 0.59375 7.125Z" fill="#858585"/>
  <path fill-rule="evenodd" clip-rule="evenodd" d="M7.125 2.96875C7.45292 2.96875 7.71875 3.23458 7.71875 3.5625V6.75804L9.76553 7.78143C10.0588 7.92808 10.1777 8.28473 10.0311 8.57803C9.88442 8.87133 9.52777 8.99022 9.23447 8.84357L6.85947 7.65607C6.65831 7.55549 6.53125 7.3499 6.53125 7.125V3.5625C6.53125 3.23458 6.79708 2.96875 7.125 2.96875Z" fill="#858585"/>
  </svg>
  