<svg width="63" height="54" viewBox="0 0 63 54" fill="none" xmlns="http://www.w3.org/2000/svg">
<path d="M54.5876 44.1341C55.0798 45.1589 56.0681 45.6599 57.08 45.6542C58.8027 45.6451 60.1837 47.3467 60.0351 49.3769C59.9042 51.1755 60.0351 53.6429 57.08 53.6429H53.1957H47.2501H25.5939H17.7189H6.89078C5.20751 53.6429 3.85301 52.0098 3.9416 50.0354C4.02528 48.1832 5.45852 46.7955 7.05813 46.7955H7.87516C9.07117 46.7955 10.0172 45.5595 9.81732 44.1296C9.65983 43.0077 8.75027 42.2305 7.76983 42.2305H2.95329C1.27002 42.2305 -0.0844816 40.5974 0.00411199 38.6231C0.0877837 36.7709 1.52103 35.3831 3.12064 35.3831H9.35172C10.7111 35.3831 11.8126 34.1061 11.8126 32.53C11.8126 30.954 10.7111 29.677 9.35172 29.677C7.9923 29.677 6.89078 28.3999 6.89078 26.8239C6.89078 25.2478 7.9923 23.9708 9.35172 23.9708H17.7189V15.9822H10.3361C8.37227 15.9822 6.79136 14.0763 6.89571 11.7733C6.99316 9.61294 8.66561 7.99352 10.531 7.99352H17.7189V3.42859H41.3438H47.2501H55.6172C57.5811 3.42859 59.162 5.33445 59.0576 7.63746C58.9602 9.79781 57.2877 11.4172 55.4223 11.4172H52.6641C50.7003 11.4172 49.1194 13.3231 49.2237 15.6261C49.3212 17.7865 50.9936 19.4059 52.859 19.4059H55.1251C56.8743 19.4059 58.2691 21.1702 58.0565 23.2473C57.8803 24.9694 56.5347 26.1825 55.0404 26.2544C53.8621 26.3115 52.9516 27.5702 53.1957 29.0002C53.3807 30.0821 54.2618 30.8182 55.2127 30.8182H59.5547C61.5186 30.8182 63.0995 32.7241 62.9951 35.0271C62.8977 37.1874 61.2252 38.8068 59.3598 38.8068H57.0938C54.9361 38.8068 53.3197 41.4887 54.5876 44.1341ZM2.46111 29.677C3.82053 29.677 4.92204 28.3999 4.92204 26.8239C4.92204 25.2478 3.82053 23.9708 2.46111 23.9708C1.10169 23.9708 0.000174496 25.2478 0.000174496 26.8239C0.000174496 28.3999 1.10169 29.677 2.46111 29.677ZM2.46111 29.677C3.82053 29.677 4.92204 28.3999 4.92204 26.8239C4.92204 25.2478 3.82053 23.9708 2.46111 23.9708C1.10169 23.9708 0.000174496 25.2478 0.000174496 26.8239C0.000174496 28.3999 1.10169 29.677 2.46111 29.677Z" fill="#C0F3C6"/>
<path d="M20.1899 0.25H38.9594L50.75 12.6042V40.8281C50.75 43.5261 48.5139 45.75 45.8107 45.75H20.1899C17.4866 45.75 15.25 43.5261 15.25 40.8281V5.17191C15.25 2.47391 17.4866 0.25 20.1899 0.25Z" fill="white" stroke="#C4C4C4" stroke-width="0.5"/>
<circle cx="31.5" cy="33.5" r="4.5" fill="#C2AAEF"/>
<path d="M30.369 11.2455L30.369 11.2455C30.369 10.9399 30.4892 10.6582 30.7081 10.4392C30.9352 10.2122 31.2424 10.083 31.5739 10.0911L31.577 10.0912C31.903 10.0912 32.2287 10.2221 32.4547 10.4482C32.6742 10.6676 32.7929 10.9484 32.785 11.2421L32.7849 11.2454L32.7849 11.2454L32.7849 12.1043C32.7849 12.2228 32.8222 12.3365 32.9199 12.4342C33.0134 12.5276 33.143 12.5871 33.2857 12.5871L34.878 12.5871C35.203 12.5871 35.5021 12.7083 35.7379 12.9441C35.9652 13.1714 36.0949 13.4797 36.0949 13.804C36.0949 14.1289 35.9737 14.4281 35.7379 14.6639C35.5106 14.8912 35.2024 15.0209 34.878 15.0209L33.2857 15.0209C33.0193 15.0209 32.785 15.2038 32.7849 15.4679L32.7849 15.468C32.785 15.5964 32.8473 15.7073 32.911 15.771C33.0116 15.8717 33.1525 15.9134 33.2851 15.9236L33.2946 15.9243V15.9239L36.5509 15.9239C36.8759 15.9239 37.175 16.0451 37.4108 16.281C37.6381 16.5083 37.7678 16.8165 37.7678 17.1408C37.7678 17.8054 37.2244 18.3488 36.5599 18.3488H33.3035C33.0239 18.3488 32.7923 18.5714 32.8028 18.8521C32.8031 18.9964 32.8291 19.1331 32.9173 19.2346C33.0086 19.3397 33.1432 19.3809 33.2995 19.386L33.3035 19.3861V19.3861C33.389 19.3861 33.6328 19.3895 33.9082 19.3934C33.9464 19.3939 33.9852 19.3944 34.0242 19.395C34.3436 19.3995 34.6801 19.4039 34.8423 19.4039L34.8485 19.4039L34.8485 19.4038C35.0233 19.395 35.1601 19.4002 35.2812 19.4322C35.3993 19.4634 35.5089 19.5219 35.6248 19.6299C35.86 19.8488 35.9983 20.149 36.0146 20.475L36.1394 20.4688L36.0146 20.475C36.0308 20.799 35.9177 21.106 35.699 21.3408C35.4802 21.5758 35.1801 21.7141 34.8543 21.7305C34.8542 21.7305 34.854 21.7305 34.8539 21.7305L33.2622 21.8021L33.2604 21.8022L33.2604 21.8022C33.0745 21.8131 32.8941 21.9117 32.816 22.0679L32.8028 22.0944L32.8028 22.124L32.8118 27.0888L30.369 11.2455ZM30.369 11.2455L30.36 27.033C30.3652 27.1935 30.2915 27.3495 30.187 27.4719C30.0811 27.5959 29.9336 27.6976 29.7698 27.7454C28.5341 28.1224 27.4202 28.903 26.6399 29.9287C25.8248 31.0069 25.4039 32.2865 25.395 33.6288C25.3951 35.2775 26.0351 36.8289 27.2013 37.9951C28.3676 39.1614 29.9192 39.8013 31.568 39.8013M30.369 11.2455L31.568 39.8013M35.2417 32.8412C35.2893 33.0515 35.3094 33.346 35.3083 33.6344C35.3072 33.9241 35.2845 34.2191 35.2421 34.4312L35.2417 34.4332C34.8713 36.137 33.3265 37.3848 31.5693 37.4033L31.568 37.4033C30.5687 37.4033 29.6244 37.0145 28.9121 36.3021C28.1998 35.5898 27.8109 34.6455 27.8109 33.6463C27.8109 31.5733 29.4951 29.8892 31.568 29.8892C32.5673 29.8892 33.5116 30.278 34.2239 30.9904C34.7317 31.4981 35.0931 32.1365 35.2417 32.8412ZM35.2417 32.8412C35.2416 32.8409 35.2415 32.8406 35.2414 32.8402L35.1196 32.8679L35.2419 32.8422C35.2418 32.8419 35.2417 32.8416 35.2417 32.8412ZM31.568 39.8013C34.9702 39.8013 37.7413 37.03 37.7768 33.6814C37.7766 32.033 37.1369 30.4995 35.9795 29.3421C35.2619 28.6246 34.3688 28.0986 33.4049 27.7999C33.2605 27.7654 33.135 27.6785 33.0363 27.5798C32.9035 27.447 32.8118 27.2739 32.8118 27.089L31.568 39.8013Z" fill="#581D9F" stroke="white" stroke-width="0.25"/>
</svg>
