<svg width="24" height="24" viewBox="0 0 24 24" fill="none" xmlns="http://www.w3.org/2000/svg">
<path d="M12 18C12.5523 18 13 17.5523 13 17C13 16.4477 12.5523 16 12 16C11.4477 16 11 16.4477 11 17C11 17.5523 11.4477 18 12 18Z" fill="white"/>
<path fill-rule="evenodd" clip-rule="evenodd" d="M12.3563 8.56013C11.8707 8.58144 11.6118 8.77681 11.5222 8.96726C11.287 9.46696 10.6912 9.6814 10.1915 9.44621C9.69183 9.21103 9.47739 8.61528 9.71258 8.11558C10.2348 7.00607 11.3597 6.60194 12.2686 6.56205C13.143 6.52368 14.231 6.80217 14.833 7.58713C15.2962 8.19118 15.5564 8.95689 15.4513 9.76198C15.3448 10.5783 14.8791 11.3106 14.1236 11.8665C13.1147 12.6087 13.1164 12.9874 13.1167 13.0425C13.1167 13.0434 13.1167 13.0441 13.1167 13.0448C13.1167 13.597 12.669 14.0448 12.1167 14.0448C11.5644 14.0448 11.1167 13.597 11.1167 13.0448C11.1167 12.088 11.6732 11.1862 12.9384 10.2554C13.3273 9.96935 13.443 9.6956 13.4682 9.50311C13.4948 9.29936 13.437 9.05339 13.2459 8.80418C13.2325 8.78666 13.1594 8.71371 12.9765 8.64799C12.8019 8.58523 12.5823 8.55021 12.3563 8.56013Z" fill="white"/>
<path d="M12 23C5.9 23 1 18.1 1 12C1 5.90003 5.9 1.00003 12 1.00003C18.1 1.00003 23 5.90003 23 12C23 18.1 18.1 23 12 23ZM12 3.00003C7 3.00003 3 7.00003 3 12C3 17 7 21 12 21C17 21 21 17 21 12C21 7.00003 17 3.00003 12 3.00003Z" fill="white"/>
</svg>
