<svg width="96" height="96" viewBox="0 0 96 96" fill="none" xmlns="http://www.w3.org/2000/svg">
<path d="M70.64 25.3598C65.4082 20.1222 58.5221 16.8605 51.1552 16.1306C43.7882 15.4007 36.396 17.2476 30.2381 21.3567C24.0802 25.4659 19.5374 31.583 17.3839 38.6659C15.2303 45.7488 15.5992 53.3593 18.4277 60.2007C21.2561 67.0421 26.3691 72.6912 32.8956 76.1856C39.422 79.6799 46.9582 80.8033 54.22 79.3643C61.4819 77.9254 68.0202 74.0131 72.721 68.294C77.4217 62.5749 79.9942 55.4029 80 47.9998C80.0143 43.7947 79.1944 39.6284 77.5877 35.7423C75.9811 31.8561 73.6196 28.3272 70.64 25.3598V25.3598ZM48 75.5198C42.5571 75.5198 37.2363 73.9058 32.7107 70.8819C28.1851 67.8579 24.6578 63.5599 22.5748 58.5313C20.4919 53.5027 19.9469 47.9693 21.0088 42.6309C22.0707 37.2926 24.6917 32.389 28.5404 28.5402C32.3892 24.6915 37.2928 22.0705 42.6311 21.0086C47.9695 19.9467 53.5028 20.4917 58.5314 22.5747C63.5601 24.6576 67.8581 28.1849 70.882 32.7105C73.906 37.2362 75.52 42.5569 75.52 47.9998C75.5094 55.2953 72.6066 62.289 67.4479 67.4477C62.2892 72.6064 55.2955 75.5092 48 75.5198V75.5198Z" fill="#34C889"/>
<path d="M61.8 36.9202C61.5015 36.9212 61.2061 36.9819 60.9313 37.0987C60.6566 37.2154 60.4079 37.386 60.2 37.6002L44.2 53.6002L36 45.3202C35.5664 44.9128 34.995 44.6842 34.4 44.6802C34.1107 44.6791 33.824 44.735 33.5563 44.8448C33.2886 44.9546 33.0452 45.1162 32.84 45.3202C32.4198 45.7468 32.1843 46.3215 32.1843 46.9202C32.1843 47.519 32.4198 48.0937 32.84 48.5202L42.76 58.4002C42.9574 58.6171 43.1984 58.7899 43.4673 58.9071C43.7361 59.0243 44.0267 59.0833 44.32 59.0802C44.6186 59.0792 44.9139 59.0185 45.1887 58.9018C45.4634 58.785 45.7121 58.6145 45.92 58.4002L63.56 40.7602C63.9802 40.3337 64.2157 39.759 64.2157 39.1602C64.2157 38.5615 63.9802 37.9868 63.56 37.5602C63.3318 37.3306 63.0557 37.1542 62.7515 37.0436C62.4473 36.933 62.1224 36.8908 61.8 36.9202V36.9202Z" fill="#34C889"/>
</svg>
