<svg width="81" height="81" viewBox="0 0 81 81" fill="none" xmlns="http://www.w3.org/2000/svg">
  <g filter="url(#filter0_d)">
  <rect x="22" y="25" width="37" height="37" rx="3" fill="url(#paint0_linear)"/>
  </g>
  <path fill-rule="evenodd" clip-rule="evenodd" d="M32.1248 43.3744C32.1248 42.8049 32.5865 42.3432 33.156 42.3432H47.5927C48.1623 42.3432 48.6239 42.8049 48.6239 43.3744C48.6239 43.944 48.1623 44.4056 47.5927 44.4056H33.156C32.5865 44.4056 32.1248 43.944 32.1248 43.3744Z" fill="#121213"/>
  <path fill-rule="evenodd" clip-rule="evenodd" d="M40.3744 51.624C39.8049 51.624 39.3432 51.1623 39.3432 50.5928V36.1561C39.3432 35.5865 39.8049 35.1249 40.3744 35.1249C40.9439 35.1249 41.4056 35.5865 41.4056 36.1561V50.5928C41.4056 51.1623 40.9439 51.624 40.3744 51.624Z" fill="#121213"/>
  <defs>
  <filter id="filter0_d" x="0" y="0" width="81" height="81" filterUnits="userSpaceOnUse" color-interpolation-filters="sRGB">
  <feFlood flood-opacity="0" result="BackgroundImageFix"/>
  <feColorMatrix in="SourceAlpha" type="matrix" values="0 0 0 0 0 0 0 0 0 0 0 0 0 0 0 0 0 0 127 0" result="hardAlpha"/>
  <feOffset dy="-3"/>
  <feGaussianBlur stdDeviation="11"/>
  <feColorMatrix type="matrix" values="0 0 0 0 0.317647 0 0 0 0 0.772549 0 0 0 0 0.917647 0 0 0 0.25 0"/>
  <feBlend mode="normal" in2="BackgroundImageFix" result="effect1_dropShadow"/>
  <feBlend mode="normal" in="SourceGraphic" in2="effect1_dropShadow" result="shape"/>
  </filter>
  <linearGradient id="paint0_linear" x1="61" y1="24.5" x2="22" y2="59.5" gradientUnits="userSpaceOnUse">
  <stop stop-color="#8CC0F1"/>
  <stop offset="1" stop-color="#A291FB"/>
  </linearGradient>
  </defs>
  </svg>
  