<svg width="14" height="12" viewBox="0 0 14 12" fill="none" xmlns="http://www.w3.org/2000/svg">
  <path d="M13.9595 10.2825C13.9019 10.0291 13.6312 9.86644 13.3546 9.9192C13.1178 9.96437 12.9537 10.1529 12.9475 10.3653C12.9465 10.4009 12.9499 10.4372 12.9582 10.4736C12.9914 10.6196 12.9519 10.7692 12.8499 10.8842C12.7908 10.9508 12.6591 11.0625 12.4408 11.0625H2.45353C2.23523 11.0625 2.10353 10.9508 2.04447 10.8842C1.94248 10.7693 1.903 10.6196 1.93616 10.4736C2.46686 8.13703 4.7152 6.43017 7.31162 6.37261C7.3566 6.3742 7.40178 6.375 7.44719 6.375C7.49275 6.375 7.53811 6.37418 7.58326 6.37259C9.4122 6.41281 11.1027 7.26197 12.1264 8.66149C12.3231 8.83333 12.6013 8.93395 12.8359 8.78979C13.0705 8.64563 13.1331 8.35444 12.9759 8.13942C12.97 8.13141 12.9641 8.12341 12.9582 8.11543C12.1197 6.98066 10.9087 6.15523 9.52915 5.73902C10.3757 5.15709 10.9245 4.22993 10.9245 3.1875C10.9245 1.42992 9.36457 0 7.44719 0C5.5298 0 3.96991 1.42992 3.96991 3.1875C3.96991 4.23056 4.51932 5.15822 5.36678 5.7401C4.59032 5.97443 3.86176 6.33905 3.22408 6.81984C2.0548 7.70149 1.24181 8.93123 0.934911 10.2825C0.838723 10.706 0.953959 11.1409 1.25101 11.4757C1.5466 11.8089 1.98492 12 2.45353 12H12.4408C12.9095 12 13.3478 11.8089 13.6433 11.4757C13.9404 11.1409 14.0556 10.706 13.9595 10.2825ZM4.99264 3.1875C4.99264 1.94684 6.09373 0.9375 7.44719 0.9375C8.80064 0.9375 9.90173 1.94684 9.90173 3.1875C9.90173 4.38996 8.86737 5.37513 7.57142 5.43464C7.53008 5.43394 7.48866 5.43359 7.44719 5.43359C7.40592 5.43359 7.36465 5.43396 7.32344 5.43466C6.02726 5.37539 4.99264 4.39013 4.99264 3.1875Z" fill="#121213"/>
  <path d="M13.3546 9.9192C13.6312 9.86644 13.9019 10.0291 13.9595 10.2825C13.8684 9.83438 13.5407 8.77353 12.9582 8.11543L12.9759 8.13942C13.1331 8.35444 13.0705 8.64563 12.8359 8.78979C12.6013 8.93395 12.3231 8.83333 12.1264 8.66149C12.3 8.89883 12.8407 9.47285 12.9475 10.3653C12.9537 10.1529 13.1178 9.96437 13.3546 9.9192Z" fill="#121213"/>
  </svg>
  