<svg width="32" height="32" viewBox="0 0 32 32" fill="none" xmlns="http://www.w3.org/2000/svg">
<mask id="path-1-inside-1" fill="white">
	<path d="M31.9189 27.4201C31.7782 26.7443 31.1164 26.3105 30.4403 26.4512C29.8616 26.5717 29.4603 27.0744 29.4453 27.6407C29.4428 27.7357 29.4512 27.8326 29.4714 27.9297C29.5525 28.319 29.4559 28.718 29.2066 29.0246C29.0623 29.2022 28.7403 29.5 28.2067 29.5H3.79329C3.25967 29.5 2.93773 29.2021 2.79335 29.0246C2.54404 28.7181 2.44754 28.319 2.5286 27.9297C3.82586 21.6987 9.3218 17.1471 15.6686 16.9936C15.7786 16.9979 15.889 17 16 17C16.1114 17 16.2222 16.9978 16.3326 16.9936C20.8034 17.1008 24.9356 19.3653 27.4381 23.0973C27.9189 23.5556 28.599 23.8239 29.1725 23.4394C29.7458 23.055 29.899 22.2785 29.5145 21.7051C29.5002 21.6838 29.4858 21.6624 29.4714 21.6411C27.4218 18.6151 24.4614 16.4139 21.0893 15.3041C23.1586 13.7523 24.5 11.2798 24.5 8.5C24.5 3.81313 20.6869 0 16 0C11.3131 0 7.49999 3.81313 7.49999 8.5C7.49999 11.2815 8.84299 13.7552 10.9146 15.3069C9.01655 15.9318 7.23561 16.9041 5.67686 18.1863C2.8186 20.5373 0.831289 23.8166 0.081101 27.4201C-0.154024 28.5493 0.127664 29.7091 0.85379 30.6019C1.57635 31.4904 2.64779 32 3.79329 32H28.2066C29.3522 32 30.4236 31.4904 31.1461 30.6019C31.8724 29.7091 32.154 28.5493 31.9189 27.4201ZM9.99999 8.5C9.99999 5.19156 12.6916 2.5 16 2.5C19.3084 2.5 22 5.19156 22 8.5C22 11.7066 19.4716 14.3337 16.3037 14.4924C16.2026 14.4905 16.1014 14.4896 16 14.4896C15.8991 14.4896 15.7982 14.4906 15.6975 14.4924C12.5291 14.3344 9.99999 11.707 9.99999 8.5Z"/>
	<path d="M30.4403 26.4512C31.1164 26.3105 31.7782 26.7443 31.9189 27.4201C31.6963 26.225 30.8952 23.3961 29.4714 21.6411L29.5145 21.7051C29.899 22.2785 29.7458 23.055 29.1725 23.4394C28.599 23.8239 27.9189 23.5556 27.4381 23.0973C27.8625 23.7302 29.1842 25.2609 29.4453 27.6407C29.4603 27.0744 29.8616 26.5717 30.4403 26.4512Z"/>
</mask>
<path d="M31.9189 27.4201C31.7782 26.7443 31.1164 26.3105 30.4403 26.4512C29.8616 26.5717 29.4603 27.0744 29.4453 27.6407C29.4428 27.7357 29.4512 27.8326 29.4714 27.9297C29.5525 28.319 29.4559 28.718 29.2066 29.0246C29.0623 29.2022 28.7403 29.5 28.2067 29.5H3.79329C3.25967 29.5 2.93773 29.2021 2.79335 29.0246C2.54404 28.7181 2.44754 28.319 2.5286 27.9297C3.82586 21.6987 9.3218 17.1471 15.6686 16.9936C15.7786 16.9979 15.889 17 16 17C16.1114 17 16.2222 16.9978 16.3326 16.9936C20.8034 17.1008 24.9356 19.3653 27.4381 23.0973C27.9189 23.5556 28.599 23.8239 29.1725 23.4394C29.7458 23.055 29.899 22.2785 29.5145 21.7051C29.5002 21.6838 29.4858 21.6624 29.4714 21.6411C27.4218 18.6151 24.4614 16.4139 21.0893 15.3041C23.1586 13.7523 24.5 11.2798 24.5 8.5C24.5 3.81313 20.6869 0 16 0C11.3131 0 7.49999 3.81313 7.49999 8.5C7.49999 11.2815 8.84299 13.7552 10.9146 15.3069C9.01655 15.9318 7.23561 16.9041 5.67686 18.1863C2.8186 20.5373 0.831289 23.8166 0.081101 27.4201C-0.154024 28.5493 0.127664 29.7091 0.85379 30.6019C1.57635 31.4904 2.64779 32 3.79329 32H28.2066C29.3522 32 30.4236 31.4904 31.1461 30.6019C31.8724 29.7091 32.154 28.5493 31.9189 27.4201ZM9.99999 8.5C9.99999 5.19156 12.6916 2.5 16 2.5C19.3084 2.5 22 5.19156 22 8.5C22 11.7066 19.4716 14.3337 16.3037 14.4924C16.2026 14.4905 16.1014 14.4896 16 14.4896C15.8991 14.4896 15.7982 14.4906 15.6975 14.4924C12.5291 14.3344 9.99999 11.707 9.99999 8.5Z" fill="#7246D0"/>
<path d="M30.4403 26.4512C31.1164 26.3105 31.7782 26.7443 31.9189 27.4201C31.6963 26.225 30.8952 23.3961 29.4714 21.6411L29.5145 21.7051C29.899 22.2785 29.7458 23.055 29.1725 23.4394C28.599 23.8239 27.9189 23.5556 27.4381 23.0973C27.8625 23.7302 29.1842 25.2609 29.4453 27.6407C29.4603 27.0744 29.8616 26.5717 30.4403 26.4512Z" fill="#7246D0"/>
<path d="M31.9189 27.4201L32.2246 28.8886L33.6931 28.5829L33.3874 27.1144L31.9189 27.4201ZM30.4403 26.4512L30.1347 24.9826L30.1346 24.9827L30.4403 26.4512ZM29.4714 27.9297L27.9751 28.0356L28.0964 29.7481L29.7771 29.3982L29.4714 27.9297ZM27.4381 23.0973L26.6027 21.8514L25.0494 22.8929L26.4032 24.1831L27.4381 23.0973ZM29.1725 23.4394L30.0077 24.6854L30.0078 24.6853L29.1725 23.4394ZM29.5145 21.7051L30.7603 20.8697L29.925 19.624L28.6792 20.4592L29.5145 21.7051ZM29.4453 27.6407L27.9458 27.601L27.9431 27.7029L27.9543 27.8043L29.4453 27.6407ZM33.3874 27.1144C33.0779 25.6275 31.6217 24.6732 30.1347 24.9826L30.7459 27.9197C30.6111 27.9478 30.4785 27.8611 30.4504 27.7258L33.3874 27.1144ZM26.4032 24.1831C27.0627 24.8117 28.5412 25.6684 30.0077 24.6854L28.3372 22.1935C28.3807 22.1643 28.4435 22.1379 28.5146 22.1277C28.5812 22.1182 28.6256 22.127 28.6382 22.1301C28.6488 22.1328 28.6346 22.1307 28.5989 22.1094C28.5638 22.0886 28.5198 22.0561 28.473 22.0115L26.4032 24.1831ZM30.0078 24.6853C31.2692 23.8395 31.6063 22.1312 30.7603 20.8697L28.2687 22.5406C28.1917 22.4258 28.2224 22.2705 28.3371 22.1936L30.0078 24.6853ZM28.2734 24.3432L30.3498 22.951L28.6792 20.4592L26.6027 21.8514L28.2734 24.3432ZM29.7771 29.3982L32.2246 28.8886L31.6132 25.9516L29.1656 26.4612L29.7771 29.3982ZM30.9448 27.6804C30.9418 27.7938 30.8637 27.8952 30.746 27.9197L30.1346 24.9827C28.8594 25.2481 27.9789 26.3549 27.9458 27.601L30.9448 27.6804ZM27.9543 27.8043C27.9626 27.8803 27.9696 27.9574 27.9751 28.0356L30.9676 27.8237C30.9594 27.7066 30.9489 27.5911 30.9364 27.4771L27.9543 27.8043ZM31.9189 27.4201L28.9696 27.9694L28.9754 28.0006L28.9819 28.0317L31.9189 27.4201ZM29.4714 27.9297L32.4084 27.3181L32.4084 27.318L29.4714 27.9297ZM29.2066 29.0246L31.5343 30.9172L31.5345 30.9169L29.2066 29.0246ZM2.79335 29.0246L0.46587 30.9175L0.466017 30.9176L2.79335 29.0246ZM2.5286 27.9297L5.46561 28.5412L5.46563 28.5412L2.5286 27.9297ZM15.6686 16.9936L15.7845 13.9959L15.6903 13.9922L15.5961 13.9945L15.6686 16.9936ZM16.3326 16.9936L16.4046 13.9944L16.3109 13.9922L16.2172 13.9958L16.3326 16.9936ZM27.4381 23.0973L29.9298 21.4266L29.9298 21.4266L27.4381 23.0973ZM29.5145 21.7051L27.0267 23.3817L32.0062 20.0344L29.5145 21.7051ZM21.0893 15.3041L19.2894 12.9039L14.6871 16.3552L20.1514 18.1537L21.0893 15.3041ZM10.9146 15.3069L11.8527 18.1565L17.3199 16.3565L12.7131 12.9058L10.9146 15.3069ZM5.67686 18.1863L3.77111 15.8693L3.77109 15.8693L5.67686 18.1863ZM0.081101 27.4201L3.01811 28.0317L3.01813 28.0316L0.081101 27.4201ZM0.85379 30.6019L3.18129 28.7091L3.18128 28.7091L0.85379 30.6019ZM31.1461 30.6019L28.8188 28.7089L28.8186 28.7092L31.1461 30.6019ZM16.3037 14.4924L16.248 17.4919L16.351 17.4938L16.4538 17.4886L16.3037 14.4924ZM15.6975 14.4924L15.548 17.4887L15.6506 17.4938L15.7533 17.4919L15.6975 14.4924ZM29.4453 27.6407L32.4443 27.7201L32.4497 27.5163L32.4274 27.3135L29.4453 27.6407ZM26.5344 28.5412C26.4326 28.0526 26.5549 27.5307 26.8787 27.1323L31.5345 30.9169C32.3569 29.9053 32.6723 28.5854 32.4084 27.3181L26.5344 28.5412ZM26.879 27.132C27.0452 26.9276 27.4942 26.5 28.2067 26.5V32.5C29.9865 32.5 31.0793 31.4768 31.5343 30.9172L26.879 27.132ZM28.2067 26.5H3.79329V32.5H28.2067V26.5ZM3.79329 26.5C4.50607 26.5 4.95492 26.9278 5.12069 27.1316L0.466017 30.9176C0.920538 31.4764 2.01327 32.5 3.79329 32.5V26.5ZM5.12084 27.1318C5.4454 27.5309 5.56726 28.0531 5.46561 28.5412L-0.408404 27.3181C-0.672177 28.5849 -0.357318 29.9052 0.46587 30.9175L5.12084 27.1318ZM5.46563 28.5412C6.47723 23.6822 10.7805 20.1127 15.7412 19.9927L15.5961 13.9945C7.86313 14.1815 1.17448 19.7153 -0.408418 27.3182L5.46563 28.5412ZM15.5527 19.9914C15.7016 19.9971 15.8507 20 16 20V14C15.9273 14 15.8555 13.9986 15.7845 13.9959L15.5527 19.9914ZM16 20C16.1507 20 16.3 19.997 16.448 19.9913L16.2172 13.9958C16.1445 13.9986 16.0721 14 16 14V20ZM16.2607 19.9927C19.7562 20.0766 22.9864 21.845 24.9464 24.7681L29.9298 21.4266C26.8849 16.8855 21.8505 14.1251 16.4046 13.9944L16.2607 19.9927ZM22.8891 17.7042C25.6788 15.6122 27.5 12.2673 27.5 8.5H21.5C21.5 10.2923 20.6385 11.8923 19.2894 12.9039L22.8891 17.7042ZM27.5 8.5C27.5 2.15628 22.3438 -3 16 -3V3C19.0301 3 21.5 5.46997 21.5 8.5H27.5ZM16 -3C9.65619 -3 4.49999 2.15628 4.49999 8.5H10.5C10.5 5.46997 12.9699 3 16 3V-3ZM4.49999 8.5C4.49999 12.2696 6.32341 15.6163 9.11603 17.708L12.7131 12.9058C11.3626 11.8942 10.5 10.2934 10.5 8.5H4.49999ZM9.9764 12.4574C7.73069 13.1967 5.6207 14.348 3.77111 15.8693L7.5826 20.5032C8.85052 19.4603 10.3024 18.6669 11.8527 18.1565L9.9764 12.4574ZM3.77109 15.8693C0.387959 18.6521 -1.96554 22.5318 -2.85593 26.8087L3.01813 28.0316C3.62812 25.1015 5.24925 22.4225 7.58263 20.5032L3.77109 15.8693ZM-2.8559 26.8086C-3.27465 28.8196 -2.77091 30.8997 -1.4737 32.4948L3.18128 28.7091C3.02624 28.5185 2.9666 28.279 3.01811 28.0317L-2.8559 26.8086ZM-1.47371 32.4948C-0.181249 34.084 1.74521 35 3.79329 35V29C3.55037 29 3.33396 28.8969 3.18129 28.7091L-1.47371 32.4948ZM3.79329 35H28.2066V29H3.79329V35ZM28.2066 35C30.2547 35 32.1813 34.0841 33.4737 32.4947L28.8186 28.7092C28.666 28.8968 28.4497 29 28.2066 29V35ZM33.4735 32.495C34.771 30.8997 35.2746 28.8195 34.8559 26.8086L28.9819 28.0317C29.0334 28.2791 28.9737 28.5184 28.8188 28.7089L33.4735 32.495ZM13 8.5C13 6.84842 14.3484 5.5 16 5.5V-0.5C11.0347 -0.5 6.99999 3.5347 6.99999 8.5H13ZM16 5.5C17.6516 5.5 19 6.84842 19 8.5H25C25 3.53471 20.9653 -0.5 16 -0.5V5.5ZM19 8.5C19 10.0993 17.7338 11.417 16.1536 11.4961L16.4538 17.4886C21.2094 17.2504 25 13.3139 25 8.5H19ZM16.3593 11.4929C16.2397 11.4907 16.1199 11.4896 16 11.4896V17.4896C16.0828 17.4896 16.1655 17.4903 16.248 17.4919L16.3593 11.4929ZM16 11.4896C15.8793 11.4896 15.7598 11.4908 15.6417 11.493L15.7533 17.4919C15.8367 17.4904 15.9189 17.4896 16 17.4896V11.4896ZM15.847 11.4962C14.2666 11.4173 13 10.0995 13 8.5H6.99999C6.99999 13.3145 10.7916 17.2514 15.548 17.4887L15.847 11.4962ZM32.0062 20.0344C31.9893 20.0091 31.9723 19.9839 31.9553 19.9588L26.9875 23.3235C26.9993 23.3409 27.0111 23.3584 27.0228 23.3758L32.0062 20.0344ZM31.9553 19.9588C29.5302 16.3784 26.0237 13.7698 22.0271 12.4544L20.1514 18.1537C22.8991 19.0581 25.3134 20.8518 26.9875 23.3235L31.9553 19.9588ZM34.8682 26.8709C34.7246 26.1002 34.4212 24.9235 33.9524 23.6813C33.4927 22.4632 32.8001 20.9824 31.8011 19.751L27.1417 23.5313C27.5665 24.0548 27.9864 24.866 28.3388 25.7998C28.6822 26.7097 28.8906 27.545 28.9696 27.9694L34.8682 26.8709ZM26.9836 23.3177L27.0267 23.3817L32.0023 20.0286L31.9592 19.9646L26.9836 23.3177ZM24.9464 24.7681C25.5542 25.6745 26.3017 26.4956 26.4632 27.9678L32.4274 27.3135C32.0668 24.0262 30.1707 21.7859 29.9298 21.4266L24.9464 24.7681ZM26.4464 27.5612C26.4378 27.8866 26.4665 28.2154 26.5344 28.5414L32.4084 27.318C32.4358 27.4498 32.4478 27.5849 32.4443 27.7201L26.4464 27.5612Z" fill="#7246D0" mask="url(#path-1-inside-1)"/>
</svg>
