<svg width="24" height="24" viewBox="0 0 24 24" fill="none" xmlns="http://www.w3.org/2000/svg">
<g clip-path="url(#clip0)">
<path d="M21.635 4.24982C21.5057 2.58034 20.1069 1.26122 18.4048 1.26122H3.24103C1.45392 1.26122 0 2.71514 0 4.50225V19.4978C0 21.2849 1.45392 22.7388 3.24103 22.7388H20.759C22.5461 22.7388 24 21.2849 24 19.4978V7.36954C24 5.88605 22.9977 4.63307 21.635 4.24982ZM3.24103 2.77527H18.4049C19.2288 2.77527 19.9193 3.35539 20.0907 4.12856H3.24103C2.6065 4.12856 2.01445 4.31256 1.51406 4.629V4.50225C1.51406 3.55 2.28878 2.77527 3.24103 2.77527ZM20.759 21.2247H3.24103C2.28878 21.2247 1.51406 20.45 1.51406 19.4978V7.36954C1.51406 6.41729 2.28878 5.64257 3.24103 5.64257H20.759C21.7113 5.64257 22.486 6.41729 22.486 7.36954V10.0115H17.6587C15.7458 10.0115 14.1895 11.5678 14.1895 13.4807C14.1895 15.3936 15.7458 16.9499 17.6587 16.9499H22.4859V19.4978C22.4859 20.45 21.7112 21.2247 20.759 21.2247ZM22.4859 15.4359H17.6587C16.5806 15.4359 15.7036 14.5588 15.7036 13.4807C15.7036 12.4026 16.5806 11.5255 17.6587 11.5255H22.4859V15.4359Z" fill="#121213" stroke="#121213" stroke-width="0.5"/>
<path d="M17.9395 14.3263C18.3748 14.3263 18.7277 13.9734 18.7277 13.5381C18.7277 13.1029 18.3748 12.75 17.9395 12.75C17.5042 12.75 17.1514 13.1029 17.1514 13.5381C17.1514 13.9734 17.5042 14.3263 17.9395 14.3263Z" fill="#121213"/>
</g>
<defs>
<clipPath id="clip0">
<rect width="24" height="24" fill="white"/>
</clipPath>
</defs>
</svg>
