<svg width="32" height="36" viewBox="0 0 32 36" fill="none" xmlns="http://www.w3.org/2000/svg">
<g clip-path="url(#clip0)">
<path d="M28.8467 6.37474C28.6742 3.87051 26.8092 1.89182 24.5398 1.89182H4.32137C1.93856 1.89182 0 4.07271 0 6.75337V29.2466C0 31.9273 1.93856 34.1082 4.32137 34.1082H27.6787C30.0615 34.1082 32.0001 31.9273 32.0001 29.2466V11.0543C32 8.82907 30.6637 6.9496 28.8467 6.37474ZM4.32137 4.16291H24.5399C25.6384 4.16291 26.5591 5.03309 26.7875 6.19284H4.32137C3.47533 6.19284 2.68594 6.46884 2.01874 6.9435V6.75337C2.01874 5.325 3.05171 4.16291 4.32137 4.16291ZM27.6786 31.8371H4.32137C3.05171 31.8371 2.01874 30.675 2.01874 29.2466V11.0543C2.01874 9.62594 3.05171 8.46385 4.32137 8.46385H27.6787C28.9484 8.46385 29.9813 9.62594 29.9813 11.0543V15.0172H23.5449C20.9944 15.0172 18.9194 17.3517 18.9194 20.2211C18.9194 23.0904 20.9944 25.4249 23.5449 25.4249H29.9813V29.2466C29.9813 30.675 28.9483 31.8371 27.6786 31.8371ZM29.9813 23.1538H23.5449C22.1075 23.1538 20.9381 21.8382 20.9381 20.2211C20.9381 18.6039 22.1075 17.2883 23.5449 17.2883H29.9813V23.1538Z" fill="#7246D0" stroke="#7246D0" stroke-width="0.5"/>
<path d="M23.9194 21.4895C24.4998 21.4895 24.9703 20.9602 24.9703 20.3072C24.9703 19.6543 24.4998 19.125 23.9194 19.125C23.339 19.125 22.8685 19.6543 22.8685 20.3072C22.8685 20.9602 23.339 21.4895 23.9194 21.4895Z" fill="#7246D0"/>
</g>
<defs>
<clipPath id="clip0">
<rect width="32" height="36" fill="#7246D0"/>
</clipPath>
</defs>
</svg>
