<svg width="35" height="32" viewBox="0 0 35 32" fill="none" xmlns="http://www.w3.org/2000/svg">
<path d="M2.34373 1L15.2833 10.7505L12.9717 4.96718L2.34373 1Z" fill="#E27625" stroke="#E27625" stroke-width="0.118897" stroke-linecap="round" stroke-linejoin="round"/>
<path d="M0.961319 23.5151L3.07915 30.7539L10.5046 28.7058L7.04366 23.3991L0.961319 23.5151Z" fill="#E27625" stroke="#E27625" stroke-width="0.118897" stroke-linecap="round" stroke-linejoin="round"/>
<path d="M10.1044 14.4343L8.03822 17.5514L15.399 17.8862L15.1537 9.96477L10.1044 14.4343Z" fill="#E27625" stroke="#E27625" stroke-width="0.118897" stroke-linecap="round" stroke-linejoin="round"/>
<path d="M10.5046 28.7058L14.9598 26.5548L11.1245 23.5665L10.5046 28.7058Z" fill="#E27625" stroke="#E27625" stroke-width="0.118897" stroke-linecap="round" stroke-linejoin="round"/>
<path d="M10.5046 28.706L14.6371 30.6638L14.6112 29.4401L14.9598 26.555L10.5046 28.706Z" fill="#D5BFB2" stroke="#D5BFB2" stroke-width="0.118897" stroke-linecap="round" stroke-linejoin="round"/>
<path d="M14.7144 21.6603L11.0211 20.5784L13.6297 19.3805L14.7144 21.6603Z" fill="#233447" stroke="#233447" stroke-width="0.118897" stroke-linecap="round" stroke-linejoin="round"/>
<path d="M10.5049 28.7058L11.1507 23.3991L7.0441 23.5151L10.5049 28.7058Z" fill="#CC6228" stroke="#CC6228" stroke-width="0.118897" stroke-linecap="round" stroke-linejoin="round"/>
<path d="M11.0213 20.5783L13.6298 19.3804L14.7146 21.6603L15.399 17.8862L8.03822 17.5513L11.0213 20.5783Z" fill="#CC6228" stroke="#CC6228" stroke-width="0.118897" stroke-linecap="round" stroke-linejoin="round"/>
<path d="M8.0387 17.5513L11.1251 23.5666L11.0217 20.5783L8.0387 17.5513Z" fill="#E27525" stroke="#E27525" stroke-width="0.118897" stroke-linecap="round" stroke-linejoin="round"/>
<path d="M15.3993 17.8863L14.7148 21.6603L15.58 26.1169L15.7737 20.2434L15.3993 17.8863Z" fill="#E27525" stroke="#E27525" stroke-width="0.118897" stroke-linecap="round" stroke-linejoin="round"/>
<path d="M11.0211 20.5784L11.1245 23.5666L14.9598 26.5549L15.5797 26.1169L14.7144 21.6604L11.0211 20.5784Z" fill="#F5841F" stroke="#F5841F" stroke-width="0.118897" stroke-linecap="round" stroke-linejoin="round"/>
<path d="M0.690552 5.95898L1.80113 11.2915L1.09088 11.8196L2.1498 12.6182L1.34915 13.2365L2.39516 14.1896L1.73656 14.6662L3.24746 16.4308L10.1047 14.4343L14.9602 10.3384L2.34351 1L0.690552 5.95898Z" fill="#763E1A" stroke="#763E1A" stroke-width="0.118897" stroke-linecap="round" stroke-linejoin="round"/>
<path d="M10.1042 14.4343L3.24704 16.4307L0.961319 23.515H7.04366L11.1243 23.5665L8.03802 17.5514L10.1042 14.4343Z" fill="#F5841F" stroke="#F5841F" stroke-width="0.118897" stroke-linecap="round" stroke-linejoin="round"/>
<path d="M32.4584 1L19.4026 10.6603L21.8305 4.96719L32.4584 1Z" fill="#E17726" stroke="#E17726" stroke-width="0.118897" stroke-linecap="round" stroke-linejoin="round"/>
<path d="M27.7569 23.3991L24.2832 28.7058L31.7215 30.7539L33.8523 23.5151L27.7569 23.3991Z" fill="#E27625" stroke="#E27625" stroke-width="0.118897" stroke-linecap="round" stroke-linejoin="round"/>
<path d="M24.6972 14.4344L19.5705 9.87475L19.4026 17.8864L26.7634 17.5515L24.6972 14.4344Z" fill="#E27625" stroke="#E27625" stroke-width="0.118897" stroke-linecap="round" stroke-linejoin="round"/>
<path d="M19.8413 26.5548L24.2835 28.7058L23.6766 23.5665L19.8413 26.5548Z" fill="#E27625" stroke="#E27625" stroke-width="0.118897" stroke-linecap="round" stroke-linejoin="round"/>
<path d="M24.2835 28.706L19.8413 26.555L20.2028 29.4401L20.164 30.6638L24.2835 28.706Z" fill="#D5BFB2" stroke="#D5BFB2" stroke-width="0.118897" stroke-linecap="round" stroke-linejoin="round"/>
<path d="M20.0867 21.6603L21.1715 19.3805L23.793 20.5784L20.0867 21.6603Z" fill="#233447" stroke="#233447" stroke-width="0.118897" stroke-linecap="round" stroke-linejoin="round"/>
<path d="M23.6508 23.3991L24.2837 28.7058L27.7574 23.5151L23.6508 23.3991Z" fill="#CC6228" stroke="#CC6228" stroke-width="0.118897" stroke-linecap="round" stroke-linejoin="round"/>
<path d="M26.7634 17.5513L19.4026 17.8862L20.087 21.6603L21.1718 19.3804L23.7933 20.5783L26.7634 17.5513Z" fill="#CC6228" stroke="#CC6228" stroke-width="0.118897" stroke-linecap="round" stroke-linejoin="round"/>
<path d="M23.7933 20.5783L23.6771 23.5666L26.7635 17.5513L23.7933 20.5783Z" fill="#E27525" stroke="#E27525" stroke-width="0.118897" stroke-linecap="round" stroke-linejoin="round"/>
<path d="M19.4022 17.8863L19.0406 20.2306L19.2214 26.1169L20.0866 21.6603L19.4022 17.8863Z" fill="#E27525" stroke="#E27525" stroke-width="0.118897" stroke-linecap="round" stroke-linejoin="round"/>
<path d="M20.0867 21.6604L19.2215 26.1169L19.8414 26.5549L23.6768 23.5666L23.793 20.5784L20.0867 21.6604Z" fill="#F5841F" stroke="#F5841F" stroke-width="0.118897" stroke-linecap="round" stroke-linejoin="round"/>
<path d="M20.1641 30.6637L20.2028 29.4401L19.8671 29.1567H14.9341L14.6112 29.4401L14.6371 30.6637L10.5046 28.7059L11.951 29.8909L14.8824 31.9131H19.9057L22.8501 29.8909L24.2835 28.7059L20.1641 30.6637Z" fill="#C0AC9D" stroke="#C0AC9D" stroke-width="0.118897" stroke-linecap="round" stroke-linejoin="round"/>
<path d="M19.8415 26.5548L19.2216 26.1169H15.5799L14.9602 26.5548L14.6115 29.4401L14.9343 29.1567H19.8673L20.2031 29.4401L19.8415 26.5548Z" fill="#161616" stroke="#161616" stroke-width="0.118897" stroke-linecap="round" stroke-linejoin="round"/>
<path d="M33.0132 11.2915L34.1109 5.95898L32.4579 1L19.8413 10.3384L24.6968 14.4343L31.5539 16.4308L33.0649 14.6662L32.4063 14.1896L33.4522 13.2365L32.6516 12.6182L33.6977 11.8196L33.0132 11.2915Z" fill="#763E1A" stroke="#763E1A" stroke-width="0.118897" stroke-linecap="round" stroke-linejoin="round"/>
<path d="M31.5544 16.4307L24.6973 14.4343L26.7635 17.5514L23.6771 23.5665L27.7578 23.515H33.8531L31.5544 16.4307Z" fill="#F5841F" stroke="#F5841F" stroke-width="0.118897" stroke-linecap="round" stroke-linejoin="round"/>
<path d="M19.4025 17.8863L19.8416 10.3383L21.8303 4.96716H12.9715L14.9602 10.3383L15.3992 17.8863L15.5671 20.2563L15.5801 26.1169H19.2217L19.2346 20.2563L19.4025 17.8863Z" fill="#F5841F" stroke="#F5841F" stroke-width="0.118897" stroke-linecap="round" stroke-linejoin="round"/>
</svg>
