<svg width="26" height="26" viewBox="0 0 26 26" fill="none" xmlns="http://www.w3.org/2000/svg">
<path d="M24.0519 17.6676C23.2885 19.4729 22.0945 21.0638 20.5743 22.301C19.054 23.5383 17.2538 24.3843 15.3311 24.7652C13.4083 25.146 11.4215 25.05 9.54445 24.4856C7.66736 23.9212 5.95711 22.9055 4.56322 21.5275C3.16933 20.1494 2.13423 18.4509 1.54843 16.5804C0.962632 14.7098 0.843961 12.7243 1.2028 10.7973C1.56163 8.87034 2.38705 7.0606 3.60688 5.52632C4.82671 3.99204 6.40381 2.77993 8.20031 1.99597" stroke="#7246D0" stroke-width="0.5" stroke-linecap="round" stroke-linejoin="round"/>
<path d="M24.9992 12.9997C24.9992 11.4239 24.6888 9.86349 24.0858 8.40762C23.4828 6.95175 22.5989 5.62891 21.4846 4.51463C20.3703 3.40036 19.0475 2.51647 17.5916 1.91342C16.1357 1.31038 14.5753 1 12.9995 1V12.9997H24.9992Z" stroke="#7246D0" stroke-width="0.5" stroke-linecap="round" stroke-linejoin="round"/>
</svg>
