<svg width="26" height="28" viewBox="0 0 26 28" fill="none" xmlns="http://www.w3.org/2000/svg">
<path fill-rule="evenodd" clip-rule="evenodd" d="M12.43 1.25278C12.8633 0.915741 13.4701 0.915741 13.9034 1.25278L24.7034 9.65278C24.9957 9.88013 25.1667 10.2297 25.1667 10.6V23.8C25.1667 24.7548 24.7874 25.6705 24.1123 26.3456C23.4371 27.0207 22.5215 27.4 21.5667 27.4H4.76669C3.81191 27.4 2.89623 27.0207 2.2211 26.3456C1.54597 25.6705 1.16669 24.7548 1.16669 23.8V10.6C1.16669 10.2297 1.33765 9.88013 1.62996 9.65278L12.43 1.25278ZM3.56669 11.1869V23.8C3.56669 24.1183 3.69312 24.4235 3.91816 24.6485C4.1432 24.8736 4.44843 25 4.76669 25H21.5667C21.8849 25 22.1902 24.8736 22.4152 24.6485C22.6403 24.4235 22.7667 24.1183 22.7667 23.8V11.1869L13.1667 3.72023L3.56669 11.1869Z" fill="#7246D0"/>
<path fill-rule="evenodd" clip-rule="evenodd" d="M8.36669 11.8C8.36669 11.1373 8.90395 10.6 9.56669 10.6H16.7667C17.4294 10.6 17.9667 11.1373 17.9667 11.8V23.8C17.9667 24.4627 17.4294 25 16.7667 25C16.1039 25 15.5667 24.4627 15.5667 23.8V13H10.7667V23.8C10.7667 24.4627 10.2294 25 9.56669 25C8.90395 25 8.36669 24.4627 8.36669 23.8V11.8Z" fill="#7246D0"/>
<path fill-rule="evenodd" clip-rule="evenodd" d="M12.43 1.25278C12.8633 0.915741 13.4701 0.915741 13.9034 1.25278L24.7034 9.65278C24.9957 9.88013 25.1667 10.2297 25.1667 10.6V23.8C25.1667 24.7548 24.7874 25.6705 24.1123 26.3456C23.4371 27.0207 22.5215 27.4 21.5667 27.4H4.76669C3.81191 27.4 2.89623 27.0207 2.2211 26.3456C1.54597 25.6705 1.16669 24.7548 1.16669 23.8V10.6C1.16669 10.2297 1.33765 9.88013 1.62996 9.65278L12.43 1.25278ZM3.56669 11.1869V23.8C3.56669 24.1183 3.69312 24.4235 3.91816 24.6485C4.1432 24.8736 4.44843 25 4.76669 25H21.5667C21.8849 25 22.1902 24.8736 22.4152 24.6485C22.6403 24.4235 22.7667 24.1183 22.7667 23.8V11.1869L13.1667 3.72023L3.56669 11.1869Z" stroke="white" stroke-linecap="round" stroke-linejoin="round"/>
<path fill-rule="evenodd" clip-rule="evenodd" d="M8.36669 11.8C8.36669 11.1373 8.90395 10.6 9.56669 10.6H16.7667C17.4294 10.6 17.9667 11.1373 17.9667 11.8V23.8C17.9667 24.4627 17.4294 25 16.7667 25C16.1039 25 15.5667 24.4627 15.5667 23.8V13H10.7667V23.8C10.7667 24.4627 10.2294 25 9.56669 25C8.90395 25 8.36669 24.4627 8.36669 23.8V11.8Z" stroke="white" stroke-linecap="round" stroke-linejoin="round"/>
</svg>
