<svg width="24" height="26" viewBox="0 0 24 26" fill="none" xmlns="http://www.w3.org/2000/svg">
<path fill-rule="evenodd" clip-rule="evenodd" d="M11.3349 1.31158C11.7261 1.00731 12.2739 1.00731 12.6651 1.31158L22.4151 8.89491C22.679 9.10015 22.8334 9.41573 22.8334 9.75004V21.6667C22.8334 22.5287 22.4909 23.3553 21.8814 23.9648C21.272 24.5743 20.4453 24.9167 19.5834 24.9167H4.41669C3.55473 24.9167 2.72808 24.5743 2.11859 23.9648C1.5091 23.3553 1.16669 22.5287 1.16669 21.6667V9.75004C1.16669 9.41573 1.32103 9.10015 1.58492 8.89491L11.3349 1.31158ZM3.33335 10.2799V21.6667C3.33335 21.954 3.44749 22.2296 3.65065 22.4327C3.85382 22.6359 4.12937 22.75 4.41669 22.75H19.5834C19.8707 22.75 20.1462 22.6359 20.3494 22.4327C20.5525 22.2296 20.6667 21.954 20.6667 21.6667V10.2799L12 3.53914L3.33335 10.2799Z" fill="#7246D0"/>
<path fill-rule="evenodd" clip-rule="evenodd" d="M7.66669 13C7.66669 12.4017 8.15171 11.9167 8.75002 11.9167H15.25C15.8483 11.9167 16.3334 12.4017 16.3334 13V23.8334C16.3334 24.4317 15.8483 24.9167 15.25 24.9167C14.6517 24.9167 14.1667 24.4317 14.1667 23.8334V14.0834H9.83335V23.8334C9.83335 24.4317 9.34833 24.9167 8.75002 24.9167C8.15171 24.9167 7.66669 24.4317 7.66669 23.8334V13Z" fill="#7246D0"/>
<path fill-rule="evenodd" clip-rule="evenodd" d="M11.3349 1.31158C11.7261 1.00731 12.2739 1.00731 12.6651 1.31158L22.4151 8.89491C22.679 9.10015 22.8334 9.41573 22.8334 9.75004V21.6667C22.8334 22.5287 22.4909 23.3553 21.8814 23.9648C21.272 24.5743 20.4453 24.9167 19.5834 24.9167H4.41669C3.55473 24.9167 2.72808 24.5743 2.11859 23.9648C1.5091 23.3553 1.16669 22.5287 1.16669 21.6667V9.75004C1.16669 9.41573 1.32103 9.10015 1.58492 8.89491L11.3349 1.31158ZM3.33335 10.2799V21.6667C3.33335 21.954 3.44749 22.2296 3.65065 22.4327C3.85382 22.6359 4.12937 22.75 4.41669 22.75H19.5834C19.8707 22.75 20.1462 22.6359 20.3494 22.4327C20.5525 22.2296 20.6667 21.954 20.6667 21.6667V10.2799L12 3.53914L3.33335 10.2799Z" stroke="#7246D0" stroke-linecap="round" stroke-linejoin="round"/>
<path fill-rule="evenodd" clip-rule="evenodd" d="M7.66669 13C7.66669 12.4017 8.15171 11.9167 8.75002 11.9167H15.25C15.8483 11.9167 16.3334 12.4017 16.3334 13V23.8334C16.3334 24.4317 15.8483 24.9167 15.25 24.9167C14.6517 24.9167 14.1667 24.4317 14.1667 23.8334V14.0834H9.83335V23.8334C9.83335 24.4317 9.34833 24.9167 8.75002 24.9167C8.15171 24.9167 7.66669 24.4317 7.66669 23.8334V13Z" stroke="#7246D0" stroke-linecap="round" stroke-linejoin="round"/>
</svg>
