<svg width="26" height="22" viewBox="0 0 26 22" fill="none" xmlns="http://www.w3.org/2000/svg">
<path d="M25 10.6H17.8L15.4 14.2H10.6L8.2 10.6H1" stroke="#7246D0" stroke-width="2" stroke-linecap="round" stroke-linejoin="round"/>
<path d="M5.14 2.332L1 10.6V17.8C1 18.4365 1.25286 19.047 1.70294 19.4971C2.15303 19.9471 2.76348 20.2 3.4 20.2H22.6C23.2365 20.2 23.847 19.9471 24.2971 19.4971C24.7471 19.047 25 18.4365 25 17.8V10.6L20.86 2.332C20.6613 1.93214 20.355 1.59565 19.9755 1.36034C19.5961 1.12503 19.1585 1.00024 18.712 1H7.288C6.8415 1.00024 6.40392 1.12503 6.02445 1.36034C5.64499 1.59565 5.33869 1.93214 5.14 2.332V2.332Z" stroke="#7246D0" stroke-width="2" stroke-linecap="round" stroke-linejoin="round"/>
</svg>
