<svg width="26" height="21" viewBox="0 0 26 21" fill="none" xmlns="http://www.w3.org/2000/svg">
<path fill-rule="evenodd" clip-rule="evenodd" d="M1.17383 10.8182C1.17383 10.2157 1.66224 9.72729 2.26474 9.72729H8.81019C9.17494 9.72729 9.51556 9.90959 9.71788 10.2131L11.5758 13H14.7718L16.6298 10.2131C16.8321 9.90959 17.1727 9.72729 17.5375 9.72729H24.0829C24.6854 9.72729 25.1738 10.2157 25.1738 10.8182C25.1738 11.4207 24.6854 11.9091 24.0829 11.9091H18.1213L16.2633 14.6961C16.061 14.9995 15.7204 15.1818 15.3556 15.1818H10.992C10.6273 15.1818 10.2866 14.9995 10.0843 14.6961L8.22636 11.9091H2.26474C1.66224 11.9091 1.17383 11.4207 1.17383 10.8182Z" fill="#7246D0" stroke="#7246D0" stroke-width="0.441164" stroke-linecap="round" stroke-linejoin="round"/>
<path fill-rule="evenodd" clip-rule="evenodd" d="M7.9811 1L18.3666 1C18.9754 1.00032 19.5727 1.17049 20.0902 1.49137C20.6071 1.81196 21.0245 2.2703 21.2955 2.81492C21.2957 2.8154 21.296 2.81588 21.2962 2.81636L25.0584 10.3297C25.1343 10.4814 25.1738 10.6486 25.1738 10.8182V17.3636C25.1738 18.2316 24.829 19.064 24.2153 19.6778C23.6015 20.2916 22.7691 20.6364 21.9011 20.6364H4.44656C3.57857 20.6364 2.74614 20.2916 2.13239 19.6778C1.51863 19.064 1.17383 18.2316 1.17383 17.3636V10.8182C1.17383 10.6486 1.21336 10.4814 1.28928 10.3297L5.05143 2.81636C5.0517 2.81583 5.05196 2.8153 5.05222 2.81477C5.32319 2.27021 5.74056 1.81193 6.2575 1.49137C6.77495 1.17049 7.37224 1.00032 7.9811 1ZM6.02837 3.30182L7.00383 3.79025L3.35565 11.076V17.3636C3.35565 17.653 3.47058 17.9304 3.67517 18.135C3.87975 18.3396 4.15723 18.4545 4.44656 18.4545H21.9011C22.1904 18.4545 22.4679 18.3396 22.6725 18.135C22.8771 17.9304 22.992 17.653 22.992 17.3636V11.076L19.3438 3.79025L19.3423 3.78727C19.252 3.60552 19.1128 3.45256 18.9403 3.34561C18.7679 3.23868 18.5691 3.18196 18.3662 3.18182H7.98147C7.77859 3.18196 7.57977 3.23868 7.40734 3.34561C7.23486 3.45257 7.09563 3.60552 7.00532 3.78727L6.02837 3.30182Z" fill="#7246D0" stroke="#7246D0" stroke-width="0.441164" stroke-linecap="round" stroke-linejoin="round"/>
</svg>
