<svg width="25" height="24" viewBox="0 0 25 24" fill="none" xmlns="http://www.w3.org/2000/svg">
<g clip-path="url(#clip0)">
<path fill-rule="evenodd" clip-rule="evenodd" d="M1.17383 12C1.17383 11.4477 1.62154 11 2.17383 11H8.17383C8.50818 11 8.82041 11.1671 9.00588 11.4453L10.709 14H13.6386L15.3418 11.4453C15.5272 11.1671 15.8395 11 16.1738 11H22.1738C22.7261 11 23.1738 11.4477 23.1738 12C23.1738 12.5523 22.7261 13 22.1738 13H16.709L15.0059 15.5547C14.8204 15.8329 14.5082 16 14.1738 16H10.1738C9.83948 16 9.52724 15.8329 9.34178 15.5547L7.63864 13H2.17383C1.62154 13 1.17383 12.5523 1.17383 12Z" fill="#7246D0" stroke="white" stroke-width="0.882327" stroke-linecap="round" stroke-linejoin="round"/>
<path fill-rule="evenodd" clip-rule="evenodd" d="M7.41383 3L16.9338 3C17.492 3.0003 18.0395 3.15628 18.5138 3.45042C18.9877 3.7443 19.3703 4.16444 19.6187 4.66368C19.6189 4.66412 19.6191 4.66456 19.6194 4.665L23.068 11.5523C23.1376 11.6913 23.1738 11.8446 23.1738 12V18C23.1738 18.7956 22.8578 19.5587 22.2951 20.1213C21.7325 20.6839 20.9695 21 20.1738 21H4.17383C3.37818 21 2.61512 20.6839 2.05251 20.1213C1.4899 19.5587 1.17383 18.7956 1.17383 18V12C1.17383 11.8446 1.21006 11.6913 1.27966 11.5523L4.7283 4.665C4.72854 4.66451 4.72878 4.66402 4.72902 4.66354C4.97741 4.16436 5.36 3.74427 5.83386 3.45042C6.30819 3.15628 6.8557 3.0003 7.41383 3ZM5.62383 5.11L6.518 5.55773L3.17383 12.2364V18C3.17383 18.2652 3.27918 18.5196 3.46672 18.7071C3.65426 18.8946 3.90861 19 4.17383 19H20.1738C20.439 19 20.6934 18.8946 20.8809 18.7071C21.0685 18.5196 21.1738 18.2652 21.1738 18V12.2364L17.8297 5.55773L17.8283 5.555C17.7455 5.38839 17.6179 5.24818 17.4598 5.15014C17.3017 5.05213 17.1195 5.00013 16.9335 5H7.41417C7.22819 5.00013 7.04594 5.05213 6.88788 5.15014C6.72977 5.24819 6.60215 5.38839 6.51936 5.555L5.62383 5.11Z" fill="#7246D0" stroke="white" stroke-width="0.882327" stroke-linecap="round" stroke-linejoin="round"/>
</g>
<defs>
<clipPath id="clip0">
<rect width="24" height="24" fill="white" transform="translate(0.173828)"/>
</clipPath>
</defs>
</svg>
