<svg width="26" height="26" viewBox="0 0 26 26" fill="none" xmlns="http://www.w3.org/2000/svg">
<circle cx="13" cy="13" r="12" stroke="#7246D0" stroke-width="2"/>
<path d="M16.0451 11.2323C16.0675 11.116 16.0791 10.9947 16.0769 10.8674C16.0472 9.32851 14.6159 8.62352 13.3524 8.00192C13.055 7.85543 12.7703 7.71443 12.5086 7.56795L12.4685 7.54546H12.1212H11.2456V12.7273C9.38192 13.328 7.57363 13.9985 7.5451 15.5061C7.51382 17.1427 11.69 18.4506 11.69 18.4506H12.5086C12.5261 17.7582 13.9816 17.0796 15.266 16.6286C17.0348 16.0076 18.8639 15.3651 18.8233 13.7675C18.7888 12.4266 17.393 11.7419 16.0451 11.2323ZM12.7944 9.13484C14.0052 9.73121 14.8002 10.1756 14.8139 10.8921C14.8243 11.4424 13.6618 11.9274 12.5086 12.3186V8.9933C12.604 9.04103 12.6995 9.08821 12.7944 9.13484ZM8.8075 15.5308C8.81847 14.9531 10.0589 14.4544 11.2456 14.0572V16.9847C10.0414 16.5875 8.79653 16.0926 8.8075 15.5308ZM14.8474 15.4381C14.0157 15.7299 13.1708 16.0273 12.508 16.4262V13.6495C13.613 13.2913 14.6844 12.9023 15.3598 12.3257C16.3781 12.6993 17.5445 13.187 17.5604 13.801C17.5779 14.4791 16.1273 14.9882 14.8474 15.4381Z" fill="#7246D0"/>
</svg>
