<svg width="24" height="24" viewBox="0 0 24 24" fill="none" xmlns="http://www.w3.org/2000/svg">
	<circle cx="12" cy="12" r="11.75" stroke="#7246D0" stroke-width="0.5" />
	<path d="M10.8501 17.22C9.33013 16.74 6.98013 15.62 7.00013 14.62C7.00013 13.37 8.65013 12.74 10.4601 12.16L10.7001 12.08V7H11.4901L12.3101 7.42C13.5501 8.02 14.8201 8.65 14.8501 9.98C14.86 10.0798 14.86 10.1802 14.8501 10.28L14.8001 10.56L15.0601 10.66C16.3801 11.16 17.6001 11.77 17.6201 12.89C17.6201 14.24 16.0201 14.81 14.2901 15.42C12.1301 16.18 11.5401 16.82 11.3701 17.22H10.8501ZM10.2501 12.84C8.65013 13.38 7.64013 13.84 7.69013 14.52C7.76013 15.41 8.80013 15.78 10.2501 16.42L10.7001 16.57V12.69L10.2501 12.84ZM14.2501 11.18C13.4173 11.7567 12.49 12.1831 11.5101 12.44L11.2801 12.51V16.11L11.7901 15.8C12.515 15.3916 13.2787 15.0566 14.0701 14.8C15.5901 14.26 17.0701 13.8 17.0101 12.8C16.9501 11.8 15.7501 11.54 14.5901 11.11L14.4001 11.04L14.2501 11.18ZM11.2501 11.9L11.7001 11.75C13.2301 11.23 14.2501 10.75 14.2301 10C14.2301 9 13.1501 8.49 12.0201 7.94L11.2501 7.55V11.9Z" fill="#7246D0" />
</svg>
