<svg width="32" height="34" viewBox="0 0 32 34" fill="none" xmlns="http://www.w3.org/2000/svg">
<path fill-rule="evenodd" clip-rule="evenodd" d="M16 4.19353C13.8783 4.19353 11.8435 5.07716 10.3432 6.65005C8.8429 8.22294 8.00004 10.3562 8.00004 12.5806V19.5699C8.00004 20.5599 7.74961 21.5228 7.28553 22.3656H24.7146C24.2505 21.5228 24 20.5599 24 19.5699V12.5806C24 10.3562 23.1572 8.22294 21.6569 6.65005C20.1566 5.07716 18.1218 4.19353 16 4.19353ZM29.3334 22.3656C28.6261 22.3656 27.9479 22.071 27.4478 21.5467C26.9477 21.0224 26.6667 20.3113 26.6667 19.5699V12.5806C26.6667 9.61476 25.5429 6.77037 23.5425 4.67319C21.5421 2.57601 18.829 1.39783 16 1.39783C13.1711 1.39783 10.458 2.57601 8.45757 4.67319C6.45718 6.77037 5.33337 9.61476 5.33337 12.5806V19.5699C5.33337 20.3113 5.05242 21.0224 4.55233 21.5467C4.05223 22.071 3.37395 22.3656 2.66671 22.3656C1.93033 22.3656 1.33337 22.9914 1.33337 23.7634C1.33337 24.5354 1.93033 25.1613 2.66671 25.1613H29.3334V22.3656ZM13.0243 28.1457C13.6613 27.7583 14.4772 27.9856 14.8467 28.6534C14.9639 28.8652 15.1321 29.0411 15.3346 29.1633C15.537 29.2855 15.7665 29.3499 16 29.3499C16.2336 29.3499 16.4631 29.2855 16.6655 29.1633C16.8679 29.0411 17.0362 28.8652 17.1534 28.6534C17.5229 27.9856 18.3388 27.7583 18.9757 28.1457C19.6127 28.5331 19.8295 29.3884 19.46 30.0562C19.1084 30.6917 18.6037 31.2192 17.9965 31.5859C17.3893 31.9526 16.7008 32.1456 16 32.1456C15.2993 32.1456 14.6108 31.9526 14.0036 31.5859C13.3964 31.2192 12.8917 30.6917 12.54 30.0562C12.1705 29.3884 12.3874 28.5331 13.0243 28.1457Z" fill="#7246D0"/>
</svg>
