<svg width="23" height="23" viewBox="0 0 23 23" fill="none" xmlns="http://www.w3.org/2000/svg">
<path fill-rule="evenodd" clip-rule="evenodd" d="M13.42 3.07C13.42 1.92677 12.4932 1 11.35 1C10.2067 1 9.27998 1.92677 9.27998 3.07V9.28003H3.07C1.92677 9.28003 1 10.2068 1 11.35C1 12.4933 1.92677 13.42 3.07 13.42H9.27998V19.63C9.27998 20.7732 10.2067 21.7 11.35 21.7C12.4932 21.7 13.42 20.7732 13.42 19.63V13.42H19.63C20.7732 13.42 21.7 12.4933 21.7 11.35C21.7 10.2068 20.7732 9.28003 19.63 9.28003H13.42V3.07Z" fill="#581D9F"/>
<path d="M9.27998 9.28003V10.06C9.71076 10.06 10.06 9.71081 10.06 9.28003H9.27998ZM9.27998 13.42H10.06C10.06 12.9892 9.71076 12.64 9.27998 12.64V13.42ZM13.42 13.42V12.64C12.9892 12.64 12.64 12.9892 12.64 13.42H13.42ZM13.42 9.28003H12.64C12.64 9.71081 12.9892 10.06 13.42 10.06V9.28003ZM11.35 1.78C12.0624 1.78 12.64 2.35755 12.64 3.07H14.2C14.2 1.49599 12.924 0.22 11.35 0.22V1.78ZM10.06 3.07C10.06 2.35755 10.6375 1.78 11.35 1.78V0.22C9.77597 0.22 8.49998 1.49599 8.49998 3.07H10.06ZM10.06 9.28003V3.07H8.49998V9.28003H10.06ZM3.07 10.06H9.27998V8.50003H3.07V10.06ZM1.78 11.35C1.78 10.6376 2.35755 10.06 3.07 10.06V8.50003C1.49599 8.50003 0.22 9.77601 0.22 11.35H1.78ZM3.07 12.64C2.35755 12.64 1.78 12.0625 1.78 11.35H0.22C0.22 12.924 1.49599 14.2 3.07 14.2V12.64ZM9.27998 12.64H3.07V14.2H9.27998V12.64ZM10.06 19.63V13.42H8.49998V19.63H10.06ZM11.35 20.92C10.6375 20.92 10.06 20.3424 10.06 19.63H8.49998C8.49998 21.204 9.77597 22.48 11.35 22.48V20.92ZM12.64 19.63C12.64 20.3424 12.0624 20.92 11.35 20.92V22.48C12.924 22.48 14.2 21.204 14.2 19.63H12.64ZM12.64 13.42V19.63H14.2V13.42H12.64ZM19.63 12.64H13.42V14.2H19.63V12.64ZM20.92 11.35C20.92 12.0625 20.3424 12.64 19.63 12.64V14.2C21.204 14.2 22.48 12.924 22.48 11.35H20.92ZM19.63 10.06C20.3424 10.06 20.92 10.6376 20.92 11.35H22.48C22.48 9.77601 21.204 8.50003 19.63 8.50003V10.06ZM13.42 10.06H19.63V8.50003H13.42V10.06ZM12.64 3.07V9.28003H14.2V3.07H12.64Z" fill="white"/>
</svg>
