<svg width="25" height="24" viewBox="0 0 25 24" fill="none" xmlns="http://www.w3.org/2000/svg">
<path d="M22.9654 19.9673C22.7559 19.1051 22.3827 18.4206 22.0614 17.9269C22.3018 17.9633 22.554 17.9238 22.7942 17.7628L22.7942 17.7628C23.0215 17.6103 23.1776 17.3913 23.2538 17.149C23.5259 17.6192 23.7563 18.1338 23.9448 18.6333C24.0875 19.0113 24.2049 19.3773 24.2976 19.7041C24.0801 19.6038 23.8298 19.5699 23.5773 19.6224C23.3331 19.6733 23.123 19.7975 22.9654 19.9673ZM22.5485 17.3964C22.2547 17.5933 21.8703 17.4857 21.5398 17.1793C19.6216 14.3332 16.4632 12.6066 13.0467 12.5247L13.0468 12.5242L13.033 12.5248C12.953 12.5278 12.8726 12.5294 12.792 12.5294C12.7116 12.5294 12.6316 12.5279 12.552 12.5248L12.552 12.5244L12.5381 12.5247C7.67609 12.6423 3.46644 16.1282 2.47249 20.9023C2.39826 21.2588 2.48669 21.6258 2.71587 21.9076L2.71589 21.9077C2.84697 22.0688 3.1451 22.3456 3.63696 22.3456H21.947C22.4389 22.3456 22.737 22.0689 22.8681 21.9076L22.8681 21.9076C23.0972 21.6258 23.1857 21.2588 23.1115 20.9023L22.8955 20.9473L23.1115 20.9023C23.0998 20.8463 23.095 20.7907 23.0965 20.7364C23.1051 20.4116 23.3355 20.1234 23.6672 20.0543C24.055 19.9736 24.4345 20.2225 24.5152 20.6101C24.6781 21.3921 24.4832 22.1943 23.9805 22.8123L23.9805 22.8123C23.4805 23.4271 22.7398 23.7794 21.947 23.7794H3.63696C2.8442 23.7794 2.10349 23.4271 1.60347 22.8123C1.10086 22.1943 0.905925 21.3921 1.06877 20.6101L0.85286 20.5651L1.06877 20.6101C1.6211 17.9569 3.08466 15.5416 5.18976 13.81C6.33744 12.866 7.64895 12.15 9.04689 11.6897L9.44887 11.5574L9.11015 11.3037C7.60949 10.1796 6.63756 8.38847 6.63756 6.375C6.63756 2.98167 9.39861 0.220582 12.792 0.220582C16.1854 0.220582 18.9464 2.98167 18.9464 6.375C18.9464 8.38725 17.9757 10.1774 16.4766 11.3016L16.1382 11.5553L16.54 11.6876C19.0232 12.5049 21.2033 14.1258 22.7129 16.3545L22.7447 16.4017C22.7447 16.4017 22.7447 16.4018 22.7448 16.4018C22.9652 16.7307 22.8773 17.1759 22.5485 17.3964ZM13.0157 11.0898L13.0232 11.09L13.0308 11.0896C15.5234 10.9647 17.5126 8.8981 17.5126 6.375C17.5126 3.77185 15.3951 1.65442 12.792 1.65442C10.1888 1.65442 8.0714 3.77185 8.0714 6.375C8.0714 8.89844 10.061 10.9653 12.5541 11.0896L12.5617 11.09L12.5692 11.0899C12.6435 11.0885 12.7178 11.0878 12.792 11.0878C12.8667 11.0878 12.9412 11.0884 13.0157 11.0898Z" fill="#7246D0" stroke="white" stroke-width="0.441164"/>
</svg>
