<svg width="32" height="34" viewBox="0 0 32 34" fill="none" xmlns="http://www.w3.org/2000/svg">
<path d="M15.9998 25.1611C16.7362 25.1611 17.3332 24.5353 17.3332 23.7633C17.3332 22.9913 16.7362 22.3654 15.9998 22.3654C15.2635 22.3654 14.6665 22.9913 14.6665 23.7633C14.6665 24.5353 15.2635 25.1611 15.9998 25.1611Z" fill="#7246D0"/>
<path fill-rule="evenodd" clip-rule="evenodd" d="M16.4744 11.9654C15.827 11.9952 15.4817 12.2683 15.3622 12.5345C15.0486 13.233 14.2543 13.5327 13.588 13.204C12.9217 12.8752 12.6358 12.0425 12.9494 11.3439C13.6457 9.79303 15.1456 9.22812 16.3575 9.17235C17.5232 9.11871 18.974 9.508 19.7766 10.6053C20.3942 11.4496 20.7412 12.52 20.6011 13.6454C20.459 14.7865 19.8382 15.8101 18.8308 16.5871C17.4855 17.6247 17.4879 18.154 17.4882 18.2311C17.4882 18.2322 17.4883 18.2333 17.4883 18.2342C17.4883 19.0062 16.8913 19.632 16.1549 19.632C15.4185 19.632 14.8216 19.0062 14.8216 18.2342C14.8216 16.8969 15.5636 15.6363 17.2505 14.3352C17.769 13.9352 17.9234 13.5526 17.9569 13.2835C17.9923 12.9987 17.9153 12.6549 17.6605 12.3065C17.6426 12.282 17.5452 12.1801 17.3014 12.0882C17.0685 12.0005 16.7758 11.9515 16.4744 11.9654Z" fill="#7246D0"/>
<path d="M15.9997 32.1504C7.86634 32.1504 1.33301 25.301 1.33301 16.7741C1.33301 8.24723 7.86634 1.39777 15.9997 1.39777C24.133 1.39777 30.6663 8.24723 30.6663 16.7741C30.6663 25.301 24.133 32.1504 15.9997 32.1504ZM15.9997 4.19346C9.33301 4.19346 3.99967 9.78486 3.99967 16.7741C3.99967 23.7634 9.33301 29.3547 15.9997 29.3547C22.6663 29.3547 27.9997 23.7634 27.9997 16.7741C27.9997 9.78486 22.6663 4.19346 15.9997 4.19346Z" fill="#7246D0"/>
</svg>
