<svg width="24" height="26" viewBox="0 0 24 26" fill="none" xmlns="http://www.w3.org/2000/svg">
<path d="M21.635 3.52486C21.5056 1.55582 20.1068 0 18.4048 0H3.24102C1.45392 0 0 1.7148 0 3.82258V21.5088C0 23.6166 1.45392 25.3314 3.24102 25.3314H20.759C22.5461 25.3314 24 23.6166 24 21.5088V7.20436C24 5.45468 22.9977 3.97688 21.635 3.52486ZM3.24102 1.78573H18.4049C19.2288 1.78573 19.9193 2.46994 20.0906 3.38184H3.24102C2.60649 3.38184 2.01445 3.59886 1.51406 3.97208V3.82258C1.51406 2.69947 2.28878 1.78573 3.24102 1.78573ZM20.7589 23.5456H3.24102C2.28878 23.5456 1.51406 22.6319 1.51406 21.5088V7.20436C1.51406 6.08125 2.28878 5.16751 3.24102 5.16751H20.759C21.7112 5.16751 22.4859 6.08125 22.4859 7.20436V10.3203H17.6587C15.7458 10.3203 14.1895 12.1559 14.1895 14.4121C14.1895 16.6682 15.7458 18.5038 17.6587 18.5038H22.4859V21.5088C22.4859 22.6319 21.7112 23.5456 20.7589 23.5456ZM22.4859 16.7181H17.6587C16.5806 16.7181 15.7035 15.6836 15.7035 14.4121C15.7035 13.1405 16.5806 12.1061 17.6587 12.1061H22.4859V16.7181Z" fill="#7246D0"/>
</svg>
