<svg width="26" height="27" viewBox="0 0 26 27" fill="none" xmlns="http://www.w3.org/2000/svg">
<path d="M22.635 4.52486C22.5056 2.55582 21.1068 1 19.4048 1H4.24102C2.45392 1 1 2.7148 1 4.82258V22.5088C1 24.6166 2.45392 26.3314 4.24102 26.3314H21.759C23.5461 26.3314 25 24.6166 25 22.5088V8.20436C25 6.45468 23.9977 4.97688 22.635 4.52486ZM4.24102 2.78573H19.4049C20.2288 2.78573 20.9193 3.46994 21.0906 4.38184H4.24102C3.60649 4.38184 3.01445 4.59886 2.51406 4.97208V4.82258C2.51406 3.69947 3.28878 2.78573 4.24102 2.78573ZM21.7589 24.5456H4.24102C3.28878 24.5456 2.51406 23.6319 2.51406 22.5088V8.20436C2.51406 7.08125 3.28878 6.16751 4.24102 6.16751H21.759C22.7112 6.16751 23.4859 7.08125 23.4859 8.20436V11.3203H18.6587C16.7458 11.3203 15.1895 13.1559 15.1895 15.4121C15.1895 17.6682 16.7458 19.5038 18.6587 19.5038H23.4859V22.5088C23.4859 23.6319 22.7112 24.5456 21.7589 24.5456ZM23.4859 17.7181H18.6587C17.5806 17.7181 16.7035 16.6836 16.7035 15.4121C16.7035 14.1405 17.5806 13.1061 18.6587 13.1061H23.4859V17.7181Z" fill="#7246D0" stroke="white"/>
</svg>
