<svg width="26" height="23" viewBox="0 0 26 23" fill="none" xmlns="http://www.w3.org/2000/svg">
<path d="M22.635 3.95427C22.5056 2.30396 21.1068 1 19.4048 1H4.24102C2.45392 1 1 2.43721 1 4.20379V19.027C1 20.7936 2.45392 22.2308 4.24102 22.2308H21.759C23.5461 22.2308 25 20.7936 25 19.027V7.03813C25 5.57169 23.9977 4.33311 22.635 3.95427ZM4.24102 2.49666H19.4049C20.2288 2.49666 20.9193 3.07011 21.0906 3.83439H4.24102C3.60649 3.83439 3.01445 4.01628 2.51406 4.32909V4.20379C2.51406 3.26248 3.28878 2.49666 4.24102 2.49666ZM21.7589 20.7341H4.24102C3.28878 20.7341 2.51406 19.9683 2.51406 19.027V7.03813C2.51406 6.09683 3.28878 5.33101 4.24102 5.33101H21.759C22.7112 5.33101 23.4859 6.09683 23.4859 7.03813V9.64971H18.6587C16.7457 9.64971 15.1895 11.1881 15.1895 13.0791C15.1895 14.97 16.7458 16.5084 18.6587 16.5084H23.4859V19.027C23.4859 19.9683 22.7112 20.7341 21.7589 20.7341ZM23.4859 15.0118H18.6587C17.5806 15.0118 16.7035 14.1448 16.7035 13.0791C16.7035 12.0134 17.5806 11.1464 18.6587 11.1464H23.4859V15.0118Z" fill="#7246D0" stroke="#7246D0"/>
</svg>
