<svg width="25" height="24" viewBox="0 0 25 24" fill="none" xmlns="http://www.w3.org/2000/svg">
<g clip-path="url(#clip0)">
<path d="M22.601 4.24996C22.4716 2.58048 21.0728 1.26135 19.3708 1.26135H4.20697C2.41986 1.26135 0.965942 2.71527 0.965942 4.50238V19.4979C0.965942 21.285 2.41986 22.7389 4.20697 22.7389H21.725C23.5121 22.7389 24.966 21.285 24.966 19.4979V7.36968C24.9659 5.88619 23.9637 4.63321 22.601 4.24996ZM4.20697 2.77541H19.3708C20.1948 2.77541 20.8853 3.35553 21.0566 4.1287H4.20697C3.57244 4.1287 2.9804 4.3127 2.48 4.62914V4.50238C2.48 3.55014 3.25473 2.77541 4.20697 2.77541ZM21.7249 21.2249H4.20697C3.25473 21.2249 2.48 20.4501 2.48 19.4979V7.36968C2.48 6.41743 3.25473 5.64271 4.20697 5.64271H21.725C22.6772 5.64271 23.4519 6.41743 23.4519 7.36968V10.0116H18.6246C16.7117 10.0116 15.1555 11.5679 15.1555 13.4808C15.1555 15.3938 16.7118 16.9501 18.6246 16.9501H23.4519V19.4979C23.4519 20.4501 22.6772 21.2249 21.7249 21.2249ZM23.4519 15.436H18.6246C17.5466 15.436 16.6695 14.5589 16.6695 13.4808C16.6695 12.4027 17.5466 11.5257 18.6246 11.5257H23.4519V15.436Z" fill="#7246D0" stroke="white" stroke-width="0.661746"/>
<path d="M19.5816 13.5382C19.5816 13.9125 19.2781 14.216 18.9037 14.216C18.5293 14.216 18.2258 13.9125 18.2258 13.5382C18.2258 13.1638 18.5293 12.8603 18.9037 12.8603C19.2781 12.8603 19.5816 13.1638 19.5816 13.5382Z" fill="#7246D0" stroke="white" stroke-width="0.220582"/>
</g>
<defs>
<clipPath id="clip0">
<rect width="24" height="24" fill="white" transform="translate(0.96582)"/>
</clipPath>
</defs>
</svg>
