<svg width="24" height="24" viewBox="0 0 24 24" fill="none" xmlns="http://www.w3.org/2000/svg">
<path fill-rule="evenodd" clip-rule="evenodd" d="M5 4C4.44772 4 4 4.44772 4 5V19C4 19.5523 4.44772 20 5 20H19C19.5523 20 20 19.5523 20 19V5C20 4.44772 19.5523 4 19 4H5ZM2 5C2 3.34315 3.34315 2 5 2H19C20.6569 2 22 3.34315 22 5V19C22 20.6569 20.6569 22 19 22H5C3.34315 22 2 20.6569 2 19V5Z" fill="#7246D0" stroke="white" stroke-width="0.5" stroke-linecap="round" stroke-linejoin="round"/>
<path fill-rule="evenodd" clip-rule="evenodd" d="M12 6.35294C12.3898 6.35294 12.7059 6.66898 12.7059 7.05883V16.9412C12.7059 17.331 12.3898 17.6471 12 17.6471C11.6101 17.6471 11.2941 17.331 11.2941 16.9412V7.05883C11.2941 6.66898 11.6101 6.35294 12 6.35294Z" fill="#7246D0"/>
<path fill-rule="evenodd" clip-rule="evenodd" d="M6.35292 12C6.35292 11.6101 6.66895 11.2941 7.0588 11.2941H16.9412C17.331 11.2941 17.647 11.6101 17.647 12C17.647 12.3898 17.331 12.7059 16.9412 12.7059H7.0588C6.66895 12.7059 6.35292 12.3898 6.35292 12Z" fill="#7246D0"/>
</svg>
