<?xml version="1.0" encoding="utf-8"?>
<!-- Generator: Adobe Illustrator 25.3.1, SVG Export Plug-In . SVG Version: 6.00 Build 0)  -->
<svg version="1.1" id="Layer_1" xmlns="http://www.w3.org/2000/svg" xmlns:xlink="http://www.w3.org/1999/xlink" x="0px" y="0px"
	 viewBox="0 0 24 24" style="enable-background:new 0 0 24 24;" xml:space="preserve">
<style type="text/css">
	.st0{fill-rule:evenodd;clip-rule:evenodd;fill:#581c9f;}
</style>
<path class="st0" d="M19.5,0C20.9,0,22,1.1,22,2.5V24l-2.6-2.3L18,20.4L16.5,19l0.6,2.2H3.5c-1.4,0-2.5-1.1-2.5-2.5V2.5
	C1,1.1,2.1,0,3.5,0H19.5z M14.9,15.7c2.7-0.1,3.7-1.8,3.7-1.8c0-3.9-1.7-7-1.7-7c-1.7-1.3-3.4-1.3-3.4-1.3l-0.2,0.2
	c2,0.6,3,1.5,3,1.5c-1.2-0.7-2.5-1-3.6-1.2C11.8,6,11,6,10.3,6.1h-0.2C9.6,6.2,8.6,6.4,7.3,7C6.9,7.2,6.6,7.3,6.6,7.3s1-0.9,3.2-1.6
	L9.7,5.6c0,0-1.6,0-3.4,1.3c0,0-1.7,3.1-1.7,7c0,0,1,1.7,3.7,1.8c0,0,0.4-0.5,0.8-1C7.6,14.2,7,13.3,7,13.3l0.3,0.2l0,0l0,0l0,0l0,0
	c0.4,0.2,0.7,0.4,1,0.5c0.5,0.2,1.1,0.4,1.8,0.5c0.9,0.2,2,0.2,3.1,0c0.6-0.1,1.1-0.3,1.7-0.5c0.4-0.2,0.9-0.4,1.4-0.7
	c0,0-0.6,1-2.2,1.4C14.5,15.2,14.9,15.7,14.9,15.7z M9.3,10.1c-0.7,0-1.2,0.6-1.2,1.3s0.6,1.3,1.2,1.3c0.7,0,1.2-0.6,1.2-1.3
	C10.6,10.7,10,10.1,9.3,10.1z M13.7,10.1c-0.7,0-1.2,0.6-1.2,1.3s0.6,1.3,1.2,1.3c0.7,0,1.2-0.6,1.2-1.3
	C14.9,10.7,14.4,10.1,13.7,10.1z"/>
</svg>
