<svg width="18" height="18" viewBox="0 0 18 18" fill="none" xmlns="http://www.w3.org/2000/svg">
<path d="M15.3633 0H2.63672C1.18295 0 0 1.18295 0 2.63672V15.3633C0 16.817 1.18295 18 2.63672 18H15.3633C16.817 18 18 16.817 18 15.3633V2.63672C18 1.18295 16.817 0 15.3633 0ZM6.36328 14.2734H4.25391V6.89062H6.36328V14.2734ZM6.36328 5.83594H4.25391V3.72656H6.36328V5.83594ZM13.7461 14.2734H11.6367V10.0547C11.6367 9.47324 11.1635 9 10.582 9C10.0006 9 9.52734 9.47324 9.52734 10.0547V14.2734H7.41797V6.89062H9.52734V7.28819C10.08 7.11639 10.4389 6.89062 11.1094 6.89062C12.5399 6.89214 13.7461 8.17548 13.7461 9.69214V14.2734Z" fill="#581D9F"/>
</svg>
