<svg width="18" height="18" viewBox="0 0 18 18" fill="none" xmlns="http://www.w3.org/2000/svg">
<path d="M18 2.19405L16.3757 1.93839L16.7997 0.047586L14.8969 0.656852C14.2887 0.22628 13.5981 0 12.8845 0C10.7037 0 8.92941 2.12004 8.92941 4.72579V5.33883C6.20755 5.16194 3.70198 3.619 1.99113 1.04427L1.5488 0.378555L1.14436 1.07774C0.984238 1.3544 0.848419 1.65271 0.740479 1.96399C0.404984 2.93179 0.34552 3.97737 0.56868 4.988C0.699829 5.5825 0.929031 6.14287 1.2361 6.63251L0.609192 6.81235L0.732239 7.42507C1.05922 9.05185 2.05925 10.3173 3.34314 10.824L2.72667 11.6865L3.12767 12.0957C3.7337 12.7142 4.47198 13.0981 5.2571 13.2032C3.85139 14.6693 2.01256 15.5577 0 15.5577L0.226456 15.7457C2.00281 17.2204 4.08829 18 6.25754 18C9.08418 18 11.7415 16.6848 13.7402 14.2967C15.7389 11.9085 16.8396 8.73319 16.8396 5.35589V4.72579C16.8396 4.50345 16.8265 4.28094 16.8007 4.06155L18 2.19405Z" fill="#581D9F"/>
</svg>
